%TF.GenerationSoftware,KiCad,Pcbnew,8.0.3*%
%TF.CreationDate,2024-09-04T21:16:44+02:00*%
%TF.ProjectId,ferntypes,6665726e-7479-4706-9573-2e6b69636164,rev?*%
%TF.SameCoordinates,Original*%
%TF.FileFunction,Paste,Bot*%
%TF.FilePolarity,Positive*%
%FSLAX46Y46*%
G04 Gerber Fmt 4.6, Leading zero omitted, Abs format (unit mm)*
G04 Created by KiCad (PCBNEW 8.0.3) date 2024-09-04 21:16:44*
%MOMM*%
%LPD*%
G01*
G04 APERTURE LIST*
G04 Aperture macros list*
%AMRoundRect*
0 Rectangle with rounded corners*
0 $1 Rounding radius*
0 $2 $3 $4 $5 $6 $7 $8 $9 X,Y pos of 4 corners*
0 Add a 4 corners polygon primitive as box body*
4,1,4,$2,$3,$4,$5,$6,$7,$8,$9,$2,$3,0*
0 Add four circle primitives for the rounded corners*
1,1,$1+$1,$2,$3*
1,1,$1+$1,$4,$5*
1,1,$1+$1,$6,$7*
1,1,$1+$1,$8,$9*
0 Add four rect primitives between the rounded corners*
20,1,$1+$1,$2,$3,$4,$5,0*
20,1,$1+$1,$4,$5,$6,$7,0*
20,1,$1+$1,$6,$7,$8,$9,0*
20,1,$1+$1,$8,$9,$2,$3,0*%
G04 Aperture macros list end*
%ADD10RoundRect,0.250000X0.300000X-0.300000X0.300000X0.300000X-0.300000X0.300000X-0.300000X-0.300000X0*%
%ADD11RoundRect,0.225000X-0.250000X0.225000X-0.250000X-0.225000X0.250000X-0.225000X0.250000X0.225000X0*%
%ADD12RoundRect,0.225000X0.225000X0.250000X-0.225000X0.250000X-0.225000X-0.250000X0.225000X-0.250000X0*%
%ADD13RoundRect,0.150000X-0.275000X0.150000X-0.275000X-0.150000X0.275000X-0.150000X0.275000X0.150000X0*%
%ADD14RoundRect,0.175000X-0.225000X0.175000X-0.225000X-0.175000X0.225000X-0.175000X0.225000X0.175000X0*%
%ADD15R,1.800000X1.100000*%
%ADD16RoundRect,0.075000X0.075000X-0.662500X0.075000X0.662500X-0.075000X0.662500X-0.075000X-0.662500X0*%
%ADD17RoundRect,0.075000X0.662500X-0.075000X0.662500X0.075000X-0.662500X0.075000X-0.662500X-0.075000X0*%
%ADD18RoundRect,0.225000X0.250000X-0.225000X0.250000X0.225000X-0.250000X0.225000X-0.250000X-0.225000X0*%
%ADD19RoundRect,0.150000X0.150000X-0.587500X0.150000X0.587500X-0.150000X0.587500X-0.150000X-0.587500X0*%
%ADD20RoundRect,0.150000X-0.625000X0.150000X-0.625000X-0.150000X0.625000X-0.150000X0.625000X0.150000X0*%
%ADD21RoundRect,0.250000X-0.650000X0.350000X-0.650000X-0.350000X0.650000X-0.350000X0.650000X0.350000X0*%
%ADD22RoundRect,0.200000X0.275000X-0.200000X0.275000X0.200000X-0.275000X0.200000X-0.275000X-0.200000X0*%
%ADD23RoundRect,0.225000X-0.225000X-0.250000X0.225000X-0.250000X0.225000X0.250000X-0.225000X0.250000X0*%
G04 APERTURE END LIST*
D10*
%TO.C,D16*%
X78581250Y-62518750D03*
X78581250Y-59718750D03*
%TD*%
D11*
%TO.C,C5*%
X142875000Y-94475000D03*
X142875000Y-96025000D03*
%TD*%
D10*
%TO.C,D10*%
X211931250Y-43468750D03*
X211931250Y-40668750D03*
%TD*%
D11*
%TO.C,C2*%
X152400000Y-94475000D03*
X152400000Y-96025000D03*
%TD*%
D10*
%TO.C,D21*%
X173831250Y-62518750D03*
X173831250Y-59718750D03*
%TD*%
%TO.C,D37*%
X240506250Y-81568750D03*
X240506250Y-78768750D03*
%TD*%
%TO.C,D28*%
X69056250Y-81568750D03*
X69056250Y-78768750D03*
%TD*%
D12*
%TO.C,C9*%
X146825000Y-73025000D03*
X145275000Y-73025000D03*
%TD*%
D10*
%TO.C,D34*%
X183356250Y-81568750D03*
X183356250Y-78768750D03*
%TD*%
D13*
%TO.C,J4*%
X153700000Y-66462500D03*
X153700000Y-67662500D03*
X153700000Y-68862500D03*
X153700000Y-70062500D03*
D14*
X157475000Y-65312500D03*
X157475000Y-71212500D03*
%TD*%
D10*
%TO.C,D42*%
X269875000Y-100618750D03*
X269875000Y-97818750D03*
%TD*%
%TO.C,D47*%
X200025000Y-105381250D03*
X200025000Y-102581250D03*
%TD*%
%TO.C,D39*%
X41275000Y-100618750D03*
X41275000Y-97818750D03*
%TD*%
%TO.C,D15*%
X59531250Y-62518750D03*
X59531250Y-59718750D03*
%TD*%
%TO.C,D13*%
X269081250Y-43468750D03*
X269081250Y-40668750D03*
%TD*%
%TO.C,D3*%
X78581250Y-43468750D03*
X78581250Y-40668750D03*
%TD*%
%TO.C,D20*%
X154781250Y-62518750D03*
X154781250Y-59718750D03*
%TD*%
%TO.C,D1*%
X40481250Y-43468750D03*
X40481250Y-40668750D03*
%TD*%
%TO.C,D11*%
X230981250Y-43468750D03*
X230981250Y-40668750D03*
%TD*%
%TO.C,D23*%
X211931250Y-62518750D03*
X211931250Y-59718750D03*
%TD*%
%TO.C,D24*%
X230981250Y-62518750D03*
X230981250Y-59718750D03*
%TD*%
%TO.C,D45*%
X138112500Y-105381250D03*
X138112500Y-102581250D03*
%TD*%
%TO.C,D7*%
X154781250Y-43468750D03*
X154781250Y-40668750D03*
%TD*%
%TO.C,D43*%
X84137500Y-105381250D03*
X84137500Y-102581250D03*
%TD*%
D11*
%TO.C,C7*%
X141287500Y-94475000D03*
X141287500Y-96025000D03*
%TD*%
D10*
%TO.C,D25*%
X250031250Y-62518750D03*
X250031250Y-59718750D03*
%TD*%
%TO.C,D6*%
X135731250Y-43468750D03*
X135731250Y-40668750D03*
%TD*%
D15*
%TO.C,SW3*%
X138037500Y-66412500D03*
X131837500Y-66412500D03*
X138037500Y-70112500D03*
X131837500Y-70112500D03*
%TD*%
D10*
%TO.C,D30*%
X107156250Y-81568750D03*
X107156250Y-78768750D03*
%TD*%
D16*
%TO.C,U3*%
X150387500Y-93856250D03*
X149887500Y-93856250D03*
X149387500Y-93856250D03*
X148887500Y-93856250D03*
X148387500Y-93856250D03*
X147887500Y-93856250D03*
X147387500Y-93856250D03*
X146887500Y-93856250D03*
X146387500Y-93856250D03*
X145887500Y-93856250D03*
X145387500Y-93856250D03*
X144887500Y-93856250D03*
D17*
X143475000Y-92443750D03*
X143475000Y-91943750D03*
X143475000Y-91443750D03*
X143475000Y-90943750D03*
X143475000Y-90443750D03*
X143475000Y-89943750D03*
X143475000Y-89443750D03*
X143475000Y-88943750D03*
X143475000Y-88443750D03*
X143475000Y-87943750D03*
X143475000Y-87443750D03*
X143475000Y-86943750D03*
D16*
X144887500Y-85531250D03*
X145387500Y-85531250D03*
X145887500Y-85531250D03*
X146387500Y-85531250D03*
X146887500Y-85531250D03*
X147387500Y-85531250D03*
X147887500Y-85531250D03*
X148387500Y-85531250D03*
X148887500Y-85531250D03*
X149387500Y-85531250D03*
X149887500Y-85531250D03*
X150387500Y-85531250D03*
D17*
X151800000Y-86943750D03*
X151800000Y-87443750D03*
X151800000Y-87943750D03*
X151800000Y-88443750D03*
X151800000Y-88943750D03*
X151800000Y-89443750D03*
X151800000Y-89943750D03*
X151800000Y-90443750D03*
X151800000Y-90943750D03*
X151800000Y-91443750D03*
X151800000Y-91943750D03*
X151800000Y-92443750D03*
%TD*%
D10*
%TO.C,D26*%
X269081250Y-62518750D03*
X269081250Y-59718750D03*
%TD*%
%TO.C,D8*%
X173831250Y-43468750D03*
X173831250Y-40668750D03*
%TD*%
%TO.C,D31*%
X126206250Y-81568750D03*
X126206250Y-78768750D03*
%TD*%
%TO.C,D46*%
X183356250Y-105381250D03*
X183356250Y-102581250D03*
%TD*%
%TO.C,D36*%
X221456250Y-81568750D03*
X221456250Y-78768750D03*
%TD*%
%TO.C,D40*%
X59531250Y-100618750D03*
X59531250Y-97818750D03*
%TD*%
D18*
%TO.C,C1*%
X152400000Y-84912500D03*
X152400000Y-83362500D03*
%TD*%
%TO.C,C6*%
X142875000Y-84912500D03*
X142875000Y-83362500D03*
%TD*%
D10*
%TO.C,D17*%
X97631250Y-62518750D03*
X97631250Y-59718750D03*
%TD*%
D19*
%TO.C,U2*%
X147000000Y-70787500D03*
X145100000Y-70787500D03*
X146050000Y-68912500D03*
%TD*%
D10*
%TO.C,D27*%
X45243750Y-81568750D03*
X45243750Y-78768750D03*
%TD*%
%TO.C,D44*%
X109537500Y-105381250D03*
X109537500Y-102581250D03*
%TD*%
%TO.C,D48*%
X227012500Y-105381250D03*
X227012500Y-102581250D03*
%TD*%
%TO.C,D22*%
X192881250Y-62518750D03*
X192881250Y-59718750D03*
%TD*%
D18*
%TO.C,C4*%
X141287500Y-84912500D03*
X141287500Y-83362500D03*
%TD*%
D10*
%TO.C,D35*%
X202406250Y-81568750D03*
X202406250Y-78768750D03*
%TD*%
D20*
%TO.C,J3*%
X152093947Y-66762500D03*
X152093947Y-67762500D03*
X152093947Y-68762500D03*
X152093947Y-69762500D03*
D21*
X155968947Y-65462500D03*
X155968947Y-71062500D03*
%TD*%
D10*
%TO.C,D12*%
X250031250Y-43468750D03*
X250031250Y-40668750D03*
%TD*%
%TO.C,D32*%
X145256250Y-81568750D03*
X145256250Y-78768750D03*
%TD*%
%TO.C,D33*%
X164306250Y-81568750D03*
X164306250Y-78768750D03*
%TD*%
%TO.C,D29*%
X88106250Y-81568750D03*
X88106250Y-78768750D03*
%TD*%
%TO.C,D2*%
X59531250Y-43468750D03*
X59531250Y-40668750D03*
%TD*%
%TO.C,D41*%
X250031250Y-100618750D03*
X250031250Y-97818750D03*
%TD*%
D22*
%TO.C,R1*%
X140493750Y-69087500D03*
X140493750Y-67437500D03*
%TD*%
D10*
%TO.C,D4*%
X97631250Y-43468750D03*
X97631250Y-40668750D03*
%TD*%
D23*
%TO.C,C8*%
X145275000Y-66675000D03*
X146825000Y-66675000D03*
%TD*%
D11*
%TO.C,C3*%
X153987500Y-94475000D03*
X153987500Y-96025000D03*
%TD*%
D10*
%TO.C,D14*%
X40481250Y-62518750D03*
X40481250Y-59718750D03*
%TD*%
%TO.C,D18*%
X116681250Y-62518750D03*
X116681250Y-59718750D03*
%TD*%
%TO.C,D38*%
X264318750Y-81568750D03*
X264318750Y-78768750D03*
%TD*%
%TO.C,D9*%
X192881250Y-43468750D03*
X192881250Y-40668750D03*
%TD*%
%TO.C,D5*%
X116681250Y-43468750D03*
X116681250Y-40668750D03*
%TD*%
%TO.C,D19*%
X135731250Y-62518750D03*
X135731250Y-59718750D03*
%TD*%
M02*
