M48
; DRILL file {KiCad 8.0.3} date 2024-09-04T21:16:49+0200
; FORMAT={-:-/ absolute / inch / decimal}
; #@! TF.CreationDate,2024-09-04T21:16:49+02:00
; #@! TF.GenerationSoftware,Kicad,Pcbnew,8.0.3
; #@! TF.FileFunction,Plated,1,2,PTH
FMAT,2
INCH
; #@! TA.AperFunction,Plated,PTH,ViaDrill
T1C0.0118
; #@! TA.AperFunction,Plated,PTH,ComponentDrill
T2C0.0394
; #@! TA.AperFunction,Plated,PTH,ComponentDrill
T3C0.0591
; #@! TA.AperFunction,Plated,PTH,ComponentDrill
T4C0.0600
; #@! TA.AperFunction,Plated,PTH,ComponentDrill
T5C0.1200
%
G90
G05
T1
X1.3503Y-3.5559
X2.1526Y-3.5362
X3.0Y-4.25
X3.0377Y-3.5165
X3.7877Y-3.4968
X4.5479Y-3.4745
X5.2883Y-3.4554
X5.5Y-4.1806
X5.5315Y-4.1804
X5.5625Y-2.6562
X5.5625Y-3.25
X5.5625Y-3.8125
X5.5925Y-2.72
X5.625Y-3.25
X5.625Y-3.8125
X5.6562Y-3.375
X5.6562Y-3.6875
X5.6875Y-2.625
X5.7188Y-3.4688
X5.75Y-2.7812
X5.75Y-3.4375
X5.7535Y-3.8125
X5.768Y-3.2188
X5.7812Y-3.75
X5.7848Y-3.8161
X5.8032Y-3.3137
X5.8199Y-3.8158
X5.855Y-3.8155
X5.8863Y-3.2188
X5.9062Y-3.4375
X5.9062Y-3.625
X5.9375Y-2.75
X5.9688Y-3.375
X5.9688Y-3.6875
X6.0Y-3.25
X6.0022Y-3.8103
X6.0379Y-3.4377
X6.0625Y-3.8125
X6.1248Y-4.1804
X6.125Y-2.6875
X6.1562Y-4.1804
X6.7641Y-3.4574
X7.5382Y-3.4757
X8.2881Y-3.4939
X8.625Y-4.25
X9.1533Y-3.5165
X9.9748Y-3.5309
T2
X2.9016Y-3.7869
X2.9016Y-4.3578
X3.0Y-4.3578
X3.0984Y-3.7869
X3.0984Y-4.3578
X8.5266Y-3.7869
X8.5266Y-4.3578
X8.625Y-4.3578
X8.7234Y-3.7869
X8.7234Y-4.3578
T4
X1.1625Y-1.525
X1.1625Y-2.275
X1.1625Y-3.775
X1.35Y-3.025
X1.4125Y-1.425
X1.4125Y-2.175
X1.4125Y-3.675
X1.6Y-2.925
X1.9125Y-1.525
X1.9125Y-2.275
X1.9125Y-3.775
X2.1625Y-1.425
X2.1625Y-2.175
X2.1625Y-3.675
X2.2875Y-3.025
X2.5375Y-2.925
X2.6625Y-1.525
X2.6625Y-2.275
X2.85Y-3.9625
X2.9125Y-1.425
X2.9125Y-2.175
X3.0375Y-3.025
X3.1Y-3.8625
X3.2875Y-2.925
X3.4125Y-1.525
X3.4125Y-2.275
X3.6625Y-1.425
X3.6625Y-2.175
X3.7875Y-3.025
X3.8813Y-3.9625
X4.0375Y-2.925
X4.1312Y-3.8625
X4.1625Y-1.525
X4.1625Y-2.275
X4.4125Y-1.425
X4.4125Y-2.175
X4.5375Y-3.025
X4.5375Y-3.9625
X4.7875Y-2.925
X4.7875Y-3.8625
X4.9125Y-1.525
X4.9125Y-2.275
X5.0062Y-3.9625
X5.1625Y-1.425
X5.1625Y-2.175
X5.2562Y-3.8625
X5.2875Y-3.025
X5.5375Y-2.925
X5.6625Y-1.525
X5.6625Y-2.275
X5.6625Y-3.9625
X5.9125Y-1.425
X5.9125Y-2.175
X5.9125Y-3.8625
X6.0375Y-3.025
X6.2875Y-2.925
X6.3187Y-3.9625
X6.4125Y-1.525
X6.4125Y-2.275
X6.5687Y-3.8625
X6.6625Y-1.425
X6.6625Y-2.175
X6.7875Y-3.025
X6.7875Y-3.9625
X7.0375Y-2.925
X7.0375Y-3.8625
X7.1625Y-1.525
X7.1625Y-2.275
X7.4125Y-1.425
X7.4125Y-2.175
X7.4437Y-3.9625
X7.5375Y-3.025
X7.6937Y-3.8625
X7.7875Y-2.925
X7.9125Y-1.525
X7.9125Y-2.275
X8.1625Y-1.425
X8.1625Y-2.175
X8.2875Y-3.025
X8.475Y-3.9625
X8.5375Y-2.925
X8.6625Y-1.525
X8.6625Y-2.275
X8.725Y-3.8625
X8.9125Y-1.425
X8.9125Y-2.175
X9.0375Y-3.025
X9.2875Y-2.925
X9.4125Y-1.525
X9.4125Y-2.275
X9.4125Y-3.775
X9.6625Y-1.425
X9.6625Y-2.175
X9.6625Y-3.675
X9.975Y-3.025
X10.1625Y-1.525
X10.1625Y-2.275
X10.1625Y-3.775
X10.225Y-2.925
X10.4125Y-1.425
X10.4125Y-2.175
X10.4125Y-3.675
T5
X3.9375Y-4.3375
X5.4375Y-4.3375
X6.1875Y-4.3375
X7.6875Y-4.3375
T3
G00X2.7795Y-4.0881
M15
G01X2.7795Y-4.0369
M16
G05
G00X3.2205Y-4.0881
M15
G01X3.2205Y-4.0369
M16
G05
G00X8.4045Y-4.0881
M15
G01X8.4045Y-4.0369
M16
G05
G00X8.8455Y-4.0881
M15
G01X8.8455Y-4.0369
M16
G05
M30
