%TF.GenerationSoftware,KiCad,Pcbnew,8.0.3*%
%TF.CreationDate,2024-09-04T21:16:46+02:00*%
%TF.ProjectId,ferntypes,6665726e-7479-4706-9573-2e6b69636164,rev?*%
%TF.SameCoordinates,Original*%
%TF.FileFunction,Legend,Bot*%
%TF.FilePolarity,Positive*%
%FSLAX46Y46*%
G04 Gerber Fmt 4.6, Leading zero omitted, Abs format (unit mm)*
G04 Created by KiCad (PCBNEW 8.0.3) date 2024-09-04 21:16:46*
%MOMM*%
%LPD*%
G01*
G04 APERTURE LIST*
%ADD10C,0.100000*%
%ADD11C,0.250000*%
%ADD12C,0.200000*%
%ADD13C,1.000000*%
%ADD14C,0.120000*%
%ADD15C,0.000000*%
G04 APERTURE END LIST*
D10*
X146843750Y-107156250D02*
X148431250Y-107156250D01*
X165893750Y-107950000D02*
X166993750Y-107950000D01*
X167393750Y-107950000D02*
X168493750Y-107950000D01*
X168893750Y-107950000D02*
X169993750Y-107950000D01*
X170393750Y-107950000D02*
X171493750Y-107950000D01*
X171893750Y-107950000D02*
X172993750Y-107950000D01*
X173393750Y-107950000D02*
X174493750Y-107950000D01*
X174893750Y-107950000D02*
X175993750Y-107950000D01*
X176393750Y-107950000D02*
X177493750Y-107950000D01*
X177893750Y-107950000D02*
X178993750Y-107950000D01*
X179393750Y-107950000D02*
X180493750Y-107950000D01*
X180893750Y-107950000D02*
X181993750Y-107950000D01*
X182393750Y-107950000D02*
X183493750Y-107950000D01*
X183893750Y-107950000D02*
X184993750Y-107950000D01*
X185393750Y-107950000D02*
X186493750Y-107950000D01*
X186893750Y-107950000D02*
X187993750Y-107950000D01*
X188393750Y-107950000D02*
X189493750Y-107950000D01*
X189893750Y-107950000D02*
X190993750Y-107950000D01*
X130968750Y-107156250D02*
X130968750Y-106056250D01*
X130968750Y-105656250D02*
X130968750Y-105656250D01*
X118268750Y-107156250D02*
X119856250Y-107156250D01*
X146843750Y-107950000D02*
X148431250Y-107950000D01*
X175418750Y-107156250D02*
X177006250Y-107156250D01*
X164306250Y-107156250D02*
X164306250Y-106056250D01*
X164306250Y-105656250D02*
X164306250Y-105656250D01*
D11*
X72231250Y-72231250D02*
X107950000Y-72231250D01*
D12*
X29368750Y-66675000D02*
X43656250Y-66675000D01*
X43656250Y-72231250D01*
X29368750Y-72231250D01*
X29368750Y-66675000D01*
D10*
X102393750Y-107156250D02*
X102393750Y-106056250D01*
X102393750Y-105656250D02*
X102393750Y-105656250D01*
X103981250Y-107950000D02*
X105081250Y-107950000D01*
X105481250Y-107950000D02*
X106581250Y-107950000D01*
X106981250Y-107950000D02*
X108081250Y-107950000D01*
X108481250Y-107950000D02*
X109581250Y-107950000D01*
X109981250Y-107950000D02*
X111081250Y-107950000D01*
X111481250Y-107950000D02*
X112581250Y-107950000D01*
X112981250Y-107950000D02*
X114081250Y-107950000D01*
X114481250Y-107950000D02*
X115581250Y-107950000D01*
X115981250Y-107950000D02*
X117081250Y-107950000D01*
X117481250Y-107950000D02*
X118581250Y-107950000D01*
X118981250Y-107950000D02*
X120081250Y-107950000D01*
X120481250Y-107950000D02*
X121581250Y-107950000D01*
X121981250Y-107950000D02*
X123081250Y-107950000D01*
X123481250Y-107950000D02*
X124581250Y-107950000D01*
X124981250Y-107950000D02*
X126081250Y-107950000D01*
X126481250Y-107950000D02*
X127581250Y-107950000D01*
X127981250Y-107950000D02*
X129081250Y-107950000D01*
X192881250Y-107156250D02*
X192881250Y-106056250D01*
X192881250Y-105656250D02*
X192881250Y-105656250D01*
G36*
X42773852Y-67941054D02*
G01*
X42712386Y-67944587D01*
X42660584Y-67953572D01*
X42601647Y-67971518D01*
X42567772Y-67987766D01*
X42567772Y-68097370D01*
X42625860Y-68078479D01*
X42667301Y-68068060D01*
X42727796Y-68059445D01*
X42760113Y-68058291D01*
X42821961Y-68064731D01*
X42858726Y-68074777D01*
X42915851Y-68103232D01*
X42946348Y-68128205D01*
X42984988Y-68177739D01*
X43008630Y-68226818D01*
X43024700Y-68286182D01*
X43031565Y-68351456D01*
X43032138Y-68379165D01*
X43027788Y-68442592D01*
X43014736Y-68500981D01*
X42989405Y-68558855D01*
X42962224Y-68597457D01*
X42914758Y-68639433D01*
X42875212Y-68660960D01*
X42814851Y-68678588D01*
X42754007Y-68683552D01*
X42691444Y-68679617D01*
X42653562Y-68673477D01*
X42594240Y-68658245D01*
X42554644Y-68644474D01*
X42554644Y-68754688D01*
X42593112Y-68771785D01*
X42645014Y-68786745D01*
X42705158Y-68796820D01*
X42766677Y-68800785D01*
X42768661Y-68800789D01*
X42834176Y-68796708D01*
X42896769Y-68784464D01*
X42924672Y-68776059D01*
X42980931Y-68751335D01*
X43034192Y-68714904D01*
X43051373Y-68699428D01*
X43093531Y-68649022D01*
X43124933Y-68592798D01*
X43135026Y-68568758D01*
X43153444Y-68505331D01*
X43162860Y-68439949D01*
X43165251Y-68381302D01*
X43162631Y-68318287D01*
X43153949Y-68256511D01*
X43149375Y-68235977D01*
X43130294Y-68175451D01*
X43105411Y-68122710D01*
X43070721Y-68072048D01*
X43039466Y-68039057D01*
X42989377Y-68000941D01*
X42957034Y-67982881D01*
X42897747Y-67959289D01*
X42865748Y-67951129D01*
X42804821Y-67942245D01*
X42773852Y-67941054D01*
G37*
G36*
X42045739Y-67942544D02*
G01*
X42107484Y-67952033D01*
X42169045Y-67972195D01*
X42195417Y-67984671D01*
X42247327Y-68017961D01*
X42292083Y-68059817D01*
X42313160Y-68085623D01*
X42346489Y-68139363D01*
X42370546Y-68195677D01*
X42385197Y-68246857D01*
X42395045Y-68307219D01*
X42398328Y-68371837D01*
X42396203Y-68424581D01*
X42387833Y-68485372D01*
X42371462Y-68547082D01*
X42360549Y-68575940D01*
X42331162Y-68633017D01*
X42293914Y-68682636D01*
X42274147Y-68702822D01*
X42226090Y-68740520D01*
X42170877Y-68769953D01*
X42133477Y-68783444D01*
X42072798Y-68796453D01*
X42006624Y-68800789D01*
X41968454Y-68799313D01*
X41906895Y-68789918D01*
X41845729Y-68769953D01*
X41823734Y-68759611D01*
X41771433Y-68726998D01*
X41722997Y-68682636D01*
X41701920Y-68656845D01*
X41668591Y-68603210D01*
X41644534Y-68547082D01*
X41631104Y-68501250D01*
X41620034Y-68435934D01*
X41616751Y-68371837D01*
X41749863Y-68371837D01*
X41749882Y-68376440D01*
X41754672Y-68441828D01*
X41769098Y-68504034D01*
X41787194Y-68548192D01*
X41822526Y-68602036D01*
X41849974Y-68629328D01*
X41903736Y-68662792D01*
X41943252Y-68676233D01*
X42006624Y-68683552D01*
X42050805Y-68680126D01*
X42110122Y-68662792D01*
X42146505Y-68642749D01*
X42192248Y-68602036D01*
X42221237Y-68560583D01*
X42245982Y-68504034D01*
X42248311Y-68496684D01*
X42261534Y-68433505D01*
X42265216Y-68371837D01*
X42265141Y-68362553D01*
X42260407Y-68301236D01*
X42245982Y-68239030D01*
X42226289Y-68191454D01*
X42192554Y-68140417D01*
X42165062Y-68112754D01*
X42111038Y-68079051D01*
X42071127Y-68065610D01*
X42007540Y-68058291D01*
X41963358Y-68061717D01*
X41904042Y-68079051D01*
X41867759Y-68099194D01*
X41822526Y-68140417D01*
X41793756Y-68182157D01*
X41769098Y-68239030D01*
X41766768Y-68246347D01*
X41753545Y-68309602D01*
X41749863Y-68371837D01*
X41616751Y-68371837D01*
X41618876Y-68318651D01*
X41627246Y-68257516D01*
X41643618Y-68195677D01*
X41654519Y-68166715D01*
X41683810Y-68109487D01*
X41720860Y-68059817D01*
X41740441Y-68039435D01*
X41788390Y-68001532D01*
X41843897Y-67972195D01*
X41881373Y-67958571D01*
X41941880Y-67945433D01*
X42007540Y-67941054D01*
X42045739Y-67942544D01*
G37*
G36*
X41279085Y-68074472D02*
G01*
X41276338Y-68074472D01*
X41234129Y-68028357D01*
X41227489Y-68022265D01*
X41177587Y-67985613D01*
X41167344Y-67979828D01*
X41109236Y-67955502D01*
X41094682Y-67951434D01*
X41033843Y-67941875D01*
X41007976Y-67941054D01*
X40944723Y-67946543D01*
X40904173Y-67956625D01*
X40848502Y-67983482D01*
X40819909Y-68006694D01*
X40781102Y-68057904D01*
X40763428Y-68096759D01*
X40747628Y-68158659D01*
X40742444Y-68223215D01*
X40742362Y-68233230D01*
X40742362Y-68781250D01*
X40875474Y-68781250D01*
X40875474Y-68256738D01*
X40880236Y-68191113D01*
X40898143Y-68131602D01*
X40915774Y-68104697D01*
X40968933Y-68068487D01*
X41033011Y-68058291D01*
X41095613Y-68066475D01*
X41156337Y-68091027D01*
X41164291Y-68095538D01*
X41216467Y-68133505D01*
X41258847Y-68178388D01*
X41273590Y-68198120D01*
X41273590Y-68781250D01*
X41406702Y-68781250D01*
X41406702Y-67960594D01*
X41304426Y-67960594D01*
X41279085Y-68074472D01*
G37*
G36*
X40151905Y-67941054D02*
G01*
X40090439Y-67944587D01*
X40038637Y-67953572D01*
X39979700Y-67971518D01*
X39945825Y-67987766D01*
X39945825Y-68097370D01*
X40003914Y-68078479D01*
X40045354Y-68068060D01*
X40105849Y-68059445D01*
X40138166Y-68058291D01*
X40200014Y-68064731D01*
X40236779Y-68074777D01*
X40293904Y-68103232D01*
X40324401Y-68128205D01*
X40363041Y-68177739D01*
X40386683Y-68226818D01*
X40402753Y-68286182D01*
X40409618Y-68351456D01*
X40410191Y-68379165D01*
X40405841Y-68442592D01*
X40392789Y-68500981D01*
X40367459Y-68558855D01*
X40340277Y-68597457D01*
X40292811Y-68639433D01*
X40253265Y-68660960D01*
X40192904Y-68678588D01*
X40132060Y-68683552D01*
X40069497Y-68679617D01*
X40031615Y-68673477D01*
X39972293Y-68658245D01*
X39932697Y-68644474D01*
X39932697Y-68754688D01*
X39971165Y-68771785D01*
X40023067Y-68786745D01*
X40083211Y-68796820D01*
X40144730Y-68800785D01*
X40146715Y-68800789D01*
X40212229Y-68796708D01*
X40274822Y-68784464D01*
X40302725Y-68776059D01*
X40358984Y-68751335D01*
X40412245Y-68714904D01*
X40429426Y-68699428D01*
X40471584Y-68649022D01*
X40502986Y-68592798D01*
X40513079Y-68568758D01*
X40531497Y-68505331D01*
X40540913Y-68439949D01*
X40543304Y-68381302D01*
X40540684Y-68318287D01*
X40532002Y-68256511D01*
X40527428Y-68235977D01*
X40508347Y-68175451D01*
X40483464Y-68122710D01*
X40448774Y-68072048D01*
X40417519Y-68039057D01*
X40367430Y-68000941D01*
X40335087Y-67982881D01*
X40275800Y-67959289D01*
X40243801Y-67951129D01*
X40182874Y-67942245D01*
X40151905Y-67941054D01*
G37*
G36*
X39421523Y-67941483D02*
G01*
X39483800Y-67949748D01*
X39543740Y-67968531D01*
X39560293Y-67975835D01*
X39614473Y-68008234D01*
X39662808Y-68051269D01*
X39684403Y-68076612D01*
X39719313Y-68130576D01*
X39745546Y-68188350D01*
X39747443Y-68193512D01*
X39764336Y-68254110D01*
X39773370Y-68315272D01*
X39776381Y-68382218D01*
X39776352Y-68389265D01*
X39772810Y-68456229D01*
X39763364Y-68516813D01*
X39746156Y-68576086D01*
X39736027Y-68600440D01*
X39704178Y-68656854D01*
X39660977Y-68706450D01*
X39643362Y-68721331D01*
X39588331Y-68755859D01*
X39529696Y-68778502D01*
X39490560Y-68788252D01*
X39429351Y-68797655D01*
X39365137Y-68800789D01*
X39351367Y-68800679D01*
X39289307Y-68797256D01*
X39226835Y-68788271D01*
X39177921Y-68776838D01*
X39118757Y-68754688D01*
X39118757Y-68644474D01*
X39166158Y-68659191D01*
X39227445Y-68673477D01*
X39284766Y-68681034D01*
X39348040Y-68683552D01*
X39405696Y-68680332D01*
X39466498Y-68668898D01*
X39508831Y-68653871D01*
X39562363Y-68621576D01*
X39594679Y-68589460D01*
X39626783Y-68537007D01*
X39629629Y-68530393D01*
X39645791Y-68471125D01*
X39650291Y-68410000D01*
X39076626Y-68410000D01*
X39075710Y-68376112D01*
X39075710Y-68358099D01*
X39077738Y-68298099D01*
X39078379Y-68292764D01*
X39209738Y-68292764D01*
X39643269Y-68292764D01*
X39638425Y-68260076D01*
X39619761Y-68201478D01*
X39608195Y-68178305D01*
X39570301Y-68126984D01*
X39552159Y-68110186D01*
X39498555Y-68076914D01*
X39472139Y-68067093D01*
X39409406Y-68058291D01*
X39382871Y-68059716D01*
X39323616Y-68076304D01*
X39307905Y-68084842D01*
X39261334Y-68126068D01*
X39248046Y-68144798D01*
X39222866Y-68200562D01*
X39215392Y-68230741D01*
X39209738Y-68292764D01*
X39078379Y-68292764D01*
X39085727Y-68231589D01*
X39101355Y-68167589D01*
X39107981Y-68148203D01*
X39133535Y-68091521D01*
X39170659Y-68038141D01*
X39218592Y-67994559D01*
X39274462Y-67964562D01*
X39278211Y-67963116D01*
X39340627Y-67946220D01*
X39403300Y-67941054D01*
X39421523Y-67941483D01*
G37*
G36*
X38515895Y-67942141D02*
G01*
X38577454Y-67954793D01*
X38589765Y-67959110D01*
X38646453Y-67986544D01*
X38692248Y-68020738D01*
X38720031Y-68053711D01*
X38722473Y-68053711D01*
X38749951Y-67960594D01*
X38847037Y-67960594D01*
X38847037Y-69172038D01*
X38716367Y-69172038D01*
X38716367Y-68703397D01*
X38713925Y-68703397D01*
X38672011Y-68743455D01*
X38618670Y-68776365D01*
X38556885Y-68795422D01*
X38493496Y-68800789D01*
X38480283Y-68800467D01*
X38419307Y-68791630D01*
X38399710Y-68786497D01*
X38342065Y-68762626D01*
X38318452Y-68748780D01*
X38268182Y-68709503D01*
X38240721Y-68679895D01*
X38206205Y-68627377D01*
X38182239Y-68574101D01*
X38163463Y-68512582D01*
X38157964Y-68487177D01*
X38149557Y-68422637D01*
X38147338Y-68362984D01*
X38280394Y-68362984D01*
X38281188Y-68397752D01*
X38287542Y-68460206D01*
X38302986Y-68521131D01*
X38323110Y-68567254D01*
X38359773Y-68619439D01*
X38379662Y-68637964D01*
X38434877Y-68669508D01*
X38449965Y-68674281D01*
X38512119Y-68683552D01*
X38562959Y-68678994D01*
X38623860Y-68659739D01*
X38667112Y-68635304D01*
X38716367Y-68594098D01*
X38716367Y-68165758D01*
X38685837Y-68131869D01*
X38640041Y-68096454D01*
X38636697Y-68094379D01*
X38580813Y-68068976D01*
X38570337Y-68065898D01*
X38507845Y-68058291D01*
X38471231Y-68060816D01*
X38410148Y-68079662D01*
X38382560Y-68096345D01*
X38338707Y-68140417D01*
X38315925Y-68178093D01*
X38295048Y-68235977D01*
X38294147Y-68239503D01*
X38283614Y-68299800D01*
X38280394Y-68362984D01*
X38147338Y-68362984D01*
X38147281Y-68361457D01*
X38150084Y-68293813D01*
X38158492Y-68232848D01*
X38175980Y-68168505D01*
X38185403Y-68144312D01*
X38214158Y-68088037D01*
X38252001Y-68038141D01*
X38257973Y-68031913D01*
X38306416Y-67992048D01*
X38361299Y-67964257D01*
X38369064Y-67961447D01*
X38428442Y-67946152D01*
X38489832Y-67941054D01*
X38515895Y-67942141D01*
G37*
G36*
X37490879Y-68780944D02*
G01*
X37543391Y-68793767D01*
X37606636Y-68800140D01*
X37627350Y-68800789D01*
X37690970Y-68796308D01*
X37739091Y-68784913D01*
X37794094Y-68758159D01*
X37817554Y-68739423D01*
X37854556Y-68690386D01*
X37864570Y-68667677D01*
X37878345Y-68605416D01*
X37879836Y-68574254D01*
X37879836Y-68077830D01*
X38037067Y-68077830D01*
X38037067Y-67960594D01*
X37879836Y-67960594D01*
X37879836Y-67745660D01*
X37746723Y-67745660D01*
X37746723Y-67960594D01*
X37502786Y-67960594D01*
X37502786Y-68077830D01*
X37746723Y-68077830D01*
X37746723Y-68552577D01*
X37738785Y-68604784D01*
X37712835Y-68646305D01*
X37667650Y-68673783D01*
X37606470Y-68683514D01*
X37601704Y-68683552D01*
X37545528Y-68679278D01*
X37490879Y-68667982D01*
X37490879Y-68780944D01*
G37*
G36*
X36961482Y-68781250D02*
G01*
X36861038Y-68781250D01*
X36832644Y-68690269D01*
X36830202Y-68690269D01*
X36806694Y-68720189D01*
X36762119Y-68757741D01*
X36751168Y-68764396D01*
X36694037Y-68788271D01*
X36665097Y-68795398D01*
X36601835Y-68800789D01*
X36593150Y-68800685D01*
X36529081Y-68793293D01*
X36466891Y-68774228D01*
X36450786Y-68767082D01*
X36398026Y-68735308D01*
X36350875Y-68693017D01*
X36329652Y-68667734D01*
X36295277Y-68613495D01*
X36269359Y-68555020D01*
X36265625Y-68544444D01*
X36249394Y-68482013D01*
X36240963Y-68418996D01*
X36238910Y-68366953D01*
X36371636Y-68366953D01*
X36371651Y-68371311D01*
X36375605Y-68433967D01*
X36387512Y-68495180D01*
X36402682Y-68539889D01*
X36433918Y-68595625D01*
X36459148Y-68624519D01*
X36510549Y-68660655D01*
X36553158Y-68676307D01*
X36616184Y-68683552D01*
X36628526Y-68683277D01*
X36689762Y-68672256D01*
X36693898Y-68670787D01*
X36750212Y-68644168D01*
X36796619Y-68608448D01*
X36828370Y-68573032D01*
X36828370Y-68150187D01*
X36785549Y-68115255D01*
X36730368Y-68083936D01*
X36673276Y-68064702D01*
X36612521Y-68058291D01*
X36592084Y-68059092D01*
X36531004Y-68071113D01*
X36505912Y-68081155D01*
X36454068Y-68117520D01*
X36422959Y-68154840D01*
X36394839Y-68211248D01*
X36384688Y-68243419D01*
X36374378Y-68305302D01*
X36371636Y-68366953D01*
X36238910Y-68366953D01*
X36238524Y-68357183D01*
X36238781Y-68336875D01*
X36243177Y-68275027D01*
X36255010Y-68211553D01*
X36271331Y-68159527D01*
X36298668Y-68102254D01*
X36318569Y-68072364D01*
X36362172Y-68025318D01*
X36384986Y-68007208D01*
X36437276Y-67975553D01*
X36456873Y-67966795D01*
X36516350Y-67948992D01*
X36528707Y-67946705D01*
X36590539Y-67941054D01*
X36604419Y-67941282D01*
X36665360Y-67948378D01*
X36723651Y-67967005D01*
X36778377Y-67997764D01*
X36825928Y-68038751D01*
X36828370Y-68038751D01*
X36828370Y-67530726D01*
X36961482Y-67530726D01*
X36961482Y-68781250D01*
G37*
G36*
X36142048Y-67960594D02*
G01*
X36008935Y-67960594D01*
X35749427Y-68598373D01*
X35743932Y-68598373D01*
X35477707Y-67960594D01*
X35344595Y-67960594D01*
X35857199Y-69172038D01*
X35989396Y-69172038D01*
X35815068Y-68757741D01*
X36142048Y-67960594D01*
G37*
G36*
X34541377Y-67942544D02*
G01*
X34603122Y-67952033D01*
X34664684Y-67972195D01*
X34691056Y-67984671D01*
X34742966Y-68017961D01*
X34787721Y-68059817D01*
X34808798Y-68085623D01*
X34842127Y-68139363D01*
X34866184Y-68195677D01*
X34880835Y-68246857D01*
X34890684Y-68307219D01*
X34893967Y-68371837D01*
X34891842Y-68424581D01*
X34883472Y-68485372D01*
X34867100Y-68547082D01*
X34856188Y-68575940D01*
X34826801Y-68633017D01*
X34789553Y-68682636D01*
X34769786Y-68702822D01*
X34721728Y-68740520D01*
X34666516Y-68769953D01*
X34629116Y-68783444D01*
X34568437Y-68796453D01*
X34502262Y-68800789D01*
X34464093Y-68799313D01*
X34402533Y-68789918D01*
X34341367Y-68769953D01*
X34319373Y-68759611D01*
X34267071Y-68726998D01*
X34218635Y-68682636D01*
X34197558Y-68656845D01*
X34164229Y-68603210D01*
X34140172Y-68547082D01*
X34126742Y-68501250D01*
X34115673Y-68435934D01*
X34112390Y-68371837D01*
X34245502Y-68371837D01*
X34245521Y-68376440D01*
X34250311Y-68441828D01*
X34264736Y-68504034D01*
X34282833Y-68548192D01*
X34318164Y-68602036D01*
X34345613Y-68629328D01*
X34399375Y-68662792D01*
X34438890Y-68676233D01*
X34502262Y-68683552D01*
X34546444Y-68680126D01*
X34605760Y-68662792D01*
X34642144Y-68642749D01*
X34687887Y-68602036D01*
X34716876Y-68560583D01*
X34741620Y-68504034D01*
X34743949Y-68496684D01*
X34757173Y-68433505D01*
X34760854Y-68371837D01*
X34760779Y-68362553D01*
X34756046Y-68301236D01*
X34741620Y-68239030D01*
X34721927Y-68191454D01*
X34688192Y-68140417D01*
X34660701Y-68112754D01*
X34606676Y-68079051D01*
X34566766Y-68065610D01*
X34503178Y-68058291D01*
X34458997Y-68061717D01*
X34399680Y-68079051D01*
X34363398Y-68099194D01*
X34318164Y-68140417D01*
X34289394Y-68182157D01*
X34264736Y-68239030D01*
X34262407Y-68246347D01*
X34249184Y-68309602D01*
X34245502Y-68371837D01*
X34112390Y-68371837D01*
X34114515Y-68318651D01*
X34122884Y-68257516D01*
X34139256Y-68195677D01*
X34150158Y-68166715D01*
X34179448Y-68109487D01*
X34216498Y-68059817D01*
X34236079Y-68039435D01*
X34284028Y-68001532D01*
X34339536Y-67972195D01*
X34377012Y-67958571D01*
X34437519Y-67945433D01*
X34503178Y-67941054D01*
X34541377Y-67942544D01*
G37*
G36*
X33902341Y-68781250D02*
G01*
X33801896Y-68781250D01*
X33773503Y-68690269D01*
X33771060Y-68690269D01*
X33747552Y-68720189D01*
X33702978Y-68757741D01*
X33692026Y-68764396D01*
X33634895Y-68788271D01*
X33605955Y-68795398D01*
X33542693Y-68800789D01*
X33534009Y-68800685D01*
X33469940Y-68793293D01*
X33407749Y-68774228D01*
X33391644Y-68767082D01*
X33338884Y-68735308D01*
X33291734Y-68693017D01*
X33270511Y-68667734D01*
X33236135Y-68613495D01*
X33210218Y-68555020D01*
X33206484Y-68544444D01*
X33190253Y-68482013D01*
X33181821Y-68418996D01*
X33179768Y-68366953D01*
X33312494Y-68366953D01*
X33312510Y-68371311D01*
X33316463Y-68433967D01*
X33328370Y-68495180D01*
X33343540Y-68539889D01*
X33374776Y-68595625D01*
X33400007Y-68624519D01*
X33451407Y-68660655D01*
X33494016Y-68676307D01*
X33557042Y-68683552D01*
X33569384Y-68683277D01*
X33630621Y-68672256D01*
X33634757Y-68670787D01*
X33691071Y-68644168D01*
X33737477Y-68608448D01*
X33769228Y-68573032D01*
X33769228Y-68150187D01*
X33726407Y-68115255D01*
X33671226Y-68083936D01*
X33614134Y-68064702D01*
X33553379Y-68058291D01*
X33532943Y-68059092D01*
X33471863Y-68071113D01*
X33446771Y-68081155D01*
X33394926Y-68117520D01*
X33363818Y-68154840D01*
X33335697Y-68211248D01*
X33325546Y-68243419D01*
X33315236Y-68305302D01*
X33312494Y-68366953D01*
X33179768Y-68366953D01*
X33179382Y-68357183D01*
X33179640Y-68336875D01*
X33184035Y-68275027D01*
X33195868Y-68211553D01*
X33212189Y-68159527D01*
X33239527Y-68102254D01*
X33259428Y-68072364D01*
X33303030Y-68025318D01*
X33325844Y-68007208D01*
X33378135Y-67975553D01*
X33397731Y-67966795D01*
X33457208Y-67948992D01*
X33469565Y-67946705D01*
X33531397Y-67941054D01*
X33545277Y-67941282D01*
X33606218Y-67948378D01*
X33664509Y-67967005D01*
X33719235Y-67997764D01*
X33766786Y-68038751D01*
X33769228Y-68038751D01*
X33769228Y-67530726D01*
X33902341Y-67530726D01*
X33902341Y-68781250D01*
G37*
G36*
X32709217Y-67941084D02*
G01*
X32771496Y-67944412D01*
X32775759Y-67944844D01*
X32836831Y-67954182D01*
X32895755Y-67969142D01*
X32943993Y-67988071D01*
X32943993Y-68097370D01*
X32896651Y-68082860D01*
X32835610Y-68068671D01*
X32782766Y-68061220D01*
X32718984Y-68058291D01*
X32713809Y-68058317D01*
X32648426Y-68064127D01*
X32586788Y-68084852D01*
X32556343Y-68104563D01*
X32515652Y-68151408D01*
X32500997Y-68195983D01*
X32496723Y-68253990D01*
X32496723Y-68310166D01*
X32500082Y-68310166D01*
X32537073Y-68298569D01*
X32598389Y-68284521D01*
X32655786Y-68276506D01*
X32718068Y-68273224D01*
X32779566Y-68277249D01*
X32842937Y-68291543D01*
X32885960Y-68308798D01*
X32939413Y-68343444D01*
X32969184Y-68373200D01*
X33002001Y-68425571D01*
X33017998Y-68473965D01*
X33024288Y-68535785D01*
X33020489Y-68587828D01*
X33004443Y-68647527D01*
X32987098Y-68682474D01*
X32948267Y-68731180D01*
X32919087Y-68754507D01*
X32861866Y-68783081D01*
X32812493Y-68795791D01*
X32751346Y-68800789D01*
X32729536Y-68800255D01*
X32667999Y-68792240D01*
X32653455Y-68788777D01*
X32595642Y-68767816D01*
X32589472Y-68764802D01*
X32537023Y-68731790D01*
X32495197Y-68691185D01*
X32491838Y-68691185D01*
X32476878Y-68781250D01*
X32363611Y-68781250D01*
X32363611Y-68420075D01*
X32496723Y-68420075D01*
X32496723Y-68581581D01*
X32527559Y-68608142D01*
X32578239Y-68642031D01*
X32589749Y-68648178D01*
X32646322Y-68671340D01*
X32668296Y-68677244D01*
X32729059Y-68683552D01*
X32731173Y-68683544D01*
X32792868Y-68674699D01*
X32844464Y-68647527D01*
X32878658Y-68601120D01*
X32880174Y-68597574D01*
X32891175Y-68535785D01*
X32880241Y-68474905D01*
X32841411Y-68426181D01*
X32828302Y-68417809D01*
X32768607Y-68396356D01*
X32703414Y-68390461D01*
X32650161Y-68392899D01*
X32587704Y-68400841D01*
X32559153Y-68406066D01*
X32496723Y-68420075D01*
X32363611Y-68420075D01*
X32363611Y-68234756D01*
X32363702Y-68225005D01*
X32369412Y-68162094D01*
X32369762Y-68160020D01*
X32387730Y-68101338D01*
X32404823Y-68071041D01*
X32447884Y-68021983D01*
X32500692Y-67985018D01*
X32510677Y-67979694D01*
X32571901Y-67956553D01*
X32636825Y-67944532D01*
X32702803Y-67941054D01*
X32709217Y-67941084D01*
G37*
G36*
X32109598Y-68781250D02*
G01*
X32009153Y-68781250D01*
X31980760Y-68690269D01*
X31978318Y-68690269D01*
X31954809Y-68720189D01*
X31910235Y-68757741D01*
X31899284Y-68764396D01*
X31842152Y-68788271D01*
X31813213Y-68795398D01*
X31749951Y-68800789D01*
X31741266Y-68800685D01*
X31677197Y-68793293D01*
X31615007Y-68774228D01*
X31598902Y-68767082D01*
X31546142Y-68735308D01*
X31498991Y-68693017D01*
X31477768Y-68667734D01*
X31443393Y-68613495D01*
X31417475Y-68555020D01*
X31413741Y-68544444D01*
X31397510Y-68482013D01*
X31389079Y-68418996D01*
X31387025Y-68366953D01*
X31519752Y-68366953D01*
X31519767Y-68371311D01*
X31523721Y-68433967D01*
X31535628Y-68495180D01*
X31550798Y-68539889D01*
X31582034Y-68595625D01*
X31607264Y-68624519D01*
X31658665Y-68660655D01*
X31701274Y-68676307D01*
X31764300Y-68683552D01*
X31776642Y-68683277D01*
X31837878Y-68672256D01*
X31842014Y-68670787D01*
X31898328Y-68644168D01*
X31944734Y-68608448D01*
X31976486Y-68573032D01*
X31976486Y-68150187D01*
X31933664Y-68115255D01*
X31878484Y-68083936D01*
X31821392Y-68064702D01*
X31760636Y-68058291D01*
X31740200Y-68059092D01*
X31679120Y-68071113D01*
X31654028Y-68081155D01*
X31602184Y-68117520D01*
X31571075Y-68154840D01*
X31542955Y-68211248D01*
X31532804Y-68243419D01*
X31522494Y-68305302D01*
X31519752Y-68366953D01*
X31387025Y-68366953D01*
X31386639Y-68357183D01*
X31386897Y-68336875D01*
X31391292Y-68275027D01*
X31403126Y-68211553D01*
X31419446Y-68159527D01*
X31446784Y-68102254D01*
X31466685Y-68072364D01*
X31510287Y-68025318D01*
X31533102Y-68007208D01*
X31585392Y-67975553D01*
X31604989Y-67966795D01*
X31664466Y-67948992D01*
X31676822Y-67946705D01*
X31738654Y-67941054D01*
X31752534Y-67941282D01*
X31813476Y-67948378D01*
X31871767Y-67967005D01*
X31926493Y-67997764D01*
X31974044Y-68038751D01*
X31976486Y-68038751D01*
X31976486Y-67530726D01*
X32109598Y-67530726D01*
X32109598Y-68781250D01*
G37*
G36*
X30878956Y-67942544D02*
G01*
X30940701Y-67952033D01*
X31002262Y-67972195D01*
X31028634Y-67984671D01*
X31080544Y-68017961D01*
X31125300Y-68059817D01*
X31146377Y-68085623D01*
X31179706Y-68139363D01*
X31203763Y-68195677D01*
X31218414Y-68246857D01*
X31228262Y-68307219D01*
X31231545Y-68371837D01*
X31229420Y-68424581D01*
X31221050Y-68485372D01*
X31204679Y-68547082D01*
X31193766Y-68575940D01*
X31164379Y-68633017D01*
X31127131Y-68682636D01*
X31107364Y-68702822D01*
X31059307Y-68740520D01*
X31004094Y-68769953D01*
X30966694Y-68783444D01*
X30906015Y-68796453D01*
X30839841Y-68800789D01*
X30801671Y-68799313D01*
X30740112Y-68789918D01*
X30678946Y-68769953D01*
X30656951Y-68759611D01*
X30604650Y-68726998D01*
X30556214Y-68682636D01*
X30535137Y-68656845D01*
X30501808Y-68603210D01*
X30477751Y-68547082D01*
X30464321Y-68501250D01*
X30453251Y-68435934D01*
X30449968Y-68371837D01*
X30583081Y-68371837D01*
X30583099Y-68376440D01*
X30587889Y-68441828D01*
X30602315Y-68504034D01*
X30620411Y-68548192D01*
X30655743Y-68602036D01*
X30683191Y-68629328D01*
X30736954Y-68662792D01*
X30776469Y-68676233D01*
X30839841Y-68683552D01*
X30884022Y-68680126D01*
X30943339Y-68662792D01*
X30979722Y-68642749D01*
X31025465Y-68602036D01*
X31054454Y-68560583D01*
X31079199Y-68504034D01*
X31081528Y-68496684D01*
X31094751Y-68433505D01*
X31098433Y-68371837D01*
X31098358Y-68362553D01*
X31093624Y-68301236D01*
X31079199Y-68239030D01*
X31059506Y-68191454D01*
X31025771Y-68140417D01*
X30998279Y-68112754D01*
X30944255Y-68079051D01*
X30904344Y-68065610D01*
X30840757Y-68058291D01*
X30796575Y-68061717D01*
X30737259Y-68079051D01*
X30700976Y-68099194D01*
X30655743Y-68140417D01*
X30626973Y-68182157D01*
X30602315Y-68239030D01*
X30599986Y-68246347D01*
X30586762Y-68309602D01*
X30583081Y-68371837D01*
X30449968Y-68371837D01*
X30452093Y-68318651D01*
X30460463Y-68257516D01*
X30476835Y-68195677D01*
X30487736Y-68166715D01*
X30517027Y-68109487D01*
X30554077Y-68059817D01*
X30573658Y-68039435D01*
X30621607Y-68001532D01*
X30677114Y-67972195D01*
X30714590Y-67958571D01*
X30775097Y-67945433D01*
X30840757Y-67941054D01*
X30878956Y-67942544D01*
G37*
X257841666Y-83007419D02*
X258413094Y-83007419D01*
X258127380Y-83007419D02*
X258127380Y-82007419D01*
X258127380Y-82007419D02*
X258222618Y-82150276D01*
X258222618Y-82150276D02*
X258317856Y-82245514D01*
X258317856Y-82245514D02*
X258413094Y-82293133D01*
X256936904Y-82007419D02*
X257413094Y-82007419D01*
X257413094Y-82007419D02*
X257460713Y-82483609D01*
X257460713Y-82483609D02*
X257413094Y-82435990D01*
X257413094Y-82435990D02*
X257317856Y-82388371D01*
X257317856Y-82388371D02*
X257079761Y-82388371D01*
X257079761Y-82388371D02*
X256984523Y-82435990D01*
X256984523Y-82435990D02*
X256936904Y-82483609D01*
X256936904Y-82483609D02*
X256889285Y-82578847D01*
X256889285Y-82578847D02*
X256889285Y-82816942D01*
X256889285Y-82816942D02*
X256936904Y-82912180D01*
X256936904Y-82912180D02*
X256984523Y-82959800D01*
X256984523Y-82959800D02*
X257079761Y-83007419D01*
X257079761Y-83007419D02*
X257317856Y-83007419D01*
X257317856Y-83007419D02*
X257413094Y-82959800D01*
X257413094Y-82959800D02*
X257460713Y-82912180D01*
X256270237Y-82007419D02*
X256174999Y-82007419D01*
X256174999Y-82007419D02*
X256079761Y-82055038D01*
X256079761Y-82055038D02*
X256032142Y-82102657D01*
X256032142Y-82102657D02*
X255984523Y-82197895D01*
X255984523Y-82197895D02*
X255936904Y-82388371D01*
X255936904Y-82388371D02*
X255936904Y-82626466D01*
X255936904Y-82626466D02*
X255984523Y-82816942D01*
X255984523Y-82816942D02*
X256032142Y-82912180D01*
X256032142Y-82912180D02*
X256079761Y-82959800D01*
X256079761Y-82959800D02*
X256174999Y-83007419D01*
X256174999Y-83007419D02*
X256270237Y-83007419D01*
X256270237Y-83007419D02*
X256365475Y-82959800D01*
X256365475Y-82959800D02*
X256413094Y-82912180D01*
X256413094Y-82912180D02*
X256460713Y-82816942D01*
X256460713Y-82816942D02*
X256508332Y-82626466D01*
X256508332Y-82626466D02*
X256508332Y-82388371D01*
X256508332Y-82388371D02*
X256460713Y-82197895D01*
X256460713Y-82197895D02*
X256413094Y-82102657D01*
X256413094Y-82102657D02*
X256365475Y-82055038D01*
X256365475Y-82055038D02*
X256270237Y-82007419D01*
G36*
X136636453Y-72646250D02*
G01*
X136399049Y-72646250D01*
X136381894Y-72646166D01*
X136330413Y-72644733D01*
X136279125Y-72640876D01*
X136236997Y-72634418D01*
X136187779Y-72621581D01*
X136141496Y-72602665D01*
X136098386Y-72575908D01*
X136071313Y-72552240D01*
X136040012Y-72514603D01*
X136027361Y-72493651D01*
X136008260Y-72446215D01*
X136003986Y-72428828D01*
X135998706Y-72381002D01*
X136104980Y-72381002D01*
X136111086Y-72426919D01*
X136130870Y-72469662D01*
X136131733Y-72470910D01*
X136167018Y-72506298D01*
X136177328Y-72513272D01*
X136221973Y-72533409D01*
X136243930Y-72539520D01*
X136294024Y-72547820D01*
X136335194Y-72551151D01*
X136385615Y-72552460D01*
X136524589Y-72552460D01*
X136524589Y-72224198D01*
X136344827Y-72224198D01*
X136327827Y-72224303D01*
X136277416Y-72226396D01*
X136229056Y-72233479D01*
X136216270Y-72236550D01*
X136170193Y-72255217D01*
X136132091Y-72288189D01*
X136111331Y-72330443D01*
X136110940Y-72331927D01*
X136104980Y-72381002D01*
X135998706Y-72381002D01*
X135998490Y-72379048D01*
X135999731Y-72349166D01*
X136008993Y-72298692D01*
X136015787Y-72279563D01*
X136042454Y-72237875D01*
X136057877Y-72222753D01*
X136099363Y-72195866D01*
X136128398Y-72184105D01*
X136176055Y-72173151D01*
X136176055Y-72170709D01*
X136152236Y-72161340D01*
X136108400Y-72136026D01*
X136096709Y-72126579D01*
X136062970Y-72088643D01*
X136055744Y-72076869D01*
X136037569Y-72031002D01*
X136034150Y-72015095D01*
X136030186Y-71970430D01*
X136136243Y-71970430D01*
X136141012Y-72013499D01*
X136161156Y-72061044D01*
X136195898Y-72096065D01*
X136240291Y-72117464D01*
X136285720Y-72127233D01*
X136295489Y-72128313D01*
X136345559Y-72130409D01*
X136524589Y-72130409D01*
X136524589Y-71817778D01*
X136392454Y-71817778D01*
X136357489Y-71818259D01*
X136307458Y-71821197D01*
X136292052Y-71822808D01*
X136243710Y-71832188D01*
X136200854Y-71850087D01*
X136162377Y-71882991D01*
X136142777Y-71921825D01*
X136136243Y-71970430D01*
X136030186Y-71970430D01*
X136029753Y-71965545D01*
X136031677Y-71934564D01*
X136043431Y-71886898D01*
X136054052Y-71862941D01*
X136082021Y-71822174D01*
X136102252Y-71801875D01*
X136142838Y-71773081D01*
X136175583Y-71756766D01*
X136222217Y-71740597D01*
X136257632Y-71733514D01*
X136298421Y-71728385D01*
X136346292Y-71725210D01*
X136354602Y-71724858D01*
X136404422Y-71723989D01*
X136636453Y-71723989D01*
X136636453Y-72646250D01*
G37*
G36*
X135439106Y-71709222D02*
G01*
X135491154Y-71715136D01*
X135540188Y-71726653D01*
X135586208Y-71743772D01*
X135596009Y-71748308D01*
X135642262Y-71774249D01*
X135683936Y-71805629D01*
X135721031Y-71842446D01*
X135734502Y-71858585D01*
X135764775Y-71902306D01*
X135787860Y-71945774D01*
X135807004Y-71993144D01*
X135818805Y-72032252D01*
X135829719Y-72085040D01*
X135835397Y-72134332D01*
X135837290Y-72185852D01*
X135836260Y-72224369D01*
X135831680Y-72273881D01*
X135822149Y-72327065D01*
X135807981Y-72377582D01*
X135802258Y-72393721D01*
X135782358Y-72439612D01*
X135755444Y-72486162D01*
X135723473Y-72528036D01*
X135716448Y-72535805D01*
X135678490Y-72571416D01*
X135635810Y-72601636D01*
X135588407Y-72626466D01*
X135557709Y-72638501D01*
X135508862Y-72651886D01*
X135456653Y-72659668D01*
X135407423Y-72661881D01*
X135383353Y-72661328D01*
X135331346Y-72656036D01*
X135282314Y-72645142D01*
X135231324Y-72626466D01*
X135221552Y-72621931D01*
X135175384Y-72596023D01*
X135133701Y-72564725D01*
X135096502Y-72528036D01*
X135082923Y-72511847D01*
X135052517Y-72468103D01*
X135029475Y-72424736D01*
X135010528Y-72377582D01*
X134998822Y-72338521D01*
X134987997Y-72285930D01*
X134982364Y-72236944D01*
X134980486Y-72185852D01*
X135086976Y-72185852D01*
X135087072Y-72197518D01*
X135089891Y-72247845D01*
X135097600Y-72299594D01*
X135111645Y-72351448D01*
X135125154Y-72385765D01*
X135149827Y-72431743D01*
X135179788Y-72471127D01*
X135196615Y-72488338D01*
X135236668Y-72519913D01*
X135281638Y-72543668D01*
X135307525Y-72553184D01*
X135358021Y-72564657D01*
X135407423Y-72568092D01*
X135436982Y-72566923D01*
X135485479Y-72559481D01*
X135534917Y-72543668D01*
X135556450Y-72533675D01*
X135599392Y-72506311D01*
X135637255Y-72471127D01*
X135660261Y-72442207D01*
X135686427Y-72397877D01*
X135705887Y-72351448D01*
X135710340Y-72337833D01*
X135722018Y-72289595D01*
X135728830Y-72236968D01*
X135730800Y-72185852D01*
X135730704Y-72174155D01*
X135727885Y-72123691D01*
X135720176Y-72071789D01*
X135706132Y-72019767D01*
X135692622Y-71985344D01*
X135667950Y-71939262D01*
X135637988Y-71899843D01*
X135621144Y-71882624D01*
X135580936Y-71850972D01*
X135535650Y-71827059D01*
X135509382Y-71817352D01*
X135458427Y-71805650D01*
X135408888Y-71802146D01*
X135383827Y-71803022D01*
X135331647Y-71810929D01*
X135282370Y-71827059D01*
X135260755Y-71837134D01*
X135217692Y-71864619D01*
X135179788Y-71899843D01*
X135156821Y-71928783D01*
X135130826Y-71973199D01*
X135111645Y-72019767D01*
X135107236Y-72033428D01*
X135095673Y-72081819D01*
X135088927Y-72134598D01*
X135086976Y-72185852D01*
X134980486Y-72185852D01*
X134981517Y-72147003D01*
X134986096Y-72097154D01*
X134995627Y-72043739D01*
X135009795Y-71993144D01*
X135015520Y-71976920D01*
X135035452Y-71930851D01*
X135062448Y-71884239D01*
X135094548Y-71842446D01*
X135101542Y-71834648D01*
X135139347Y-71798918D01*
X135181875Y-71768626D01*
X135229125Y-71743772D01*
X135259631Y-71731737D01*
X135308158Y-71718352D01*
X135360009Y-71710570D01*
X135408888Y-71708357D01*
X135439106Y-71709222D01*
G37*
G36*
X134417194Y-71709222D02*
G01*
X134469242Y-71715136D01*
X134518276Y-71726653D01*
X134564296Y-71743772D01*
X134574097Y-71748308D01*
X134620350Y-71774249D01*
X134662024Y-71805629D01*
X134699118Y-71842446D01*
X134712590Y-71858585D01*
X134742863Y-71902306D01*
X134765948Y-71945774D01*
X134785092Y-71993144D01*
X134796893Y-72032252D01*
X134807807Y-72085040D01*
X134813485Y-72134332D01*
X134815378Y-72185852D01*
X134814348Y-72224369D01*
X134809768Y-72273881D01*
X134800237Y-72327065D01*
X134786069Y-72377582D01*
X134780346Y-72393721D01*
X134760446Y-72439612D01*
X134733532Y-72486162D01*
X134701561Y-72528036D01*
X134694536Y-72535805D01*
X134656578Y-72571416D01*
X134613898Y-72601636D01*
X134566495Y-72626466D01*
X134535797Y-72638501D01*
X134486950Y-72651886D01*
X134434741Y-72659668D01*
X134385511Y-72661881D01*
X134361441Y-72661328D01*
X134309434Y-72656036D01*
X134260402Y-72645142D01*
X134209412Y-72626466D01*
X134199640Y-72621931D01*
X134153472Y-72596023D01*
X134111789Y-72564725D01*
X134074589Y-72528036D01*
X134061011Y-72511847D01*
X134030605Y-72468103D01*
X134007562Y-72424736D01*
X133988616Y-72377582D01*
X133976910Y-72338521D01*
X133966085Y-72285930D01*
X133960452Y-72236944D01*
X133958574Y-72185852D01*
X134065064Y-72185852D01*
X134065160Y-72197518D01*
X134067979Y-72247845D01*
X134075688Y-72299594D01*
X134089733Y-72351448D01*
X134103242Y-72385765D01*
X134127915Y-72431743D01*
X134157876Y-72471127D01*
X134174703Y-72488338D01*
X134214756Y-72519913D01*
X134259726Y-72543668D01*
X134285613Y-72553184D01*
X134336109Y-72564657D01*
X134385511Y-72568092D01*
X134415070Y-72566923D01*
X134463567Y-72559481D01*
X134513005Y-72543668D01*
X134534538Y-72533675D01*
X134577480Y-72506311D01*
X134615343Y-72471127D01*
X134638349Y-72442207D01*
X134664515Y-72397877D01*
X134683975Y-72351448D01*
X134688428Y-72337833D01*
X134700105Y-72289595D01*
X134706918Y-72236968D01*
X134708888Y-72185852D01*
X134708792Y-72174155D01*
X134705973Y-72123691D01*
X134698264Y-72071789D01*
X134684220Y-72019767D01*
X134670710Y-71985344D01*
X134646038Y-71939262D01*
X134616076Y-71899843D01*
X134599232Y-71882624D01*
X134559024Y-71850972D01*
X134513738Y-71827059D01*
X134487470Y-71817352D01*
X134436515Y-71805650D01*
X134386976Y-71802146D01*
X134361914Y-71803022D01*
X134309735Y-71810929D01*
X134260458Y-71827059D01*
X134238843Y-71837134D01*
X134195780Y-71864619D01*
X134157876Y-71899843D01*
X134134909Y-71928783D01*
X134108914Y-71973199D01*
X134089733Y-72019767D01*
X134085324Y-72033428D01*
X134073761Y-72081819D01*
X134067015Y-72134598D01*
X134065064Y-72185852D01*
X133958574Y-72185852D01*
X133959605Y-72147003D01*
X133964184Y-72097154D01*
X133973715Y-72043739D01*
X133987883Y-71993144D01*
X133993608Y-71976920D01*
X134013540Y-71930851D01*
X134040536Y-71884239D01*
X134072636Y-71842446D01*
X134079630Y-71834648D01*
X134117435Y-71798918D01*
X134159963Y-71768626D01*
X134207213Y-71743772D01*
X134237719Y-71731737D01*
X134286246Y-71718352D01*
X134338097Y-71710570D01*
X134386976Y-71708357D01*
X134417194Y-71709222D01*
G37*
G36*
X133465692Y-72646250D02*
G01*
X133577555Y-72646250D01*
X133577555Y-71817778D01*
X133884569Y-71817778D01*
X133884569Y-71723989D01*
X133158679Y-71723989D01*
X133158679Y-71817778D01*
X133465692Y-71817778D01*
X133465692Y-72646250D01*
G37*
X195595832Y-91532419D02*
X194976785Y-91532419D01*
X194976785Y-91532419D02*
X195310118Y-91913371D01*
X195310118Y-91913371D02*
X195167261Y-91913371D01*
X195167261Y-91913371D02*
X195072023Y-91960990D01*
X195072023Y-91960990D02*
X195024404Y-92008609D01*
X195024404Y-92008609D02*
X194976785Y-92103847D01*
X194976785Y-92103847D02*
X194976785Y-92341942D01*
X194976785Y-92341942D02*
X195024404Y-92437180D01*
X195024404Y-92437180D02*
X195072023Y-92484800D01*
X195072023Y-92484800D02*
X195167261Y-92532419D01*
X195167261Y-92532419D02*
X195452975Y-92532419D01*
X195452975Y-92532419D02*
X195548213Y-92484800D01*
X195548213Y-92484800D02*
X195595832Y-92437180D01*
X100345832Y-91532419D02*
X99726785Y-91532419D01*
X99726785Y-91532419D02*
X100060118Y-91913371D01*
X100060118Y-91913371D02*
X99917261Y-91913371D01*
X99917261Y-91913371D02*
X99822023Y-91960990D01*
X99822023Y-91960990D02*
X99774404Y-92008609D01*
X99774404Y-92008609D02*
X99726785Y-92103847D01*
X99726785Y-92103847D02*
X99726785Y-92341942D01*
X99726785Y-92341942D02*
X99774404Y-92437180D01*
X99774404Y-92437180D02*
X99822023Y-92484800D01*
X99822023Y-92484800D02*
X99917261Y-92532419D01*
X99917261Y-92532419D02*
X100202975Y-92532419D01*
X100202975Y-92532419D02*
X100298213Y-92484800D01*
X100298213Y-92484800D02*
X100345832Y-92437180D01*
X38766666Y-83007419D02*
X39338094Y-83007419D01*
X39052380Y-83007419D02*
X39052380Y-82007419D01*
X39052380Y-82007419D02*
X39147618Y-82150276D01*
X39147618Y-82150276D02*
X39242856Y-82245514D01*
X39242856Y-82245514D02*
X39338094Y-82293133D01*
X37861904Y-82007419D02*
X38338094Y-82007419D01*
X38338094Y-82007419D02*
X38385713Y-82483609D01*
X38385713Y-82483609D02*
X38338094Y-82435990D01*
X38338094Y-82435990D02*
X38242856Y-82388371D01*
X38242856Y-82388371D02*
X38004761Y-82388371D01*
X38004761Y-82388371D02*
X37909523Y-82435990D01*
X37909523Y-82435990D02*
X37861904Y-82483609D01*
X37861904Y-82483609D02*
X37814285Y-82578847D01*
X37814285Y-82578847D02*
X37814285Y-82816942D01*
X37814285Y-82816942D02*
X37861904Y-82912180D01*
X37861904Y-82912180D02*
X37909523Y-82959800D01*
X37909523Y-82959800D02*
X38004761Y-83007419D01*
X38004761Y-83007419D02*
X38242856Y-83007419D01*
X38242856Y-83007419D02*
X38338094Y-82959800D01*
X38338094Y-82959800D02*
X38385713Y-82912180D01*
X37195237Y-82007419D02*
X37099999Y-82007419D01*
X37099999Y-82007419D02*
X37004761Y-82055038D01*
X37004761Y-82055038D02*
X36957142Y-82102657D01*
X36957142Y-82102657D02*
X36909523Y-82197895D01*
X36909523Y-82197895D02*
X36861904Y-82388371D01*
X36861904Y-82388371D02*
X36861904Y-82626466D01*
X36861904Y-82626466D02*
X36909523Y-82816942D01*
X36909523Y-82816942D02*
X36957142Y-82912180D01*
X36957142Y-82912180D02*
X37004761Y-82959800D01*
X37004761Y-82959800D02*
X37099999Y-83007419D01*
X37099999Y-83007419D02*
X37195237Y-83007419D01*
X37195237Y-83007419D02*
X37290475Y-82959800D01*
X37290475Y-82959800D02*
X37338094Y-82912180D01*
X37338094Y-82912180D02*
X37385713Y-82816942D01*
X37385713Y-82816942D02*
X37433332Y-82626466D01*
X37433332Y-82626466D02*
X37433332Y-82388371D01*
X37433332Y-82388371D02*
X37385713Y-82197895D01*
X37385713Y-82197895D02*
X37338094Y-82102657D01*
X37338094Y-82102657D02*
X37290475Y-82055038D01*
X37290475Y-82055038D02*
X37195237Y-82007419D01*
X99822023Y-89944919D02*
X100012499Y-89944919D01*
X100012499Y-89944919D02*
X100107737Y-89992538D01*
X100107737Y-89992538D02*
X100155356Y-90040157D01*
X100155356Y-90040157D02*
X100250594Y-90183014D01*
X100250594Y-90183014D02*
X100298213Y-90373490D01*
X100298213Y-90373490D02*
X100298213Y-90754442D01*
X100298213Y-90754442D02*
X100250594Y-90849680D01*
X100250594Y-90849680D02*
X100202975Y-90897300D01*
X100202975Y-90897300D02*
X100107737Y-90944919D01*
X100107737Y-90944919D02*
X99917261Y-90944919D01*
X99917261Y-90944919D02*
X99822023Y-90897300D01*
X99822023Y-90897300D02*
X99774404Y-90849680D01*
X99774404Y-90849680D02*
X99726785Y-90754442D01*
X99726785Y-90754442D02*
X99726785Y-90516347D01*
X99726785Y-90516347D02*
X99774404Y-90421109D01*
X99774404Y-90421109D02*
X99822023Y-90373490D01*
X99822023Y-90373490D02*
X99917261Y-90325871D01*
X99917261Y-90325871D02*
X100107737Y-90325871D01*
X100107737Y-90325871D02*
X100202975Y-90373490D01*
X100202975Y-90373490D02*
X100250594Y-90421109D01*
X100250594Y-90421109D02*
X100298213Y-90516347D01*
X193547916Y-108407419D02*
X194119344Y-108407419D01*
X193833630Y-108407419D02*
X193833630Y-107407419D01*
X193833630Y-107407419D02*
X193928868Y-107550276D01*
X193928868Y-107550276D02*
X194024106Y-107645514D01*
X194024106Y-107645514D02*
X194119344Y-107693133D01*
X193166963Y-107502657D02*
X193119344Y-107455038D01*
X193119344Y-107455038D02*
X193024106Y-107407419D01*
X193024106Y-107407419D02*
X192786011Y-107407419D01*
X192786011Y-107407419D02*
X192690773Y-107455038D01*
X192690773Y-107455038D02*
X192643154Y-107502657D01*
X192643154Y-107502657D02*
X192595535Y-107597895D01*
X192595535Y-107597895D02*
X192595535Y-107693133D01*
X192595535Y-107693133D02*
X192643154Y-107835990D01*
X192643154Y-107835990D02*
X193214582Y-108407419D01*
X193214582Y-108407419D02*
X192595535Y-108407419D01*
X191690773Y-107407419D02*
X192166963Y-107407419D01*
X192166963Y-107407419D02*
X192214582Y-107883609D01*
X192214582Y-107883609D02*
X192166963Y-107835990D01*
X192166963Y-107835990D02*
X192071725Y-107788371D01*
X192071725Y-107788371D02*
X191833630Y-107788371D01*
X191833630Y-107788371D02*
X191738392Y-107835990D01*
X191738392Y-107835990D02*
X191690773Y-107883609D01*
X191690773Y-107883609D02*
X191643154Y-107978847D01*
X191643154Y-107978847D02*
X191643154Y-108216942D01*
X191643154Y-108216942D02*
X191690773Y-108312180D01*
X191690773Y-108312180D02*
X191738392Y-108359800D01*
X191738392Y-108359800D02*
X191833630Y-108407419D01*
X191833630Y-108407419D02*
X192071725Y-108407419D01*
X192071725Y-108407419D02*
X192166963Y-108359800D01*
X192166963Y-108359800D02*
X192214582Y-108312180D01*
G36*
X138058276Y-92113861D02*
G01*
X138009738Y-92123758D01*
X137988667Y-92131691D01*
X137946352Y-92157057D01*
X137929560Y-92172479D01*
X137899472Y-92212465D01*
X137886818Y-92237692D01*
X137872993Y-92285434D01*
X137869721Y-92328551D01*
X137873107Y-92377459D01*
X137884327Y-92425891D01*
X137890237Y-92442123D01*
X137913536Y-92486652D01*
X137945421Y-92524527D01*
X137950321Y-92529074D01*
X137992084Y-92559084D01*
X138039489Y-92580509D01*
X138050705Y-92584273D01*
X138098962Y-92596180D01*
X138147844Y-92602267D01*
X138191144Y-92603812D01*
X138242224Y-92601666D01*
X138291050Y-92595226D01*
X138297390Y-92594043D01*
X138344956Y-92581953D01*
X138387027Y-92565222D01*
X138387027Y-92478760D01*
X138337812Y-92493048D01*
X138289330Y-92502696D01*
X138239792Y-92508413D01*
X138198716Y-92510023D01*
X138147338Y-92507125D01*
X138098352Y-92496714D01*
X138092959Y-92494880D01*
X138048433Y-92473657D01*
X138024815Y-92455068D01*
X137995169Y-92415570D01*
X137987690Y-92397916D01*
X137977119Y-92349705D01*
X137976211Y-92330016D01*
X137981935Y-92280419D01*
X138003917Y-92233432D01*
X138034829Y-92204719D01*
X138080930Y-92182749D01*
X138132908Y-92170689D01*
X138187886Y-92166280D01*
X138201158Y-92166129D01*
X138273943Y-92166129D01*
X138273943Y-92072340D01*
X138231445Y-92072340D01*
X138179735Y-92069549D01*
X138130084Y-92059639D01*
X138083086Y-92039642D01*
X138060475Y-92023980D01*
X138027456Y-91985511D01*
X138020174Y-91970735D01*
X138008268Y-91921963D01*
X138007474Y-91904545D01*
X138014792Y-91855901D01*
X138021640Y-91839821D01*
X138052610Y-91800440D01*
X138059986Y-91794636D01*
X138105319Y-91771789D01*
X138117383Y-91768257D01*
X138167305Y-91760385D01*
X138188214Y-91759709D01*
X138237986Y-91762122D01*
X138282247Y-91768257D01*
X138332247Y-91778804D01*
X138375792Y-91790972D01*
X138375792Y-91704999D01*
X138327453Y-91688215D01*
X138277944Y-91676148D01*
X138268325Y-91674468D01*
X138217275Y-91667798D01*
X138177955Y-91665920D01*
X138126158Y-91668822D01*
X138075695Y-91678439D01*
X138059009Y-91683505D01*
X138013926Y-91702875D01*
X137972303Y-91732354D01*
X137938660Y-91771432D01*
X137919546Y-91806848D01*
X137905063Y-91855003D01*
X137900984Y-91901614D01*
X137905655Y-91951806D01*
X137909288Y-91968048D01*
X137927561Y-92013798D01*
X137936399Y-92027888D01*
X137969112Y-92064407D01*
X137985004Y-92076980D01*
X138030003Y-92101404D01*
X138058276Y-92111174D01*
X138058276Y-92113861D01*
G37*
X147447023Y-105819919D02*
X147637499Y-105819919D01*
X147637499Y-105819919D02*
X147732737Y-105867538D01*
X147732737Y-105867538D02*
X147780356Y-105915157D01*
X147780356Y-105915157D02*
X147875594Y-106058014D01*
X147875594Y-106058014D02*
X147923213Y-106248490D01*
X147923213Y-106248490D02*
X147923213Y-106629442D01*
X147923213Y-106629442D02*
X147875594Y-106724680D01*
X147875594Y-106724680D02*
X147827975Y-106772300D01*
X147827975Y-106772300D02*
X147732737Y-106819919D01*
X147732737Y-106819919D02*
X147542261Y-106819919D01*
X147542261Y-106819919D02*
X147447023Y-106772300D01*
X147447023Y-106772300D02*
X147399404Y-106724680D01*
X147399404Y-106724680D02*
X147351785Y-106629442D01*
X147351785Y-106629442D02*
X147351785Y-106391347D01*
X147351785Y-106391347D02*
X147399404Y-106296109D01*
X147399404Y-106296109D02*
X147447023Y-106248490D01*
X147447023Y-106248490D02*
X147542261Y-106200871D01*
X147542261Y-106200871D02*
X147732737Y-106200871D01*
X147732737Y-106200871D02*
X147827975Y-106248490D01*
X147827975Y-106248490D02*
X147875594Y-106296109D01*
X147875594Y-106296109D02*
X147923213Y-106391347D01*
X195072023Y-89944919D02*
X195262499Y-89944919D01*
X195262499Y-89944919D02*
X195357737Y-89992538D01*
X195357737Y-89992538D02*
X195405356Y-90040157D01*
X195405356Y-90040157D02*
X195500594Y-90183014D01*
X195500594Y-90183014D02*
X195548213Y-90373490D01*
X195548213Y-90373490D02*
X195548213Y-90754442D01*
X195548213Y-90754442D02*
X195500594Y-90849680D01*
X195500594Y-90849680D02*
X195452975Y-90897300D01*
X195452975Y-90897300D02*
X195357737Y-90944919D01*
X195357737Y-90944919D02*
X195167261Y-90944919D01*
X195167261Y-90944919D02*
X195072023Y-90897300D01*
X195072023Y-90897300D02*
X195024404Y-90849680D01*
X195024404Y-90849680D02*
X194976785Y-90754442D01*
X194976785Y-90754442D02*
X194976785Y-90516347D01*
X194976785Y-90516347D02*
X195024404Y-90421109D01*
X195024404Y-90421109D02*
X195072023Y-90373490D01*
X195072023Y-90373490D02*
X195167261Y-90325871D01*
X195167261Y-90325871D02*
X195357737Y-90325871D01*
X195357737Y-90325871D02*
X195452975Y-90373490D01*
X195452975Y-90373490D02*
X195500594Y-90421109D01*
X195500594Y-90421109D02*
X195548213Y-90516347D01*
X157495832Y-91532419D02*
X156876785Y-91532419D01*
X156876785Y-91532419D02*
X157210118Y-91913371D01*
X157210118Y-91913371D02*
X157067261Y-91913371D01*
X157067261Y-91913371D02*
X156972023Y-91960990D01*
X156972023Y-91960990D02*
X156924404Y-92008609D01*
X156924404Y-92008609D02*
X156876785Y-92103847D01*
X156876785Y-92103847D02*
X156876785Y-92341942D01*
X156876785Y-92341942D02*
X156924404Y-92437180D01*
X156924404Y-92437180D02*
X156972023Y-92484800D01*
X156972023Y-92484800D02*
X157067261Y-92532419D01*
X157067261Y-92532419D02*
X157352975Y-92532419D01*
X157352975Y-92532419D02*
X157448213Y-92484800D01*
X157448213Y-92484800D02*
X157495832Y-92437180D01*
X131635416Y-108407419D02*
X132206844Y-108407419D01*
X131921130Y-108407419D02*
X131921130Y-107407419D01*
X131921130Y-107407419D02*
X132016368Y-107550276D01*
X132016368Y-107550276D02*
X132111606Y-107645514D01*
X132111606Y-107645514D02*
X132206844Y-107693133D01*
X131302082Y-107407419D02*
X130635416Y-107407419D01*
X130635416Y-107407419D02*
X131063987Y-108407419D01*
X129778273Y-107407419D02*
X130254463Y-107407419D01*
X130254463Y-107407419D02*
X130302082Y-107883609D01*
X130302082Y-107883609D02*
X130254463Y-107835990D01*
X130254463Y-107835990D02*
X130159225Y-107788371D01*
X130159225Y-107788371D02*
X129921130Y-107788371D01*
X129921130Y-107788371D02*
X129825892Y-107835990D01*
X129825892Y-107835990D02*
X129778273Y-107883609D01*
X129778273Y-107883609D02*
X129730654Y-107978847D01*
X129730654Y-107978847D02*
X129730654Y-108216942D01*
X129730654Y-108216942D02*
X129778273Y-108312180D01*
X129778273Y-108312180D02*
X129825892Y-108359800D01*
X129825892Y-108359800D02*
X129921130Y-108407419D01*
X129921130Y-108407419D02*
X130159225Y-108407419D01*
X130159225Y-108407419D02*
X130254463Y-108359800D01*
X130254463Y-108359800D02*
X130302082Y-108312180D01*
D13*
G36*
X104843972Y-65270118D02*
G01*
X105160154Y-65200724D01*
X105182126Y-65197090D01*
X105507069Y-65168541D01*
X105517105Y-65168513D01*
X105837796Y-65212965D01*
X106096571Y-65357435D01*
X106291843Y-65617798D01*
X106402453Y-65924473D01*
X106422025Y-66008342D01*
X106542681Y-66590983D01*
X105367873Y-66590983D01*
X105536156Y-67403824D01*
X106710964Y-67403824D01*
X107450776Y-70960000D01*
X108444600Y-70960000D01*
X107704788Y-67403824D01*
X108420786Y-67403824D01*
X108252503Y-66590983D01*
X107536505Y-66590983D01*
X107430137Y-66081371D01*
X107346715Y-65759886D01*
X107226612Y-65451921D01*
X107149136Y-65303457D01*
X106971848Y-65039783D01*
X106752222Y-64807181D01*
X106704614Y-64766856D01*
X106432741Y-64583490D01*
X106131498Y-64455690D01*
X105806044Y-64380677D01*
X105483629Y-64355771D01*
X105461540Y-64355673D01*
X105139757Y-64376212D01*
X105034481Y-64392187D01*
X104716370Y-64465464D01*
X104678863Y-64477916D01*
X104843972Y-65270118D01*
G37*
G36*
X103128787Y-66492944D02*
G01*
X103453670Y-66540869D01*
X103758068Y-66635436D01*
X103920401Y-66706325D01*
X104209784Y-66875061D01*
X104462953Y-67073607D01*
X104660904Y-67271062D01*
X104861460Y-67522644D01*
X105044007Y-67810244D01*
X105090192Y-67894889D01*
X105227617Y-68195785D01*
X105339615Y-68525518D01*
X105418675Y-68846933D01*
X105426323Y-68884363D01*
X105477992Y-69205471D01*
X105499170Y-69528971D01*
X105474240Y-69870921D01*
X105459589Y-69948720D01*
X105358009Y-70275252D01*
X105188476Y-70558342D01*
X105146895Y-70606769D01*
X104897131Y-70810395D01*
X104601072Y-70942536D01*
X104433508Y-70988931D01*
X104102969Y-71044861D01*
X103775531Y-71061605D01*
X103553568Y-71056941D01*
X103224716Y-71032458D01*
X102900776Y-70986988D01*
X102564736Y-70920180D01*
X102251456Y-70829818D01*
X102087935Y-70045554D01*
X102132518Y-70057678D01*
X102462537Y-70137142D01*
X102784882Y-70196374D01*
X103093879Y-70233978D01*
X103424676Y-70248764D01*
X103607308Y-70240885D01*
X103921589Y-70182086D01*
X104014639Y-70149192D01*
X104289907Y-69970938D01*
X104366050Y-69882641D01*
X104497880Y-69593094D01*
X104529926Y-69352237D01*
X104510580Y-69029504D01*
X101778358Y-69029504D01*
X101763139Y-68969468D01*
X101689453Y-68656423D01*
X101636305Y-68350441D01*
X101606477Y-68008865D01*
X101610475Y-67893801D01*
X102578900Y-67893801D01*
X102603898Y-68216664D01*
X104294669Y-68216664D01*
X104274391Y-68158207D01*
X104132736Y-67862634D01*
X104100055Y-67811588D01*
X103891425Y-67572107D01*
X103856026Y-67541596D01*
X103581847Y-67375247D01*
X103528026Y-67354209D01*
X103211941Y-67302219D01*
X103199602Y-67302290D01*
X102880137Y-67375247D01*
X102672164Y-67572107D01*
X102581672Y-67862634D01*
X102578900Y-67893801D01*
X101610475Y-67893801D01*
X101618012Y-67676887D01*
X101624300Y-67625495D01*
X101698185Y-67299440D01*
X101846623Y-66998991D01*
X102042458Y-66782970D01*
X102327660Y-66613210D01*
X102365501Y-66598214D01*
X102692344Y-66513080D01*
X103013494Y-66489378D01*
X103128787Y-66492944D01*
G37*
G36*
X97761784Y-67302219D02*
G01*
X97850688Y-67302219D01*
X98168030Y-67323604D01*
X98493682Y-67395715D01*
X98723856Y-67483203D01*
X99004337Y-67646177D01*
X99250436Y-67863626D01*
X99395402Y-68038855D01*
X100003445Y-70960000D01*
X100997269Y-70960000D01*
X100089174Y-66590983D01*
X99269983Y-66590983D01*
X99304910Y-67205376D01*
X99287447Y-67205376D01*
X99065563Y-66958077D01*
X98807521Y-66757940D01*
X98676229Y-66681475D01*
X98367720Y-66557100D01*
X98030389Y-66496132D01*
X97864977Y-66489378D01*
X97596676Y-66505254D01*
X97761784Y-67302219D01*
G37*
G36*
X96123403Y-67205376D02*
G01*
X96105940Y-67205376D01*
X95872654Y-66981049D01*
X95821763Y-66940251D01*
X95553264Y-66761350D01*
X95456620Y-66710052D01*
X95155769Y-66588242D01*
X95029561Y-66551294D01*
X94707717Y-66495425D01*
X94556463Y-66489378D01*
X94238032Y-66517263D01*
X94121466Y-66543356D01*
X93823740Y-66671944D01*
X93764261Y-66713227D01*
X93541273Y-66954717D01*
X93508661Y-67010104D01*
X93400011Y-67321766D01*
X93383242Y-67443513D01*
X93388005Y-67748328D01*
X93440792Y-68074600D01*
X93451508Y-68127759D01*
X94040500Y-70960000D01*
X95034324Y-70960000D01*
X94467558Y-68232540D01*
X94415168Y-67924549D01*
X94418344Y-67699113D01*
X94571884Y-67412624D01*
X94597740Y-67394298D01*
X94915851Y-67303657D01*
X94972408Y-67302219D01*
X95301098Y-67349713D01*
X95596327Y-67470502D01*
X95867772Y-67645532D01*
X96108400Y-67860302D01*
X96198019Y-67956301D01*
X96821937Y-70960000D01*
X97815762Y-70960000D01*
X96907667Y-66590983D01*
X96088476Y-66590983D01*
X96123403Y-67205376D01*
G37*
G36*
X90295402Y-70955237D02*
G01*
X90610338Y-71017450D01*
X90730399Y-71033028D01*
X91052925Y-71058814D01*
X91187621Y-71061605D01*
X91522563Y-71040219D01*
X91844879Y-70959801D01*
X92003637Y-70880621D01*
X92234629Y-70660344D01*
X92356079Y-70361482D01*
X92364395Y-70033468D01*
X92313214Y-69702637D01*
X91835353Y-67403824D01*
X92625967Y-67403824D01*
X92457684Y-66590983D01*
X91667070Y-66590983D01*
X91413057Y-65371723D01*
X90419233Y-65371723D01*
X90673246Y-66590983D01*
X89450810Y-66590983D01*
X89619094Y-67403824D01*
X90841529Y-67403824D01*
X91306690Y-69637547D01*
X91331099Y-69958436D01*
X91313040Y-70031266D01*
X91054023Y-70227524D01*
X90841529Y-70248764D01*
X90523592Y-70226886D01*
X90477974Y-70220188D01*
X90158798Y-70153781D01*
X90127119Y-70145572D01*
X90295402Y-70955237D01*
G37*
G36*
X88971362Y-66590983D02*
G01*
X87860057Y-66590983D01*
X87553654Y-68157923D01*
X87492725Y-68476208D01*
X87431657Y-68806344D01*
X87375075Y-69129317D01*
X87324161Y-69451546D01*
X87320280Y-69478789D01*
X87304404Y-69478789D01*
X87138110Y-69180957D01*
X86963204Y-68879515D01*
X86772882Y-68557150D01*
X86582056Y-68237302D01*
X85585057Y-66590983D01*
X84462639Y-66590983D01*
X88518902Y-72992100D01*
X89539715Y-72992100D01*
X88090256Y-70675823D01*
X88971362Y-66590983D01*
G37*
G36*
X81723967Y-66492008D02*
G01*
X82042946Y-66542624D01*
X82340046Y-66657662D01*
X82380592Y-66679057D01*
X82663332Y-66862450D01*
X82908399Y-67086308D01*
X82924275Y-67086308D01*
X82863947Y-66590983D01*
X83743466Y-66590983D01*
X85073856Y-72992100D01*
X84080032Y-72992100D01*
X83710127Y-71215600D01*
X83703066Y-71180428D01*
X83643448Y-70866332D01*
X83598996Y-70617083D01*
X83581533Y-70617083D01*
X83463208Y-70750290D01*
X83200514Y-70934598D01*
X82953261Y-71025760D01*
X82625810Y-71061605D01*
X82583312Y-71061065D01*
X82262594Y-71022624D01*
X81938389Y-70923485D01*
X81808307Y-70865849D01*
X81532589Y-70704973D01*
X81265256Y-70494839D01*
X81069816Y-70298376D01*
X80870949Y-70047886D01*
X80688965Y-69761378D01*
X80627471Y-69648089D01*
X80491317Y-69342511D01*
X80390253Y-69040185D01*
X80309533Y-68711988D01*
X80256232Y-68401150D01*
X80235324Y-68118234D01*
X81246205Y-68118234D01*
X81259040Y-68431768D01*
X81311295Y-68750090D01*
X81388295Y-69052017D01*
X81503392Y-69361308D01*
X81609790Y-69571885D01*
X81790744Y-69834406D01*
X81898278Y-69948917D01*
X82165413Y-70140809D01*
X82299334Y-70197739D01*
X82614697Y-70248764D01*
X82890936Y-70205900D01*
X83117960Y-70093182D01*
X83291006Y-69942362D01*
X83411662Y-69777254D01*
X83008417Y-67837233D01*
X82778629Y-67631491D01*
X82498804Y-67451451D01*
X82277202Y-67357127D01*
X81954265Y-67302219D01*
X81901999Y-67303657D01*
X81587534Y-67394298D01*
X81549705Y-67418707D01*
X81344635Y-67667362D01*
X81293609Y-67801577D01*
X81246205Y-68118234D01*
X80235324Y-68118234D01*
X80230651Y-68055004D01*
X80252381Y-67719752D01*
X80265432Y-67642734D01*
X80356593Y-67316896D01*
X80509568Y-67029155D01*
X80727860Y-66790225D01*
X80998542Y-66622735D01*
X81304548Y-66522718D01*
X81628811Y-66489378D01*
X81723967Y-66492008D01*
G37*
G36*
X77124251Y-66492944D02*
G01*
X77449134Y-66540869D01*
X77753532Y-66635436D01*
X77915865Y-66706325D01*
X78205248Y-66875061D01*
X78458417Y-67073607D01*
X78656368Y-67271062D01*
X78856924Y-67522644D01*
X79039471Y-67810244D01*
X79085656Y-67894889D01*
X79223081Y-68195785D01*
X79335080Y-68525518D01*
X79414139Y-68846933D01*
X79421787Y-68884363D01*
X79473456Y-69205471D01*
X79494634Y-69528971D01*
X79469704Y-69870921D01*
X79455053Y-69948720D01*
X79353473Y-70275252D01*
X79183940Y-70558342D01*
X79142359Y-70606769D01*
X78892595Y-70810395D01*
X78596536Y-70942536D01*
X78428972Y-70988931D01*
X78098433Y-71044861D01*
X77770995Y-71061605D01*
X77549032Y-71056941D01*
X77220180Y-71032458D01*
X76896240Y-70986988D01*
X76560200Y-70920180D01*
X76246920Y-70829818D01*
X76083399Y-70045554D01*
X76127982Y-70057678D01*
X76458001Y-70137142D01*
X76780346Y-70196374D01*
X77089343Y-70233978D01*
X77420140Y-70248764D01*
X77602772Y-70240885D01*
X77917053Y-70182086D01*
X78010103Y-70149192D01*
X78285371Y-69970938D01*
X78361514Y-69882641D01*
X78493344Y-69593094D01*
X78525390Y-69352237D01*
X78506044Y-69029504D01*
X75773822Y-69029504D01*
X75758603Y-68969468D01*
X75684917Y-68656423D01*
X75631769Y-68350441D01*
X75601941Y-68008865D01*
X75605939Y-67893801D01*
X76574364Y-67893801D01*
X76599362Y-68216664D01*
X78290134Y-68216664D01*
X78269855Y-68158207D01*
X78128201Y-67862634D01*
X78095519Y-67811588D01*
X77886889Y-67572107D01*
X77851491Y-67541596D01*
X77577311Y-67375247D01*
X77523490Y-67354209D01*
X77207405Y-67302219D01*
X77195066Y-67302290D01*
X76875601Y-67375247D01*
X76667628Y-67572107D01*
X76577136Y-67862634D01*
X76574364Y-67893801D01*
X75605939Y-67893801D01*
X75613476Y-67676887D01*
X75619764Y-67625495D01*
X75693649Y-67299440D01*
X75842087Y-66998991D01*
X76037922Y-66782970D01*
X76323124Y-66613210D01*
X76360965Y-66598214D01*
X76687808Y-66513080D01*
X77008958Y-66489378D01*
X77124251Y-66492944D01*
G37*
G36*
X72839977Y-69686762D02*
G01*
X72870140Y-69458150D01*
X73043187Y-69307330D01*
X73316250Y-69202550D01*
X73632591Y-69114838D01*
X73643291Y-69112058D01*
X73956143Y-69006087D01*
X74054474Y-68966001D01*
X74329386Y-68797265D01*
X74381515Y-68748503D01*
X74548913Y-68472185D01*
X74567262Y-68410348D01*
X74585271Y-68085230D01*
X74557736Y-67908674D01*
X74464412Y-67589119D01*
X74313344Y-67295169D01*
X74302136Y-67278405D01*
X74088888Y-67019771D01*
X73868727Y-66835471D01*
X73586636Y-66675013D01*
X73314662Y-66575108D01*
X72988451Y-66508215D01*
X72693919Y-66489378D01*
X72364348Y-66500926D01*
X72038212Y-66538925D01*
X71976334Y-66549706D01*
X71666359Y-66618766D01*
X71393692Y-66705289D01*
X71560388Y-67505429D01*
X71846152Y-67427637D01*
X72157318Y-67364134D01*
X72473246Y-67319682D01*
X72774886Y-67302219D01*
X73092401Y-67341908D01*
X73321013Y-67449863D01*
X73467070Y-67605446D01*
X73540099Y-67788018D01*
X73514697Y-68030917D01*
X73333713Y-68183325D01*
X73070175Y-68280167D01*
X72797112Y-68353196D01*
X72489320Y-68446664D01*
X72387517Y-68483377D01*
X72104884Y-68640236D01*
X72038249Y-68697700D01*
X71859453Y-68960449D01*
X71827101Y-69051730D01*
X71797086Y-69370114D01*
X71830277Y-69605795D01*
X71926485Y-69930512D01*
X72072227Y-70214067D01*
X72095402Y-70248764D01*
X72305359Y-70499205D01*
X72557388Y-70704399D01*
X72850296Y-70863157D01*
X73160943Y-70968737D01*
X73182893Y-70974288D01*
X73501612Y-71033977D01*
X73840994Y-71060240D01*
X73941756Y-71061605D01*
X74275582Y-71049753D01*
X74594136Y-71010754D01*
X74652991Y-70999689D01*
X74962309Y-70921774D01*
X75151491Y-70847281D01*
X74984795Y-70045554D01*
X74679186Y-70144381D01*
X74391041Y-70205900D01*
X74068545Y-70241690D01*
X73860789Y-70248764D01*
X73540421Y-70224455D01*
X73497234Y-70217013D01*
X73189244Y-70116995D01*
X72963808Y-69940774D01*
X72839977Y-69686762D01*
G37*
D10*
X263175594Y-101533609D02*
X262842261Y-101533609D01*
X262699404Y-102057419D02*
X263175594Y-102057419D01*
X263175594Y-102057419D02*
X263175594Y-101057419D01*
X263175594Y-101057419D02*
X262699404Y-101057419D01*
X262270832Y-102057419D02*
X262270832Y-101057419D01*
X262270832Y-101057419D02*
X261699404Y-102057419D01*
X261699404Y-102057419D02*
X261699404Y-101057419D01*
X260651785Y-101962180D02*
X260699404Y-102009800D01*
X260699404Y-102009800D02*
X260842261Y-102057419D01*
X260842261Y-102057419D02*
X260937499Y-102057419D01*
X260937499Y-102057419D02*
X261080356Y-102009800D01*
X261080356Y-102009800D02*
X261175594Y-101914561D01*
X261175594Y-101914561D02*
X261223213Y-101819323D01*
X261223213Y-101819323D02*
X261270832Y-101628847D01*
X261270832Y-101628847D02*
X261270832Y-101485990D01*
X261270832Y-101485990D02*
X261223213Y-101295514D01*
X261223213Y-101295514D02*
X261175594Y-101200276D01*
X261175594Y-101200276D02*
X261080356Y-101105038D01*
X261080356Y-101105038D02*
X260937499Y-101057419D01*
X260937499Y-101057419D02*
X260842261Y-101057419D01*
X260842261Y-101057419D02*
X260699404Y-101105038D01*
X260699404Y-101105038D02*
X260651785Y-101152657D01*
X176545832Y-105819919D02*
X175926785Y-105819919D01*
X175926785Y-105819919D02*
X176260118Y-106200871D01*
X176260118Y-106200871D02*
X176117261Y-106200871D01*
X176117261Y-106200871D02*
X176022023Y-106248490D01*
X176022023Y-106248490D02*
X175974404Y-106296109D01*
X175974404Y-106296109D02*
X175926785Y-106391347D01*
X175926785Y-106391347D02*
X175926785Y-106629442D01*
X175926785Y-106629442D02*
X175974404Y-106724680D01*
X175974404Y-106724680D02*
X176022023Y-106772300D01*
X176022023Y-106772300D02*
X176117261Y-106819919D01*
X176117261Y-106819919D02*
X176402975Y-106819919D01*
X176402975Y-106819919D02*
X176498213Y-106772300D01*
X176498213Y-106772300D02*
X176545832Y-106724680D01*
X119395832Y-105819919D02*
X118776785Y-105819919D01*
X118776785Y-105819919D02*
X119110118Y-106200871D01*
X119110118Y-106200871D02*
X118967261Y-106200871D01*
X118967261Y-106200871D02*
X118872023Y-106248490D01*
X118872023Y-106248490D02*
X118824404Y-106296109D01*
X118824404Y-106296109D02*
X118776785Y-106391347D01*
X118776785Y-106391347D02*
X118776785Y-106629442D01*
X118776785Y-106629442D02*
X118824404Y-106724680D01*
X118824404Y-106724680D02*
X118872023Y-106772300D01*
X118872023Y-106772300D02*
X118967261Y-106819919D01*
X118967261Y-106819919D02*
X119252975Y-106819919D01*
X119252975Y-106819919D02*
X119348213Y-106772300D01*
X119348213Y-106772300D02*
X119395832Y-106724680D01*
X103060416Y-108407419D02*
X103631844Y-108407419D01*
X103346130Y-108407419D02*
X103346130Y-107407419D01*
X103346130Y-107407419D02*
X103441368Y-107550276D01*
X103441368Y-107550276D02*
X103536606Y-107645514D01*
X103536606Y-107645514D02*
X103631844Y-107693133D01*
X102679463Y-107502657D02*
X102631844Y-107455038D01*
X102631844Y-107455038D02*
X102536606Y-107407419D01*
X102536606Y-107407419D02*
X102298511Y-107407419D01*
X102298511Y-107407419D02*
X102203273Y-107455038D01*
X102203273Y-107455038D02*
X102155654Y-107502657D01*
X102155654Y-107502657D02*
X102108035Y-107597895D01*
X102108035Y-107597895D02*
X102108035Y-107693133D01*
X102108035Y-107693133D02*
X102155654Y-107835990D01*
X102155654Y-107835990D02*
X102727082Y-108407419D01*
X102727082Y-108407419D02*
X102108035Y-108407419D01*
X101203273Y-107407419D02*
X101679463Y-107407419D01*
X101679463Y-107407419D02*
X101727082Y-107883609D01*
X101727082Y-107883609D02*
X101679463Y-107835990D01*
X101679463Y-107835990D02*
X101584225Y-107788371D01*
X101584225Y-107788371D02*
X101346130Y-107788371D01*
X101346130Y-107788371D02*
X101250892Y-107835990D01*
X101250892Y-107835990D02*
X101203273Y-107883609D01*
X101203273Y-107883609D02*
X101155654Y-107978847D01*
X101155654Y-107978847D02*
X101155654Y-108216942D01*
X101155654Y-108216942D02*
X101203273Y-108312180D01*
X101203273Y-108312180D02*
X101250892Y-108359800D01*
X101250892Y-108359800D02*
X101346130Y-108407419D01*
X101346130Y-108407419D02*
X101584225Y-108407419D01*
X101584225Y-108407419D02*
X101679463Y-108359800D01*
X101679463Y-108359800D02*
X101727082Y-108312180D01*
X164972916Y-108407419D02*
X165544344Y-108407419D01*
X165258630Y-108407419D02*
X165258630Y-107407419D01*
X165258630Y-107407419D02*
X165353868Y-107550276D01*
X165353868Y-107550276D02*
X165449106Y-107645514D01*
X165449106Y-107645514D02*
X165544344Y-107693133D01*
X164639582Y-107407419D02*
X163972916Y-107407419D01*
X163972916Y-107407419D02*
X164401487Y-108407419D01*
X163115773Y-107407419D02*
X163591963Y-107407419D01*
X163591963Y-107407419D02*
X163639582Y-107883609D01*
X163639582Y-107883609D02*
X163591963Y-107835990D01*
X163591963Y-107835990D02*
X163496725Y-107788371D01*
X163496725Y-107788371D02*
X163258630Y-107788371D01*
X163258630Y-107788371D02*
X163163392Y-107835990D01*
X163163392Y-107835990D02*
X163115773Y-107883609D01*
X163115773Y-107883609D02*
X163068154Y-107978847D01*
X163068154Y-107978847D02*
X163068154Y-108216942D01*
X163068154Y-108216942D02*
X163115773Y-108312180D01*
X163115773Y-108312180D02*
X163163392Y-108359800D01*
X163163392Y-108359800D02*
X163258630Y-108407419D01*
X163258630Y-108407419D02*
X163496725Y-108407419D01*
X163496725Y-108407419D02*
X163591963Y-108359800D01*
X163591963Y-108359800D02*
X163639582Y-108312180D01*
G36*
X42404665Y-70323391D02*
G01*
X42466223Y-70336043D01*
X42478534Y-70340360D01*
X42535222Y-70367794D01*
X42581018Y-70401988D01*
X42608800Y-70434961D01*
X42611243Y-70434961D01*
X42638720Y-70341844D01*
X42735807Y-70341844D01*
X42735807Y-71553288D01*
X42605137Y-71553288D01*
X42605137Y-71084647D01*
X42602694Y-71084647D01*
X42560781Y-71124705D01*
X42507439Y-71157615D01*
X42445654Y-71176672D01*
X42382265Y-71182039D01*
X42369052Y-71181717D01*
X42308076Y-71172880D01*
X42288480Y-71167747D01*
X42230834Y-71143876D01*
X42207221Y-71130030D01*
X42156951Y-71090753D01*
X42129490Y-71061145D01*
X42094974Y-71008627D01*
X42071008Y-70955351D01*
X42052232Y-70893832D01*
X42046733Y-70868427D01*
X42038326Y-70803887D01*
X42036108Y-70744234D01*
X42169163Y-70744234D01*
X42169957Y-70779002D01*
X42176311Y-70841456D01*
X42191756Y-70902381D01*
X42211879Y-70948504D01*
X42248542Y-71000689D01*
X42268431Y-71019214D01*
X42323647Y-71050758D01*
X42338734Y-71055531D01*
X42400889Y-71064802D01*
X42451729Y-71060244D01*
X42512630Y-71040989D01*
X42555881Y-71016554D01*
X42605137Y-70975348D01*
X42605137Y-70547008D01*
X42574606Y-70513119D01*
X42528811Y-70477704D01*
X42525467Y-70475629D01*
X42469582Y-70450226D01*
X42459106Y-70447148D01*
X42396614Y-70439541D01*
X42360000Y-70442066D01*
X42298917Y-70460912D01*
X42271329Y-70477595D01*
X42227476Y-70521667D01*
X42204694Y-70559343D01*
X42183818Y-70617227D01*
X42182916Y-70620753D01*
X42172383Y-70681050D01*
X42169163Y-70744234D01*
X42036108Y-70744234D01*
X42036051Y-70742707D01*
X42038853Y-70675063D01*
X42047261Y-70614098D01*
X42064749Y-70549755D01*
X42074172Y-70525562D01*
X42102928Y-70469287D01*
X42140770Y-70419391D01*
X42146742Y-70413163D01*
X42195185Y-70373298D01*
X42250069Y-70345507D01*
X42257834Y-70342697D01*
X42317211Y-70327402D01*
X42378601Y-70322304D01*
X42404665Y-70323391D01*
G37*
G36*
X41474903Y-70322304D02*
G01*
X41413437Y-70325837D01*
X41361635Y-70334822D01*
X41302698Y-70352768D01*
X41268823Y-70369016D01*
X41268823Y-70478620D01*
X41326912Y-70459729D01*
X41368352Y-70449310D01*
X41428847Y-70440695D01*
X41461164Y-70439541D01*
X41523012Y-70445981D01*
X41559777Y-70456027D01*
X41616902Y-70484482D01*
X41647399Y-70509455D01*
X41686039Y-70558989D01*
X41709681Y-70608068D01*
X41725751Y-70667432D01*
X41732616Y-70732706D01*
X41733190Y-70760415D01*
X41728839Y-70823842D01*
X41715787Y-70882231D01*
X41690457Y-70940105D01*
X41663275Y-70978707D01*
X41615810Y-71020683D01*
X41576264Y-71042210D01*
X41515903Y-71059838D01*
X41455058Y-71064802D01*
X41392495Y-71060867D01*
X41354613Y-71054727D01*
X41295291Y-71039495D01*
X41255695Y-71025724D01*
X41255695Y-71135938D01*
X41294163Y-71153035D01*
X41346065Y-71167995D01*
X41406210Y-71178070D01*
X41467728Y-71182035D01*
X41469713Y-71182039D01*
X41535227Y-71177958D01*
X41597820Y-71165714D01*
X41625723Y-71157309D01*
X41681982Y-71132585D01*
X41735243Y-71096154D01*
X41752424Y-71080678D01*
X41794582Y-71030272D01*
X41825985Y-70974048D01*
X41836077Y-70950008D01*
X41854495Y-70886581D01*
X41863911Y-70821199D01*
X41866302Y-70762552D01*
X41863682Y-70699537D01*
X41855000Y-70637761D01*
X41850426Y-70617227D01*
X41831345Y-70556701D01*
X41806462Y-70503960D01*
X41771772Y-70453298D01*
X41740517Y-70420307D01*
X41690428Y-70382191D01*
X41658085Y-70364131D01*
X41598799Y-70340539D01*
X41566799Y-70332379D01*
X41505872Y-70323495D01*
X41474903Y-70322304D01*
G37*
G36*
X41040761Y-71162500D02*
G01*
X40940316Y-71162500D01*
X40911923Y-71071519D01*
X40909481Y-71071519D01*
X40885972Y-71101439D01*
X40841398Y-71138991D01*
X40830446Y-71145646D01*
X40773315Y-71169521D01*
X40744376Y-71176648D01*
X40681114Y-71182039D01*
X40672429Y-71181935D01*
X40608360Y-71174543D01*
X40546169Y-71155478D01*
X40530065Y-71148332D01*
X40477304Y-71116558D01*
X40430154Y-71074267D01*
X40408931Y-71048984D01*
X40374555Y-70994745D01*
X40348638Y-70936270D01*
X40344904Y-70925694D01*
X40328673Y-70863263D01*
X40320241Y-70800246D01*
X40318188Y-70748203D01*
X40450915Y-70748203D01*
X40450930Y-70752561D01*
X40454884Y-70815217D01*
X40466790Y-70876430D01*
X40481961Y-70921139D01*
X40513197Y-70976875D01*
X40538427Y-71005769D01*
X40589828Y-71041905D01*
X40632437Y-71057557D01*
X40695463Y-71064802D01*
X40707805Y-71064527D01*
X40769041Y-71053506D01*
X40773177Y-71052037D01*
X40829491Y-71025418D01*
X40875897Y-70989698D01*
X40907649Y-70954282D01*
X40907649Y-70531437D01*
X40864827Y-70496505D01*
X40809646Y-70465186D01*
X40752555Y-70445952D01*
X40691799Y-70439541D01*
X40671363Y-70440342D01*
X40610283Y-70452363D01*
X40585191Y-70462405D01*
X40533347Y-70498770D01*
X40502238Y-70536090D01*
X40474118Y-70592498D01*
X40463966Y-70624669D01*
X40453656Y-70686552D01*
X40450915Y-70748203D01*
X40318188Y-70748203D01*
X40317802Y-70738433D01*
X40318060Y-70718125D01*
X40322455Y-70656277D01*
X40334289Y-70592803D01*
X40350609Y-70540777D01*
X40377947Y-70483504D01*
X40397848Y-70453614D01*
X40441450Y-70406568D01*
X40464265Y-70388458D01*
X40516555Y-70356803D01*
X40536152Y-70348045D01*
X40595629Y-70330242D01*
X40607985Y-70327955D01*
X40669817Y-70322304D01*
X40683697Y-70322532D01*
X40744639Y-70329628D01*
X40802930Y-70348255D01*
X40857655Y-70379014D01*
X40905206Y-70420001D01*
X40907649Y-70420001D01*
X40907649Y-69911976D01*
X41040761Y-69911976D01*
X41040761Y-71162500D01*
G37*
G36*
X39753601Y-71162500D02*
G01*
X39653156Y-71162500D01*
X39624763Y-71071519D01*
X39622321Y-71071519D01*
X39598812Y-71101439D01*
X39554238Y-71138991D01*
X39543287Y-71145646D01*
X39486155Y-71169521D01*
X39457216Y-71176648D01*
X39393954Y-71182039D01*
X39385269Y-71181935D01*
X39321200Y-71174543D01*
X39259010Y-71155478D01*
X39242905Y-71148332D01*
X39190145Y-71116558D01*
X39142994Y-71074267D01*
X39121771Y-71048984D01*
X39087396Y-70994745D01*
X39061478Y-70936270D01*
X39057744Y-70925694D01*
X39041513Y-70863263D01*
X39033082Y-70800246D01*
X39031029Y-70748203D01*
X39163755Y-70748203D01*
X39163770Y-70752561D01*
X39167724Y-70815217D01*
X39179631Y-70876430D01*
X39194801Y-70921139D01*
X39226037Y-70976875D01*
X39251267Y-71005769D01*
X39302668Y-71041905D01*
X39345277Y-71057557D01*
X39408303Y-71064802D01*
X39420645Y-71064527D01*
X39481881Y-71053506D01*
X39486017Y-71052037D01*
X39542331Y-71025418D01*
X39588737Y-70989698D01*
X39620489Y-70954282D01*
X39620489Y-70531437D01*
X39577667Y-70496505D01*
X39522487Y-70465186D01*
X39465395Y-70445952D01*
X39404639Y-70439541D01*
X39384203Y-70440342D01*
X39323123Y-70452363D01*
X39298031Y-70462405D01*
X39246187Y-70498770D01*
X39215078Y-70536090D01*
X39186958Y-70592498D01*
X39176807Y-70624669D01*
X39166497Y-70686552D01*
X39163755Y-70748203D01*
X39031029Y-70748203D01*
X39030643Y-70738433D01*
X39030900Y-70718125D01*
X39035295Y-70656277D01*
X39047129Y-70592803D01*
X39063450Y-70540777D01*
X39090787Y-70483504D01*
X39110688Y-70453614D01*
X39154290Y-70406568D01*
X39177105Y-70388458D01*
X39229395Y-70356803D01*
X39248992Y-70348045D01*
X39308469Y-70330242D01*
X39320825Y-70327955D01*
X39382658Y-70322304D01*
X39396537Y-70322532D01*
X39457479Y-70329628D01*
X39515770Y-70348255D01*
X39570496Y-70379014D01*
X39618047Y-70420001D01*
X39620489Y-70420001D01*
X39620489Y-69911976D01*
X39753601Y-69911976D01*
X39753601Y-71162500D01*
G37*
G36*
X38934167Y-70341844D02*
G01*
X38801054Y-70341844D01*
X38541546Y-70979623D01*
X38536051Y-70979623D01*
X38269826Y-70341844D01*
X38136714Y-70341844D01*
X38649318Y-71553288D01*
X38781515Y-71553288D01*
X38607186Y-71138991D01*
X38934167Y-70341844D01*
G37*
G36*
X37294686Y-70322304D02*
G01*
X37233221Y-70325837D01*
X37181419Y-70334822D01*
X37122482Y-70352768D01*
X37088607Y-70369016D01*
X37088607Y-70478620D01*
X37146695Y-70459729D01*
X37188136Y-70449310D01*
X37248630Y-70440695D01*
X37280948Y-70439541D01*
X37342796Y-70445981D01*
X37379561Y-70456027D01*
X37436686Y-70484482D01*
X37467183Y-70509455D01*
X37505823Y-70558989D01*
X37529465Y-70608068D01*
X37545535Y-70667432D01*
X37552399Y-70732706D01*
X37552973Y-70760415D01*
X37548623Y-70823842D01*
X37535571Y-70882231D01*
X37510240Y-70940105D01*
X37483059Y-70978707D01*
X37435593Y-71020683D01*
X37396047Y-71042210D01*
X37335686Y-71059838D01*
X37274842Y-71064802D01*
X37212278Y-71060867D01*
X37174397Y-71054727D01*
X37115075Y-71039495D01*
X37075479Y-71025724D01*
X37075479Y-71135938D01*
X37113947Y-71153035D01*
X37165848Y-71167995D01*
X37225993Y-71178070D01*
X37287512Y-71182035D01*
X37289496Y-71182039D01*
X37355011Y-71177958D01*
X37417603Y-71165714D01*
X37445506Y-71157309D01*
X37501765Y-71132585D01*
X37555027Y-71096154D01*
X37572207Y-71080678D01*
X37614366Y-71030272D01*
X37645768Y-70974048D01*
X37655861Y-70950008D01*
X37674279Y-70886581D01*
X37683695Y-70821199D01*
X37686086Y-70762552D01*
X37683466Y-70699537D01*
X37674783Y-70637761D01*
X37670210Y-70617227D01*
X37651128Y-70556701D01*
X37626246Y-70503960D01*
X37591556Y-70453298D01*
X37560301Y-70420307D01*
X37510212Y-70382191D01*
X37477869Y-70364131D01*
X37418582Y-70340539D01*
X37386583Y-70332379D01*
X37325656Y-70323495D01*
X37294686Y-70322304D01*
G37*
G36*
X36604093Y-70322334D02*
G01*
X36666372Y-70325662D01*
X36670634Y-70326094D01*
X36731707Y-70335432D01*
X36790630Y-70350392D01*
X36838868Y-70369321D01*
X36838868Y-70478620D01*
X36791526Y-70464110D01*
X36730486Y-70449921D01*
X36677642Y-70442470D01*
X36613860Y-70439541D01*
X36608684Y-70439567D01*
X36543301Y-70445377D01*
X36481663Y-70466102D01*
X36451218Y-70485813D01*
X36410527Y-70532658D01*
X36395873Y-70577233D01*
X36391599Y-70635240D01*
X36391599Y-70691416D01*
X36394957Y-70691416D01*
X36431949Y-70679819D01*
X36493265Y-70665771D01*
X36550662Y-70657756D01*
X36612944Y-70654474D01*
X36674441Y-70658499D01*
X36737813Y-70672793D01*
X36780836Y-70690048D01*
X36834289Y-70724694D01*
X36864060Y-70754450D01*
X36896876Y-70806821D01*
X36912873Y-70855215D01*
X36919163Y-70917035D01*
X36915365Y-70969078D01*
X36899318Y-71028777D01*
X36881973Y-71063724D01*
X36843143Y-71112430D01*
X36813962Y-71135757D01*
X36756742Y-71164331D01*
X36707368Y-71177041D01*
X36646222Y-71182039D01*
X36624412Y-71181505D01*
X36562874Y-71173490D01*
X36548330Y-71170027D01*
X36490517Y-71149066D01*
X36484347Y-71146052D01*
X36431899Y-71113040D01*
X36390072Y-71072435D01*
X36386714Y-71072435D01*
X36371754Y-71162500D01*
X36258486Y-71162500D01*
X36258486Y-70801325D01*
X36391599Y-70801325D01*
X36391599Y-70962831D01*
X36422434Y-70989392D01*
X36473115Y-71023281D01*
X36484624Y-71029428D01*
X36541197Y-71052590D01*
X36563171Y-71058494D01*
X36623935Y-71064802D01*
X36626049Y-71064794D01*
X36687743Y-71055949D01*
X36739339Y-71028777D01*
X36773533Y-70982370D01*
X36775049Y-70978824D01*
X36786051Y-70917035D01*
X36775116Y-70856155D01*
X36736286Y-70807431D01*
X36723177Y-70799059D01*
X36663482Y-70777606D01*
X36598289Y-70771711D01*
X36545036Y-70774149D01*
X36482579Y-70782091D01*
X36454028Y-70787316D01*
X36391599Y-70801325D01*
X36258486Y-70801325D01*
X36258486Y-70616006D01*
X36258577Y-70606255D01*
X36264287Y-70543344D01*
X36264638Y-70541270D01*
X36282605Y-70482588D01*
X36299698Y-70452291D01*
X36342760Y-70403233D01*
X36395567Y-70366268D01*
X36405552Y-70360944D01*
X36466776Y-70337803D01*
X36531701Y-70325782D01*
X36597678Y-70322304D01*
X36604093Y-70322334D01*
G37*
G36*
X36004474Y-71162500D02*
G01*
X36004474Y-69911976D01*
X35871361Y-69911976D01*
X35871361Y-71162500D01*
X36004474Y-71162500D01*
G37*
G36*
X35336164Y-71026945D02*
G01*
X35315437Y-70966015D01*
X35293316Y-70902919D01*
X35270895Y-70840265D01*
X35255564Y-70797967D01*
X35091005Y-70341844D01*
X34957893Y-70341844D01*
X35267776Y-71162500D01*
X35406384Y-71162500D01*
X35716267Y-70341844D01*
X35583155Y-70341844D01*
X35419512Y-70797967D01*
X35396309Y-70862882D01*
X35375243Y-70922684D01*
X35354098Y-70983847D01*
X35339522Y-71026945D01*
X35336164Y-71026945D01*
G37*
G36*
X34790587Y-71162500D02*
G01*
X34790587Y-70341844D01*
X34657474Y-70341844D01*
X34657474Y-71162500D01*
X34790587Y-71162500D01*
G37*
G36*
X34790587Y-70165989D02*
G01*
X34790587Y-70009673D01*
X34657474Y-70009673D01*
X34657474Y-70165989D01*
X34790587Y-70165989D01*
G37*
G36*
X34257527Y-70455722D02*
G01*
X34254779Y-70455722D01*
X34212571Y-70409607D01*
X34205930Y-70403515D01*
X34156028Y-70366863D01*
X34145786Y-70361078D01*
X34087678Y-70336752D01*
X34073123Y-70332684D01*
X34012284Y-70323125D01*
X33986417Y-70322304D01*
X33923164Y-70327793D01*
X33882614Y-70337875D01*
X33826944Y-70364732D01*
X33798350Y-70387944D01*
X33759543Y-70439154D01*
X33741869Y-70478009D01*
X33726070Y-70539909D01*
X33720885Y-70604465D01*
X33720803Y-70614480D01*
X33720803Y-71162500D01*
X33853915Y-71162500D01*
X33853915Y-70637988D01*
X33858677Y-70572363D01*
X33876584Y-70512852D01*
X33894215Y-70485947D01*
X33947374Y-70449737D01*
X34011452Y-70439541D01*
X34074054Y-70447725D01*
X34134778Y-70472277D01*
X34142733Y-70476788D01*
X34194908Y-70514755D01*
X34237288Y-70559638D01*
X34252031Y-70579370D01*
X34252031Y-71162500D01*
X34385144Y-71162500D01*
X34385144Y-70341844D01*
X34282867Y-70341844D01*
X34257527Y-70455722D01*
G37*
G36*
X33184417Y-70323453D02*
G01*
X33249451Y-70333821D01*
X33308338Y-70354972D01*
X33325111Y-70363534D01*
X33378706Y-70399740D01*
X33424353Y-70445647D01*
X33441315Y-70468129D01*
X33472691Y-70521850D01*
X33496710Y-70582423D01*
X33508812Y-70627768D01*
X33518787Y-70691460D01*
X33521745Y-70753087D01*
X33520238Y-70797814D01*
X33512324Y-70862043D01*
X33497626Y-70922836D01*
X33489530Y-70946937D01*
X33463247Y-71004785D01*
X33426490Y-71059307D01*
X33414393Y-71073270D01*
X33366641Y-71116054D01*
X33310475Y-71149371D01*
X33279176Y-71162100D01*
X33215855Y-71177445D01*
X33151412Y-71182039D01*
X33119344Y-71180890D01*
X33054504Y-71170522D01*
X32996012Y-71149371D01*
X32979316Y-71140818D01*
X32925988Y-71104796D01*
X32880608Y-71059307D01*
X32863542Y-71036928D01*
X32832015Y-70983359D01*
X32807945Y-70922836D01*
X32795844Y-70877563D01*
X32785869Y-70814193D01*
X32782910Y-70753087D01*
X32916023Y-70753087D01*
X32916039Y-70757577D01*
X32920144Y-70821704D01*
X32932509Y-70883452D01*
X32948075Y-70927808D01*
X32979526Y-70981760D01*
X33002067Y-71006918D01*
X33053715Y-71043126D01*
X33090753Y-71057161D01*
X33151412Y-71064802D01*
X33190710Y-71061754D01*
X33249720Y-71043126D01*
X33278393Y-71026095D01*
X33324519Y-70981760D01*
X33348603Y-70943258D01*
X33371841Y-70883452D01*
X33372874Y-70879794D01*
X33384943Y-70817617D01*
X33388633Y-70753087D01*
X33388617Y-70748523D01*
X33384587Y-70683631D01*
X33372452Y-70621807D01*
X33356638Y-70577400D01*
X33324824Y-70523194D01*
X33301972Y-70497688D01*
X33250330Y-70461217D01*
X33213094Y-70447183D01*
X33152328Y-70439541D01*
X33113115Y-70442589D01*
X33054631Y-70461217D01*
X33023733Y-70480094D01*
X32980442Y-70523194D01*
X32956149Y-70561904D01*
X32932815Y-70621807D01*
X32930781Y-70629117D01*
X32919237Y-70691896D01*
X32916023Y-70753087D01*
X32782910Y-70753087D01*
X32784418Y-70707960D01*
X32792332Y-70643345D01*
X32807029Y-70582423D01*
X32816879Y-70553614D01*
X32843743Y-70496204D01*
X32878165Y-70445647D01*
X32890268Y-70431541D01*
X32938111Y-70388406D01*
X32994486Y-70354972D01*
X33025622Y-70342243D01*
X33088486Y-70326898D01*
X33152328Y-70322304D01*
X33184417Y-70323453D01*
G37*
G36*
X31962255Y-71150898D02*
G01*
X31966789Y-71212684D01*
X31981816Y-71274828D01*
X31989732Y-71295917D01*
X32018625Y-71350706D01*
X32057218Y-71398599D01*
X32070027Y-71411017D01*
X32121092Y-71449401D01*
X32177196Y-71477719D01*
X32201002Y-71486732D01*
X32262626Y-71503476D01*
X32324394Y-71512036D01*
X32378689Y-71514209D01*
X32442497Y-71511232D01*
X32503252Y-71502302D01*
X32562823Y-71486119D01*
X32609803Y-71465971D01*
X32609803Y-71357894D01*
X32548056Y-71377052D01*
X32489819Y-71388729D01*
X32428639Y-71395395D01*
X32384795Y-71396973D01*
X32320547Y-71392746D01*
X32257788Y-71377739D01*
X32199968Y-71350202D01*
X32167724Y-71325532D01*
X32127928Y-71277653D01*
X32113380Y-71248900D01*
X32097495Y-71189626D01*
X32095367Y-71157004D01*
X32101163Y-71096082D01*
X32113685Y-71055643D01*
X32148685Y-71003655D01*
X32171082Y-70984508D01*
X32225238Y-70955849D01*
X32271222Y-70942070D01*
X32334101Y-70931990D01*
X32397713Y-70928246D01*
X32418989Y-70928026D01*
X32482221Y-70929905D01*
X32546248Y-70934571D01*
X32567671Y-70936575D01*
X32486155Y-70341844D01*
X31937220Y-70341844D01*
X31937220Y-70459080D01*
X32353043Y-70459080D01*
X32400976Y-70812622D01*
X32353043Y-70810790D01*
X32290747Y-70813532D01*
X32228629Y-70822777D01*
X32186042Y-70833993D01*
X32126695Y-70858002D01*
X32073096Y-70892546D01*
X32063615Y-70900549D01*
X32022261Y-70945553D01*
X31991505Y-70999278D01*
X31988205Y-71007100D01*
X31970466Y-71065579D01*
X31962660Y-71130953D01*
X31962255Y-71150898D01*
G37*
G36*
X31307977Y-69990730D02*
G01*
X31368659Y-69997862D01*
X31429500Y-70014558D01*
X31446020Y-70020979D01*
X31500758Y-70048411D01*
X31550705Y-70083557D01*
X31563991Y-70094891D01*
X31606959Y-70138769D01*
X31644434Y-70189192D01*
X31656435Y-70208586D01*
X31686789Y-70266222D01*
X31710684Y-70324136D01*
X31721691Y-70356957D01*
X31738877Y-70420545D01*
X31750984Y-70482283D01*
X31756862Y-70524606D01*
X31762529Y-70589378D01*
X31764418Y-70655696D01*
X31764192Y-70677362D01*
X31760811Y-70739945D01*
X31752296Y-70805234D01*
X31738772Y-70866050D01*
X31724518Y-70911177D01*
X31697771Y-70972357D01*
X31664584Y-71025724D01*
X31645503Y-71049380D01*
X31598934Y-71093271D01*
X31545210Y-71127084D01*
X31508612Y-71142578D01*
X31449278Y-71157519D01*
X31384620Y-71162500D01*
X31358632Y-71161829D01*
X31295179Y-71153806D01*
X31233495Y-71135022D01*
X31225218Y-71131505D01*
X31168314Y-71099882D01*
X31120533Y-71059002D01*
X31112079Y-71049673D01*
X31075528Y-70997961D01*
X31050007Y-70942070D01*
X31042971Y-70920467D01*
X31029614Y-70856486D01*
X31026179Y-70801936D01*
X31158696Y-70801936D01*
X31161100Y-70844054D01*
X31175793Y-70906045D01*
X31186424Y-70930498D01*
X31222809Y-70982676D01*
X31238284Y-70997159D01*
X31292724Y-71029387D01*
X31318347Y-71037759D01*
X31379125Y-71045263D01*
X31422663Y-71041282D01*
X31481401Y-71021144D01*
X31519703Y-70995039D01*
X31561391Y-70947566D01*
X31565495Y-70941284D01*
X31594289Y-70883906D01*
X31613598Y-70823307D01*
X31622528Y-70779204D01*
X31629626Y-70714088D01*
X31631305Y-70648063D01*
X31628012Y-70646202D01*
X31572065Y-70618858D01*
X31514069Y-70597383D01*
X31510026Y-70596087D01*
X31449955Y-70581583D01*
X31387063Y-70576317D01*
X31360903Y-70577259D01*
X31298219Y-70588224D01*
X31278126Y-70594978D01*
X31225862Y-70626692D01*
X31209384Y-70642937D01*
X31176708Y-70696301D01*
X31163779Y-70740952D01*
X31158696Y-70801936D01*
X31026179Y-70801936D01*
X31025583Y-70792472D01*
X31025993Y-70772469D01*
X31032993Y-70711614D01*
X31051839Y-70649284D01*
X31053501Y-70645411D01*
X31083286Y-70591963D01*
X31125112Y-70544565D01*
X31128069Y-70541933D01*
X31180237Y-70505421D01*
X31237464Y-70480757D01*
X31253907Y-70475676D01*
X31314390Y-70463229D01*
X31379430Y-70459080D01*
X31440567Y-70463736D01*
X31503689Y-70477704D01*
X31565131Y-70499151D01*
X31621841Y-70526857D01*
X31625199Y-70526857D01*
X31615217Y-70461044D01*
X31599692Y-70395744D01*
X31579404Y-70337875D01*
X31568750Y-70313930D01*
X31537769Y-70257954D01*
X31499109Y-70207815D01*
X31496141Y-70204636D01*
X31449116Y-70163241D01*
X31393779Y-70132100D01*
X31334856Y-70113553D01*
X31274100Y-70107370D01*
X31235918Y-70109088D01*
X31174571Y-70119583D01*
X31151330Y-70125727D01*
X31092139Y-70146449D01*
X31092139Y-70031655D01*
X31111231Y-70023015D01*
X31171213Y-70003567D01*
X31219316Y-69994381D01*
X31283565Y-69990134D01*
X31307977Y-69990730D01*
G37*
G36*
X30480922Y-70901770D02*
G01*
X30420249Y-70914141D01*
X30393910Y-70924057D01*
X30341016Y-70955765D01*
X30320027Y-70975043D01*
X30282416Y-71025026D01*
X30266599Y-71056559D01*
X30249318Y-71116236D01*
X30245227Y-71170132D01*
X30249460Y-71231267D01*
X30263485Y-71291808D01*
X30270873Y-71312098D01*
X30299996Y-71367759D01*
X30339852Y-71415102D01*
X30345977Y-71420786D01*
X30398182Y-71458299D01*
X30457437Y-71485080D01*
X30471457Y-71489785D01*
X30531779Y-71504668D01*
X30592881Y-71512277D01*
X30647007Y-71514209D01*
X30710857Y-71511526D01*
X30771889Y-71503476D01*
X30779814Y-71501997D01*
X30839272Y-71486885D01*
X30891860Y-71465971D01*
X30891860Y-71357894D01*
X30830342Y-71375754D01*
X30769739Y-71387814D01*
X30707817Y-71394960D01*
X30656471Y-71396973D01*
X30592249Y-71393350D01*
X30531016Y-71380336D01*
X30524275Y-71378044D01*
X30468618Y-71351515D01*
X30439095Y-71328279D01*
X30402038Y-71278906D01*
X30392689Y-71256838D01*
X30379475Y-71196575D01*
X30378340Y-71171964D01*
X30385495Y-71109967D01*
X30412973Y-71051234D01*
X30451613Y-71015343D01*
X30509239Y-70987880D01*
X30574211Y-70972805D01*
X30642934Y-70967294D01*
X30659524Y-70967105D01*
X30750505Y-70967105D01*
X30750505Y-70849869D01*
X30697382Y-70849869D01*
X30632745Y-70846380D01*
X30570681Y-70833993D01*
X30511934Y-70808996D01*
X30483669Y-70789419D01*
X30442396Y-70741333D01*
X30433294Y-70722862D01*
X30418411Y-70661897D01*
X30417419Y-70640125D01*
X30426566Y-70579321D01*
X30435126Y-70559220D01*
X30473839Y-70509994D01*
X30483059Y-70502739D01*
X30539725Y-70474181D01*
X30554805Y-70469766D01*
X30617207Y-70459925D01*
X30643343Y-70459080D01*
X30705559Y-70462096D01*
X30760885Y-70469766D01*
X30823385Y-70482949D01*
X30877816Y-70498159D01*
X30877816Y-70390692D01*
X30817392Y-70369713D01*
X30755506Y-70354628D01*
X30743483Y-70352529D01*
X30679670Y-70344191D01*
X30630520Y-70341844D01*
X30565773Y-70345471D01*
X30502695Y-70357493D01*
X30481838Y-70363825D01*
X30425483Y-70388038D01*
X30373455Y-70424886D01*
X30331402Y-70473733D01*
X30307509Y-70518004D01*
X30289404Y-70578197D01*
X30284306Y-70636461D01*
X30290145Y-70699201D01*
X30294686Y-70719504D01*
X30317527Y-70776691D01*
X30328575Y-70794303D01*
X30369466Y-70839953D01*
X30389331Y-70855669D01*
X30445580Y-70886199D01*
X30480922Y-70898412D01*
X30480922Y-70901770D01*
G37*
X34575594Y-101533609D02*
X34242261Y-101533609D01*
X34099404Y-102057419D02*
X34575594Y-102057419D01*
X34575594Y-102057419D02*
X34575594Y-101057419D01*
X34575594Y-101057419D02*
X34099404Y-101057419D01*
X33670832Y-102057419D02*
X33670832Y-101057419D01*
X33670832Y-101057419D02*
X33099404Y-102057419D01*
X33099404Y-102057419D02*
X33099404Y-101057419D01*
X32051785Y-101962180D02*
X32099404Y-102009800D01*
X32099404Y-102009800D02*
X32242261Y-102057419D01*
X32242261Y-102057419D02*
X32337499Y-102057419D01*
X32337499Y-102057419D02*
X32480356Y-102009800D01*
X32480356Y-102009800D02*
X32575594Y-101914561D01*
X32575594Y-101914561D02*
X32623213Y-101819323D01*
X32623213Y-101819323D02*
X32670832Y-101628847D01*
X32670832Y-101628847D02*
X32670832Y-101485990D01*
X32670832Y-101485990D02*
X32623213Y-101295514D01*
X32623213Y-101295514D02*
X32575594Y-101200276D01*
X32575594Y-101200276D02*
X32480356Y-101105038D01*
X32480356Y-101105038D02*
X32337499Y-101057419D01*
X32337499Y-101057419D02*
X32242261Y-101057419D01*
X32242261Y-101057419D02*
X32099404Y-101105038D01*
X32099404Y-101105038D02*
X32051785Y-101152657D01*
D14*
%TO.C,D16*%
X77581250Y-59468750D02*
X77581250Y-63328750D01*
X77581250Y-63328750D02*
X79581250Y-63328750D01*
X79581250Y-59468750D02*
X79581250Y-63328750D01*
%TO.C,C5*%
X142365000Y-95390580D02*
X142365000Y-95109420D01*
X143385000Y-95390580D02*
X143385000Y-95109420D01*
%TO.C,D10*%
X210931250Y-40418750D02*
X210931250Y-44278750D01*
X210931250Y-44278750D02*
X212931250Y-44278750D01*
X212931250Y-40418750D02*
X212931250Y-44278750D01*
%TO.C,C2*%
X151890000Y-95390580D02*
X151890000Y-95109420D01*
X152910000Y-95390580D02*
X152910000Y-95109420D01*
%TO.C,D21*%
X172831250Y-59468750D02*
X172831250Y-63328750D01*
X172831250Y-63328750D02*
X174831250Y-63328750D01*
X174831250Y-59468750D02*
X174831250Y-63328750D01*
%TO.C,D37*%
X239506250Y-78518750D02*
X239506250Y-82378750D01*
X239506250Y-82378750D02*
X241506250Y-82378750D01*
X241506250Y-78518750D02*
X241506250Y-82378750D01*
%TO.C,D28*%
X68056250Y-78518750D02*
X68056250Y-82378750D01*
X68056250Y-82378750D02*
X70056250Y-82378750D01*
X70056250Y-78518750D02*
X70056250Y-82378750D01*
%TO.C,C9*%
X145909420Y-72515000D02*
X146190580Y-72515000D01*
X145909420Y-73535000D02*
X146190580Y-73535000D01*
%TO.C,D34*%
X182356250Y-78518750D02*
X182356250Y-82378750D01*
X182356250Y-82378750D02*
X184356250Y-82378750D01*
X184356250Y-78518750D02*
X184356250Y-82378750D01*
%TO.C,J4*%
X152421447Y-66212500D02*
X152421447Y-66712500D01*
X152421447Y-66712500D02*
X152775000Y-66462500D01*
X152775000Y-66462500D02*
X152421447Y-66212500D01*
X153275000Y-65902500D02*
X153485000Y-65902500D01*
X153485000Y-64852500D02*
X156815000Y-64852500D01*
X153485000Y-65902500D02*
X153485000Y-64852500D01*
X153485000Y-70622500D02*
X153485000Y-71672500D01*
X153485000Y-71672500D02*
X156815000Y-71672500D01*
X157705000Y-66722500D02*
X158205000Y-66422500D01*
X157705000Y-69802500D02*
X157705000Y-66722500D01*
X158205000Y-66422500D02*
X158205000Y-65922500D01*
X158205000Y-70102500D02*
X157705000Y-69802500D01*
X158205000Y-70602500D02*
X158205000Y-70102500D01*
%TO.C,D42*%
X268875000Y-97568750D02*
X268875000Y-101428750D01*
X268875000Y-101428750D02*
X270875000Y-101428750D01*
X270875000Y-97568750D02*
X270875000Y-101428750D01*
%TO.C,D47*%
X199025000Y-102331250D02*
X199025000Y-106191250D01*
X199025000Y-106191250D02*
X201025000Y-106191250D01*
X201025000Y-102331250D02*
X201025000Y-106191250D01*
%TO.C,D39*%
X40275000Y-97568750D02*
X40275000Y-101428750D01*
X40275000Y-101428750D02*
X42275000Y-101428750D01*
X42275000Y-97568750D02*
X42275000Y-101428750D01*
%TO.C,D15*%
X58531250Y-59468750D02*
X58531250Y-63328750D01*
X58531250Y-63328750D02*
X60531250Y-63328750D01*
X60531250Y-59468750D02*
X60531250Y-63328750D01*
%TO.C,D13*%
X268081250Y-40418750D02*
X268081250Y-44278750D01*
X268081250Y-44278750D02*
X270081250Y-44278750D01*
X270081250Y-40418750D02*
X270081250Y-44278750D01*
%TO.C,D3*%
X77581250Y-40418750D02*
X77581250Y-44278750D01*
X77581250Y-44278750D02*
X79581250Y-44278750D01*
X79581250Y-40418750D02*
X79581250Y-44278750D01*
%TO.C,D20*%
X153781250Y-59468750D02*
X153781250Y-63328750D01*
X153781250Y-63328750D02*
X155781250Y-63328750D01*
X155781250Y-59468750D02*
X155781250Y-63328750D01*
%TO.C,D1*%
X39481250Y-40418750D02*
X39481250Y-44278750D01*
X39481250Y-44278750D02*
X41481250Y-44278750D01*
X41481250Y-40418750D02*
X41481250Y-44278750D01*
%TO.C,D11*%
X229981250Y-40418750D02*
X229981250Y-44278750D01*
X229981250Y-44278750D02*
X231981250Y-44278750D01*
X231981250Y-40418750D02*
X231981250Y-44278750D01*
%TO.C,D23*%
X210931250Y-59468750D02*
X210931250Y-63328750D01*
X210931250Y-63328750D02*
X212931250Y-63328750D01*
X212931250Y-59468750D02*
X212931250Y-63328750D01*
%TO.C,D24*%
X229981250Y-59468750D02*
X229981250Y-63328750D01*
X229981250Y-63328750D02*
X231981250Y-63328750D01*
X231981250Y-59468750D02*
X231981250Y-63328750D01*
%TO.C,D45*%
X137112500Y-102331250D02*
X137112500Y-106191250D01*
X137112500Y-106191250D02*
X139112500Y-106191250D01*
X139112500Y-102331250D02*
X139112500Y-106191250D01*
%TO.C,D7*%
X153781250Y-40418750D02*
X153781250Y-44278750D01*
X153781250Y-44278750D02*
X155781250Y-44278750D01*
X155781250Y-40418750D02*
X155781250Y-44278750D01*
%TO.C,D43*%
X83137500Y-102331250D02*
X83137500Y-106191250D01*
X83137500Y-106191250D02*
X85137500Y-106191250D01*
X85137500Y-102331250D02*
X85137500Y-106191250D01*
%TO.C,C7*%
X140777500Y-95390580D02*
X140777500Y-95109420D01*
X141797500Y-95390580D02*
X141797500Y-95109420D01*
%TO.C,D25*%
X249031250Y-59468750D02*
X249031250Y-63328750D01*
X249031250Y-63328750D02*
X251031250Y-63328750D01*
X251031250Y-59468750D02*
X251031250Y-63328750D01*
%TO.C,D6*%
X134731250Y-40418750D02*
X134731250Y-44278750D01*
X134731250Y-44278750D02*
X136731250Y-44278750D01*
X136731250Y-40418750D02*
X136731250Y-44278750D01*
%TO.C,SW3*%
X132217500Y-67222500D02*
X132217500Y-69302500D01*
X132997500Y-66032500D02*
X133487500Y-65542500D01*
X132997500Y-70492500D02*
X133487500Y-70982500D01*
X133487500Y-65542500D02*
X136387500Y-65542500D01*
X133487500Y-70982500D02*
X136387500Y-70982500D01*
X136877500Y-66032500D02*
X136387500Y-65542500D01*
X136877500Y-70492500D02*
X136387500Y-70982500D01*
X137657500Y-67222500D02*
X137657500Y-69302500D01*
%TO.C,D30*%
X106156250Y-78518750D02*
X106156250Y-82378750D01*
X106156250Y-82378750D02*
X108156250Y-82378750D01*
X108156250Y-78518750D02*
X108156250Y-82378750D01*
%TO.C,U3*%
X144027500Y-86083750D02*
X144027500Y-86533750D01*
X144027500Y-93303750D02*
X144027500Y-92853750D01*
X144477500Y-86083750D02*
X144027500Y-86083750D01*
X144477500Y-93303750D02*
X144027500Y-93303750D01*
X150797500Y-86083750D02*
X151247500Y-86083750D01*
X150797500Y-93303750D02*
X151247500Y-93303750D01*
X151247500Y-86083750D02*
X151247500Y-86533750D01*
X151247500Y-93303750D02*
X151247500Y-92853750D01*
X151267500Y-94233750D02*
X150797500Y-93893750D01*
X151267500Y-93553750D01*
X151267500Y-94233750D01*
G36*
X151267500Y-94233750D02*
G01*
X150797500Y-93893750D01*
X151267500Y-93553750D01*
X151267500Y-94233750D01*
G37*
%TO.C,D26*%
X268081250Y-59468750D02*
X268081250Y-63328750D01*
X268081250Y-63328750D02*
X270081250Y-63328750D01*
X270081250Y-59468750D02*
X270081250Y-63328750D01*
%TO.C,D8*%
X172831250Y-40418750D02*
X172831250Y-44278750D01*
X172831250Y-44278750D02*
X174831250Y-44278750D01*
X174831250Y-40418750D02*
X174831250Y-44278750D01*
%TO.C,D31*%
X125206250Y-78518750D02*
X125206250Y-82378750D01*
X125206250Y-82378750D02*
X127206250Y-82378750D01*
X127206250Y-78518750D02*
X127206250Y-82378750D01*
%TO.C,D46*%
X182356250Y-102331250D02*
X182356250Y-106191250D01*
X182356250Y-106191250D02*
X184356250Y-106191250D01*
X184356250Y-102331250D02*
X184356250Y-106191250D01*
%TO.C,D36*%
X220456250Y-78518750D02*
X220456250Y-82378750D01*
X220456250Y-82378750D02*
X222456250Y-82378750D01*
X222456250Y-78518750D02*
X222456250Y-82378750D01*
%TO.C,D40*%
X58531250Y-97568750D02*
X58531250Y-101428750D01*
X58531250Y-101428750D02*
X60531250Y-101428750D01*
X60531250Y-97568750D02*
X60531250Y-101428750D01*
%TO.C,C1*%
X151890000Y-83996920D02*
X151890000Y-84278080D01*
X152910000Y-83996920D02*
X152910000Y-84278080D01*
%TO.C,C6*%
X142365000Y-83996920D02*
X142365000Y-84278080D01*
X143385000Y-83996920D02*
X143385000Y-84278080D01*
%TO.C,D17*%
X96631250Y-59468750D02*
X96631250Y-63328750D01*
X96631250Y-63328750D02*
X98631250Y-63328750D01*
X98631250Y-59468750D02*
X98631250Y-63328750D01*
%TO.C,U2*%
X144490000Y-69200000D02*
X144490000Y-69850000D01*
X144490000Y-70500000D02*
X144490000Y-69850000D01*
X147610000Y-69200000D02*
X147610000Y-69850000D01*
X147610000Y-70500000D02*
X147610000Y-69850000D01*
X147890000Y-71252500D02*
X147560000Y-71012500D01*
X147890000Y-70772500D01*
X147890000Y-71252500D01*
G36*
X147890000Y-71252500D02*
G01*
X147560000Y-71012500D01*
X147890000Y-70772500D01*
X147890000Y-71252500D01*
G37*
%TO.C,D27*%
X44243750Y-78518750D02*
X44243750Y-82378750D01*
X44243750Y-82378750D02*
X46243750Y-82378750D01*
X46243750Y-78518750D02*
X46243750Y-82378750D01*
%TO.C,D44*%
X108537500Y-102331250D02*
X108537500Y-106191250D01*
X108537500Y-106191250D02*
X110537500Y-106191250D01*
X110537500Y-102331250D02*
X110537500Y-106191250D01*
%TO.C,D48*%
X226012500Y-102331250D02*
X226012500Y-106191250D01*
X226012500Y-106191250D02*
X228012500Y-106191250D01*
X228012500Y-102331250D02*
X228012500Y-106191250D01*
%TO.C,D22*%
X191881250Y-59468750D02*
X191881250Y-63328750D01*
X191881250Y-63328750D02*
X193881250Y-63328750D01*
X193881250Y-59468750D02*
X193881250Y-63328750D01*
%TO.C,C4*%
X140777500Y-83996920D02*
X140777500Y-84278080D01*
X141797500Y-83996920D02*
X141797500Y-84278080D01*
%TO.C,D35*%
X201406250Y-78518750D02*
X201406250Y-82378750D01*
X201406250Y-82378750D02*
X203406250Y-82378750D01*
X203406250Y-78518750D02*
X203406250Y-82378750D01*
%TO.C,J3*%
X151318947Y-66202500D02*
X152308947Y-66202500D01*
X152308947Y-65152500D02*
X154808947Y-65152500D01*
X152308947Y-66202500D02*
X152308947Y-65152500D01*
X152308947Y-70322500D02*
X152308947Y-71372500D01*
X152308947Y-71372500D02*
X154808947Y-71372500D01*
X156778947Y-70202500D02*
X156778947Y-66322500D01*
%TO.C,D12*%
X249031250Y-40418750D02*
X249031250Y-44278750D01*
X249031250Y-44278750D02*
X251031250Y-44278750D01*
X251031250Y-40418750D02*
X251031250Y-44278750D01*
%TO.C,D32*%
X144256250Y-78518750D02*
X144256250Y-82378750D01*
X144256250Y-82378750D02*
X146256250Y-82378750D01*
X146256250Y-78518750D02*
X146256250Y-82378750D01*
%TO.C,D33*%
X163306250Y-78518750D02*
X163306250Y-82378750D01*
X163306250Y-82378750D02*
X165306250Y-82378750D01*
X165306250Y-78518750D02*
X165306250Y-82378750D01*
%TO.C,D29*%
X87106250Y-78518750D02*
X87106250Y-82378750D01*
X87106250Y-82378750D02*
X89106250Y-82378750D01*
X89106250Y-78518750D02*
X89106250Y-82378750D01*
%TO.C,D2*%
X58531250Y-40418750D02*
X58531250Y-44278750D01*
X58531250Y-44278750D02*
X60531250Y-44278750D01*
X60531250Y-40418750D02*
X60531250Y-44278750D01*
%TO.C,D41*%
X249031250Y-97568750D02*
X249031250Y-101428750D01*
X249031250Y-101428750D02*
X251031250Y-101428750D01*
X251031250Y-97568750D02*
X251031250Y-101428750D01*
%TO.C,R1*%
X139971250Y-68025242D02*
X139971250Y-68499758D01*
X141016250Y-68025242D02*
X141016250Y-68499758D01*
%TO.C,D4*%
X96631250Y-40418750D02*
X96631250Y-44278750D01*
X96631250Y-44278750D02*
X98631250Y-44278750D01*
X98631250Y-40418750D02*
X98631250Y-44278750D01*
%TO.C,C8*%
X146190580Y-66165000D02*
X145909420Y-66165000D01*
X146190580Y-67185000D02*
X145909420Y-67185000D01*
D15*
%TO.C,G\u002A\u002A\u002A*%
G36*
X147221250Y-110296250D02*
G01*
X147078767Y-110438750D01*
X146885017Y-110438750D01*
X146691267Y-110438750D01*
X146833750Y-110296250D01*
X146976234Y-110153750D01*
X147169984Y-110153750D01*
X147363734Y-110153750D01*
X147221250Y-110296250D01*
G37*
G36*
X147711250Y-110438750D02*
G01*
X147426259Y-110723750D01*
X147234380Y-110723750D01*
X147228826Y-110723749D01*
X147198582Y-110723717D01*
X147169899Y-110723640D01*
X147143160Y-110723523D01*
X147118747Y-110723369D01*
X147097041Y-110723182D01*
X147078425Y-110722965D01*
X147063281Y-110722723D01*
X147051991Y-110722459D01*
X147044937Y-110722176D01*
X147042500Y-110721879D01*
X147043354Y-110720880D01*
X147047453Y-110716577D01*
X147054773Y-110709062D01*
X147065125Y-110698523D01*
X147078323Y-110685147D01*
X147094179Y-110669124D01*
X147112506Y-110650643D01*
X147133117Y-110629890D01*
X147155826Y-110607056D01*
X147180443Y-110582328D01*
X147206783Y-110555894D01*
X147234658Y-110527944D01*
X147263881Y-110498666D01*
X147294264Y-110468248D01*
X147325621Y-110436879D01*
X147608742Y-110153750D01*
X147802492Y-110153750D01*
X147996242Y-110153750D01*
X147711250Y-110438750D01*
G37*
G36*
X148865623Y-109458122D02*
G01*
X149355001Y-109947495D01*
X149355001Y-110438745D01*
X149355000Y-110929995D01*
X148865628Y-111419372D01*
X148376255Y-111908750D01*
X147762500Y-111908750D01*
X147148746Y-111908750D01*
X146658750Y-111418750D01*
X146168755Y-110928750D01*
X147148758Y-110928750D01*
X148128760Y-110928750D01*
X148373750Y-110683750D01*
X148618741Y-110438750D01*
X148373750Y-110193750D01*
X148128760Y-109948749D01*
X147399380Y-109948750D01*
X147348494Y-109948746D01*
X147289534Y-109948732D01*
X147232048Y-109948708D01*
X147176230Y-109948675D01*
X147122277Y-109948633D01*
X147070385Y-109948582D01*
X147020749Y-109948523D01*
X146973566Y-109948456D01*
X146929032Y-109948382D01*
X146887342Y-109948301D01*
X146848692Y-109948213D01*
X146813279Y-109948119D01*
X146781299Y-109948020D01*
X146752946Y-109947915D01*
X146728418Y-109947805D01*
X146707910Y-109947691D01*
X146691619Y-109947573D01*
X146679739Y-109947451D01*
X146672468Y-109947326D01*
X146670000Y-109947199D01*
X146671735Y-109943747D01*
X146676663Y-109937273D01*
X146684360Y-109928209D01*
X146694406Y-109916990D01*
X146706379Y-109904047D01*
X146719857Y-109889816D01*
X146734419Y-109874729D01*
X146749642Y-109859218D01*
X146765104Y-109843719D01*
X146780385Y-109828663D01*
X146795061Y-109814485D01*
X146808712Y-109801617D01*
X146820916Y-109790493D01*
X146831250Y-109781546D01*
X146870436Y-109750068D01*
X146933115Y-109704415D01*
X146997638Y-109663096D01*
X147064305Y-109625958D01*
X147133413Y-109592853D01*
X147205262Y-109563629D01*
X147280152Y-109538136D01*
X147358381Y-109516223D01*
X147365787Y-109514319D01*
X147377282Y-109511201D01*
X147386225Y-109508559D01*
X147391848Y-109506626D01*
X147393381Y-109505634D01*
X147391338Y-109504872D01*
X147385430Y-109503219D01*
X147377500Y-109501306D01*
X147370166Y-109499590D01*
X147351510Y-109494866D01*
X147330070Y-109489055D01*
X147307168Y-109482541D01*
X147284129Y-109475703D01*
X147262278Y-109468922D01*
X147242937Y-109462580D01*
X147232842Y-109459104D01*
X147159120Y-109430887D01*
X147087691Y-109398505D01*
X147018876Y-109362129D01*
X146952998Y-109321927D01*
X146890379Y-109278066D01*
X146888133Y-109276382D01*
X146878467Y-109269120D01*
X146870473Y-109263090D01*
X146864928Y-109258881D01*
X146862609Y-109257078D01*
X146862917Y-109256610D01*
X146866052Y-109253146D01*
X146872344Y-109246542D01*
X146881534Y-109237063D01*
X146893360Y-109224972D01*
X146907562Y-109210534D01*
X146923880Y-109194014D01*
X146942053Y-109175677D01*
X146961821Y-109155785D01*
X146982924Y-109134605D01*
X147005101Y-109112399D01*
X147148734Y-108968750D01*
X147762490Y-108968750D01*
X148376246Y-108968750D01*
X148865623Y-109458122D01*
G37*
G36*
X146278883Y-108715026D02*
G01*
X146290345Y-108759447D01*
X146312254Y-108829345D01*
X146338277Y-108896501D01*
X146368485Y-108961073D01*
X146402948Y-109023220D01*
X146441736Y-109083101D01*
X146464178Y-109114040D01*
X146508471Y-109168717D01*
X146556372Y-109220250D01*
X146607603Y-109268449D01*
X146661889Y-109313120D01*
X146718953Y-109354072D01*
X146778517Y-109391112D01*
X146840306Y-109424048D01*
X146904042Y-109452687D01*
X146969449Y-109476837D01*
X147036250Y-109496306D01*
X147039066Y-109497023D01*
X147050887Y-109500131D01*
X147060728Y-109502870D01*
X147067629Y-109504967D01*
X147070632Y-109506148D01*
X147070069Y-109506900D01*
X147065746Y-109508672D01*
X147058123Y-109510993D01*
X147048132Y-109513556D01*
X147025560Y-109519290D01*
X146981035Y-109532516D01*
X146935291Y-109548419D01*
X146889854Y-109566453D01*
X146846250Y-109586068D01*
X146799781Y-109609812D01*
X146738462Y-109645904D01*
X146679945Y-109685962D01*
X146624411Y-109729782D01*
X146572042Y-109777161D01*
X146523019Y-109827892D01*
X146477523Y-109881772D01*
X146435736Y-109938596D01*
X146397839Y-109998161D01*
X146364013Y-110060261D01*
X146334441Y-110124692D01*
X146309303Y-110191250D01*
X146305986Y-110201182D01*
X146302171Y-110213053D01*
X146298468Y-110225213D01*
X146294613Y-110238574D01*
X146290344Y-110254051D01*
X146285400Y-110272555D01*
X146279518Y-110295000D01*
X146279032Y-110296846D01*
X146278048Y-110299907D01*
X146277085Y-110300758D01*
X146275895Y-110298872D01*
X146274228Y-110293720D01*
X146271838Y-110284775D01*
X146268476Y-110271508D01*
X146267190Y-110266528D01*
X146262792Y-110250565D01*
X146257495Y-110232447D01*
X146251851Y-110214044D01*
X146246418Y-110197224D01*
X146227873Y-110146126D01*
X146199552Y-110080624D01*
X146167062Y-110017621D01*
X146130581Y-109957279D01*
X146090285Y-109899764D01*
X146046350Y-109845240D01*
X145998952Y-109793871D01*
X145948267Y-109745822D01*
X145894472Y-109701256D01*
X145837743Y-109660339D01*
X145778255Y-109623234D01*
X145716186Y-109590107D01*
X145651712Y-109561120D01*
X145585008Y-109536440D01*
X145516250Y-109516229D01*
X145508311Y-109514137D01*
X145497094Y-109510974D01*
X145488573Y-109508302D01*
X145483469Y-109506352D01*
X145482500Y-109505356D01*
X145482692Y-109505295D01*
X145486908Y-109504125D01*
X145494805Y-109502049D01*
X145505323Y-109499342D01*
X145517407Y-109496278D01*
X145544812Y-109488917D01*
X145606942Y-109468885D01*
X145668688Y-109444460D01*
X145729273Y-109416024D01*
X145787914Y-109383960D01*
X145843833Y-109348650D01*
X145896250Y-109310478D01*
X145920525Y-109290728D01*
X145950494Y-109264548D01*
X145980469Y-109236567D01*
X146009357Y-109207844D01*
X146036065Y-109179437D01*
X146059498Y-109152405D01*
X146078643Y-109128497D01*
X146121235Y-109069671D01*
X146159577Y-109008264D01*
X146193583Y-108944439D01*
X146223173Y-108878359D01*
X146248264Y-108810185D01*
X146268773Y-108740081D01*
X146270233Y-108734420D01*
X146273231Y-108723258D01*
X146275387Y-108716252D01*
X146276910Y-108712886D01*
X146278006Y-108712649D01*
X146278883Y-108715026D01*
G37*
D14*
%TO.C,C3*%
X153477500Y-95390580D02*
X153477500Y-95109420D01*
X154497500Y-95390580D02*
X154497500Y-95109420D01*
%TO.C,D14*%
X39481250Y-59468750D02*
X39481250Y-63328750D01*
X39481250Y-63328750D02*
X41481250Y-63328750D01*
X41481250Y-59468750D02*
X41481250Y-63328750D01*
%TO.C,D18*%
X115681250Y-59468750D02*
X115681250Y-63328750D01*
X115681250Y-63328750D02*
X117681250Y-63328750D01*
X117681250Y-59468750D02*
X117681250Y-63328750D01*
%TO.C,D38*%
X263318750Y-78518750D02*
X263318750Y-82378750D01*
X263318750Y-82378750D02*
X265318750Y-82378750D01*
X265318750Y-78518750D02*
X265318750Y-82378750D01*
%TO.C,D9*%
X191881250Y-40418750D02*
X191881250Y-44278750D01*
X191881250Y-44278750D02*
X193881250Y-44278750D01*
X193881250Y-40418750D02*
X193881250Y-44278750D01*
%TO.C,D5*%
X115681250Y-40418750D02*
X115681250Y-44278750D01*
X115681250Y-44278750D02*
X117681250Y-44278750D01*
X117681250Y-40418750D02*
X117681250Y-44278750D01*
%TO.C,D19*%
X134731250Y-59468750D02*
X134731250Y-63328750D01*
X134731250Y-63328750D02*
X136731250Y-63328750D01*
X136731250Y-59468750D02*
X136731250Y-63328750D01*
%TD*%
M02*
