M48
; DRILL file {KiCad 8.0.3} date 2024-09-04T21:23:11+0200
; FORMAT={-:-/ absolute / inch / decimal}
; #@! TF.CreationDate,2024-09-04T21:23:11+02:00
; #@! TF.GenerationSoftware,Kicad,Pcbnew,8.0.3
; #@! TF.FileFunction,NonPlated,1,2,NPTH
FMAT,2
INCH
; #@! TA.AperFunction,NonPlated,NPTH,ComponentDrill
T1C0.0689
; #@! TA.AperFunction,NonPlated,NPTH,ComponentDrill
T2C0.1570
%
G90
G05
T1
X1.1125Y-1.625
X1.1125Y-2.375
X1.1125Y-3.875
X1.3Y-3.125
X1.5125Y-1.625
X1.5125Y-2.375
X1.5125Y-3.875
X1.7Y-3.125
X1.8625Y-1.625
X1.8625Y-2.375
X1.8625Y-3.875
X2.2375Y-3.125
X2.2625Y-1.625
X2.2625Y-2.375
X2.2625Y-3.875
X2.6125Y-1.625
X2.6125Y-2.375
X2.6375Y-3.125
X2.8Y-4.0625
X2.9875Y-3.125
X3.0125Y-1.625
X3.0125Y-2.375
X3.2Y-4.0625
X3.3625Y-1.625
X3.3625Y-2.375
X3.3875Y-3.125
X3.7375Y-3.125
X3.7625Y-1.625
X3.7625Y-2.375
X3.8312Y-4.0625
X4.1125Y-1.625
X4.1125Y-2.375
X4.1375Y-3.125
X4.2313Y-4.0625
X4.4875Y-3.125
X4.4875Y-4.0625
X4.5125Y-1.625
X4.5125Y-2.375
X4.8625Y-1.625
X4.8625Y-2.375
X4.8875Y-3.125
X4.8875Y-4.0625
X4.9562Y-4.0625
X5.2375Y-3.125
X5.2625Y-1.625
X5.2625Y-2.375
X5.3563Y-4.0625
X5.6125Y-1.625
X5.6125Y-2.375
X5.6125Y-4.0625
X5.6375Y-3.125
X5.9875Y-3.125
X6.0125Y-1.625
X6.0125Y-2.375
X6.0125Y-4.0625
X6.2687Y-4.0625
X6.3625Y-1.625
X6.3625Y-2.375
X6.3875Y-3.125
X6.6688Y-4.0625
X6.7375Y-3.125
X6.7375Y-4.0625
X6.7625Y-1.625
X6.7625Y-2.375
X7.1125Y-1.625
X7.1125Y-2.375
X7.1375Y-3.125
X7.1375Y-4.0625
X7.3937Y-4.0625
X7.4875Y-3.125
X7.5125Y-1.625
X7.5125Y-2.375
X7.7938Y-4.0625
X7.8625Y-1.625
X7.8625Y-2.375
X7.8875Y-3.125
X8.2375Y-3.125
X8.2625Y-1.625
X8.2625Y-2.375
X8.425Y-4.0625
X8.6125Y-1.625
X8.6125Y-2.375
X8.6375Y-3.125
X8.825Y-4.0625
X8.9875Y-3.125
X9.0125Y-1.625
X9.0125Y-2.375
X9.3625Y-1.625
X9.3625Y-2.375
X9.3625Y-3.875
X9.3875Y-3.125
X9.7625Y-1.625
X9.7625Y-2.375
X9.7625Y-3.875
X9.925Y-3.125
X10.1125Y-1.625
X10.1125Y-2.375
X10.1125Y-3.875
X10.325Y-3.125
X10.5125Y-1.625
X10.5125Y-2.375
X10.5125Y-3.875
T2
X1.3125Y-1.625
X1.3125Y-2.375
X1.3125Y-3.875
X1.5Y-3.125
X2.0625Y-1.625
X2.0625Y-2.375
X2.0625Y-3.875
X2.4375Y-3.125
X2.8125Y-1.625
X2.8125Y-2.375
X3.0Y-4.0625
X3.1875Y-3.125
X3.5625Y-1.625
X3.5625Y-2.375
X3.9375Y-3.125
X3.9375Y-3.7375
X4.0312Y-4.0625
X4.3125Y-1.625
X4.3125Y-2.375
X4.6875Y-3.125
X4.6875Y-4.0625
X5.0625Y-1.625
X5.0625Y-2.375
X5.1562Y-4.0625
X5.4375Y-3.125
X5.4375Y-3.7375
X5.8125Y-1.625
X5.8125Y-2.375
X5.8125Y-4.0625
X6.1875Y-3.125
X6.1875Y-3.7375
X6.4688Y-4.0625
X6.5625Y-1.625
X6.5625Y-2.375
X6.9375Y-3.125
X6.9375Y-4.0625
X7.3125Y-1.625
X7.3125Y-2.375
X7.5938Y-4.0625
X7.6875Y-3.125
X7.6875Y-3.7375
X8.0625Y-1.625
X8.0625Y-2.375
X8.4375Y-3.125
X8.625Y-4.0625
X8.8125Y-1.625
X8.8125Y-2.375
X9.1875Y-3.125
X9.5625Y-1.625
X9.5625Y-2.375
X9.5625Y-3.875
X10.125Y-3.125
X10.3125Y-1.625
X10.3125Y-2.375
X10.3125Y-3.875
M30
