%TF.GenerationSoftware,KiCad,Pcbnew,8.0.3*%
%TF.CreationDate,2024-09-04T21:23:11+02:00*%
%TF.ProjectId,ferntypes,6665726e-7479-4706-9573-2e6b69636164,rev?*%
%TF.SameCoordinates,Original*%
%TF.FileFunction,Soldermask,Bot*%
%TF.FilePolarity,Negative*%
%FSLAX46Y46*%
G04 Gerber Fmt 4.6, Leading zero omitted, Abs format (unit mm)*
G04 Created by KiCad (PCBNEW 8.0.3) date 2024-09-04 21:23:11*
%MOMM*%
%LPD*%
G01*
G04 APERTURE LIST*
G04 Aperture macros list*
%AMRoundRect*
0 Rectangle with rounded corners*
0 $1 Rounding radius*
0 $2 $3 $4 $5 $6 $7 $8 $9 X,Y pos of 4 corners*
0 Add a 4 corners polygon primitive as box body*
4,1,4,$2,$3,$4,$5,$6,$7,$8,$9,$2,$3,0*
0 Add four circle primitives for the rounded corners*
1,1,$1+$1,$2,$3*
1,1,$1+$1,$4,$5*
1,1,$1+$1,$6,$7*
1,1,$1+$1,$8,$9*
0 Add four rect primitives between the rounded corners*
20,1,$1+$1,$2,$3,$4,$5,0*
20,1,$1+$1,$4,$5,$6,$7,0*
20,1,$1+$1,$6,$7,$8,$9,0*
20,1,$1+$1,$8,$9,$2,$3,0*%
G04 Aperture macros list end*
%ADD10C,1.750000*%
%ADD11C,3.987800*%
%ADD12C,2.300000*%
%ADD13C,2.000000*%
%ADD14RoundRect,0.500000X0.500000X-0.500000X0.500000X0.500000X-0.500000X0.500000X-0.500000X-0.500000X0*%
%ADD15RoundRect,0.550000X0.550000X-1.150000X0.550000X1.150000X-0.550000X1.150000X-0.550000X-1.150000X0*%
%ADD16C,4.000000*%
%ADD17RoundRect,0.250000X0.300000X-0.300000X0.300000X0.300000X-0.300000X0.300000X-0.300000X-0.300000X0*%
%ADD18RoundRect,0.225000X-0.250000X0.225000X-0.250000X-0.225000X0.250000X-0.225000X0.250000X0.225000X0*%
%ADD19RoundRect,0.225000X0.225000X0.250000X-0.225000X0.250000X-0.225000X-0.250000X0.225000X-0.250000X0*%
%ADD20RoundRect,0.150000X-0.275000X0.150000X-0.275000X-0.150000X0.275000X-0.150000X0.275000X0.150000X0*%
%ADD21RoundRect,0.175000X-0.225000X0.175000X-0.225000X-0.175000X0.225000X-0.175000X0.225000X0.175000X0*%
%ADD22R,1.800000X1.100000*%
%ADD23RoundRect,0.075000X0.075000X-0.662500X0.075000X0.662500X-0.075000X0.662500X-0.075000X-0.662500X0*%
%ADD24RoundRect,0.075000X0.662500X-0.075000X0.662500X0.075000X-0.662500X0.075000X-0.662500X-0.075000X0*%
%ADD25RoundRect,0.225000X0.250000X-0.225000X0.250000X0.225000X-0.250000X0.225000X-0.250000X-0.225000X0*%
%ADD26RoundRect,0.150000X0.150000X-0.587500X0.150000X0.587500X-0.150000X0.587500X-0.150000X-0.587500X0*%
%ADD27RoundRect,0.150000X-0.625000X0.150000X-0.625000X-0.150000X0.625000X-0.150000X0.625000X0.150000X0*%
%ADD28RoundRect,0.250000X-0.650000X0.350000X-0.650000X-0.350000X0.650000X-0.350000X0.650000X0.350000X0*%
%ADD29RoundRect,0.200000X0.275000X-0.200000X0.275000X0.200000X-0.275000X0.200000X-0.275000X-0.200000X0*%
%ADD30RoundRect,0.225000X-0.225000X-0.250000X0.225000X-0.250000X0.225000X0.250000X-0.225000X0.250000X0*%
G04 APERTURE END LIST*
D10*
%TO.C,MX29*%
X75882500Y-79375000D03*
D11*
X80962500Y-79375000D03*
D10*
X86042500Y-79375000D03*
D12*
X77152500Y-76835000D03*
X83502500Y-74295000D03*
%TD*%
D10*
%TO.C,MX8*%
X161607500Y-41275000D03*
D11*
X166687500Y-41275000D03*
D10*
X171767500Y-41275000D03*
D12*
X162877500Y-38735000D03*
X169227500Y-36195000D03*
%TD*%
D10*
%TO.C,MX41*%
X237807500Y-98425000D03*
D11*
X242887500Y-98425000D03*
D10*
X247967500Y-98425000D03*
D12*
X239077500Y-95885000D03*
X245427500Y-93345000D03*
%TD*%
D10*
%TO.C,MX36*%
X209232500Y-79375000D03*
D11*
X214312500Y-79375000D03*
D10*
X219392500Y-79375000D03*
D12*
X210502500Y-76835000D03*
X216852500Y-74295000D03*
%TD*%
D10*
%TO.C,MX7*%
X142557500Y-41275000D03*
D11*
X147637500Y-41275000D03*
D10*
X152717500Y-41275000D03*
D12*
X143827500Y-38735000D03*
X150177500Y-36195000D03*
%TD*%
D13*
%TO.C,SW1*%
X73700000Y-110687500D03*
X78700000Y-110687500D03*
D14*
X76200000Y-110687500D03*
D15*
X70600000Y-103187500D03*
X81800000Y-103187500D03*
D13*
X78700000Y-96187500D03*
X73700000Y-96187500D03*
%TD*%
D10*
%TO.C,MX27*%
X33020000Y-79375000D03*
D11*
X38100000Y-79375000D03*
D10*
X43180000Y-79375000D03*
D12*
X34290000Y-76835000D03*
X40640000Y-74295000D03*
%TD*%
D10*
%TO.C,MX18*%
X104457500Y-60325000D03*
D11*
X109537500Y-60325000D03*
D10*
X114617500Y-60325000D03*
D12*
X105727500Y-57785000D03*
X112077500Y-55245000D03*
%TD*%
D10*
%TO.C,MX9*%
X180657500Y-41275000D03*
D11*
X185737500Y-41275000D03*
D10*
X190817500Y-41275000D03*
D12*
X181927500Y-38735000D03*
X188277500Y-36195000D03*
%TD*%
D10*
%TO.C,MX25*%
X237807500Y-60325000D03*
D11*
X242887500Y-60325000D03*
D10*
X247967500Y-60325000D03*
D12*
X239077500Y-57785000D03*
X245427500Y-55245000D03*
%TD*%
D10*
%TO.C,MX33*%
X152082500Y-79375000D03*
D11*
X157162500Y-79375000D03*
D10*
X162242500Y-79375000D03*
D12*
X153352500Y-76835000D03*
X159702500Y-74295000D03*
%TD*%
D10*
%TO.C,MX2*%
X47307500Y-41275000D03*
D11*
X52387500Y-41275000D03*
D10*
X57467500Y-41275000D03*
D12*
X48577500Y-38735000D03*
X54927500Y-36195000D03*
%TD*%
D10*
%TO.C,MX16*%
X66357500Y-60325000D03*
D11*
X71437500Y-60325000D03*
D10*
X76517500Y-60325000D03*
D12*
X67627500Y-57785000D03*
X73977500Y-55245000D03*
%TD*%
D16*
%TO.C,S1*%
X138112500Y-110172500D03*
D11*
X138112500Y-94932500D03*
D16*
X100012500Y-110172500D03*
D11*
X100012500Y-94932500D03*
%TD*%
D10*
%TO.C,MX30*%
X94932500Y-79375000D03*
D11*
X100012500Y-79375000D03*
D10*
X105092500Y-79375000D03*
D12*
X96202500Y-76835000D03*
X102552500Y-74295000D03*
%TD*%
D10*
%TO.C,MX39*%
X28257500Y-98425000D03*
D11*
X33337500Y-98425000D03*
D10*
X38417500Y-98425000D03*
D12*
X29527500Y-95885000D03*
X35877500Y-93345000D03*
%TD*%
D10*
%TO.C,MX37*%
X228282500Y-79375000D03*
D11*
X233362500Y-79375000D03*
D10*
X238442500Y-79375000D03*
D12*
X229552500Y-76835000D03*
X235902500Y-74295000D03*
%TD*%
D10*
%TO.C,MX19*%
X123507500Y-60325000D03*
D11*
X128587500Y-60325000D03*
D10*
X133667500Y-60325000D03*
D12*
X124777500Y-57785000D03*
X131127500Y-55245000D03*
%TD*%
D10*
%TO.C,MX11*%
X218757500Y-41275000D03*
D11*
X223837500Y-41275000D03*
D10*
X228917500Y-41275000D03*
D12*
X220027500Y-38735000D03*
X226377500Y-36195000D03*
%TD*%
D10*
%TO.C,MX24*%
X218757500Y-60325000D03*
D11*
X223837500Y-60325000D03*
D10*
X228917500Y-60325000D03*
D12*
X220027500Y-57785000D03*
X226377500Y-55245000D03*
%TD*%
D10*
%TO.C,MX22*%
X180657500Y-60325000D03*
D11*
X185737500Y-60325000D03*
D10*
X190817500Y-60325000D03*
D12*
X181927500Y-57785000D03*
X188277500Y-55245000D03*
%TD*%
D10*
%TO.C,MX42*%
X256857500Y-98425000D03*
D11*
X261937500Y-98425000D03*
D10*
X267017500Y-98425000D03*
D12*
X258127500Y-95885000D03*
X264477500Y-93345000D03*
%TD*%
D10*
%TO.C,MX38*%
X252095000Y-79375000D03*
D11*
X257175000Y-79375000D03*
D10*
X262255000Y-79375000D03*
D12*
X253365000Y-76835000D03*
X259715000Y-74295000D03*
%TD*%
D10*
%TO.C,MX17*%
X85407500Y-60325000D03*
D11*
X90487500Y-60325000D03*
D10*
X95567500Y-60325000D03*
D12*
X86677500Y-57785000D03*
X93027500Y-55245000D03*
%TD*%
D10*
%TO.C,MX10*%
X199707500Y-41275000D03*
D11*
X204787500Y-41275000D03*
D10*
X209867500Y-41275000D03*
D12*
X200977500Y-38735000D03*
X207327500Y-36195000D03*
%TD*%
D10*
%TO.C,MX40*%
X47307500Y-98425000D03*
D11*
X52387500Y-98425000D03*
D10*
X57467500Y-98425000D03*
D12*
X48577500Y-95885000D03*
X54927500Y-93345000D03*
%TD*%
D10*
%TO.C,MX12*%
X237807500Y-41275000D03*
D11*
X242887500Y-41275000D03*
D10*
X247967500Y-41275000D03*
D12*
X239077500Y-38735000D03*
X245427500Y-36195000D03*
%TD*%
D10*
%TO.C,MX44*%
X97313750Y-103187500D03*
D11*
X102393750Y-103187500D03*
D10*
X107473750Y-103187500D03*
D12*
X98583750Y-100647500D03*
X104933750Y-98107500D03*
%TD*%
D10*
%TO.C,MX35*%
X190182500Y-79375000D03*
D11*
X195262500Y-79375000D03*
D10*
X200342500Y-79375000D03*
D12*
X191452500Y-76835000D03*
X197802500Y-74295000D03*
%TD*%
D10*
%TO.C,MX5*%
X104457500Y-41275000D03*
D11*
X109537500Y-41275000D03*
D10*
X114617500Y-41275000D03*
D12*
X105727500Y-38735000D03*
X112077500Y-36195000D03*
%TD*%
D10*
%TO.C,MX32*%
X133032500Y-79375000D03*
D11*
X138112500Y-79375000D03*
D10*
X143192500Y-79375000D03*
D12*
X134302500Y-76835000D03*
X140652500Y-74295000D03*
%TD*%
D10*
%TO.C,MX46*%
X159226250Y-103187500D03*
D11*
X164306250Y-103187500D03*
D10*
X169386250Y-103187500D03*
D12*
X160496250Y-100647500D03*
X166846250Y-98107500D03*
%TD*%
D16*
%TO.C,S2*%
X195262500Y-110172500D03*
D11*
X195262500Y-94932500D03*
D16*
X157162500Y-110172500D03*
D11*
X157162500Y-94932500D03*
%TD*%
D10*
%TO.C,MX26*%
X256857500Y-60325000D03*
D11*
X261937500Y-60325000D03*
D10*
X267017500Y-60325000D03*
D12*
X258127500Y-57785000D03*
X264477500Y-55245000D03*
%TD*%
D10*
%TO.C,MX23*%
X199707500Y-60325000D03*
D11*
X204787500Y-60325000D03*
D10*
X209867500Y-60325000D03*
D12*
X200977500Y-57785000D03*
X207327500Y-55245000D03*
%TD*%
D10*
%TO.C,MX50*%
X142557500Y-103187500D03*
D11*
X147637500Y-103187500D03*
D10*
X152717500Y-103187500D03*
D12*
X143827500Y-100647500D03*
X150177500Y-98107500D03*
%TD*%
D10*
%TO.C,MX45*%
X125888750Y-103187500D03*
D11*
X130968750Y-103187500D03*
D10*
X136048750Y-103187500D03*
D12*
X127158750Y-100647500D03*
X133508750Y-98107500D03*
%TD*%
D10*
%TO.C,MX31*%
X113982500Y-79375000D03*
D11*
X119062500Y-79375000D03*
D10*
X124142500Y-79375000D03*
D12*
X115252500Y-76835000D03*
X121602500Y-74295000D03*
%TD*%
D10*
%TO.C,MX4*%
X85407500Y-41275000D03*
D11*
X90487500Y-41275000D03*
D10*
X95567500Y-41275000D03*
D12*
X86677500Y-38735000D03*
X93027500Y-36195000D03*
%TD*%
D10*
%TO.C,MX28*%
X56832500Y-79375000D03*
D11*
X61912500Y-79375000D03*
D10*
X66992500Y-79375000D03*
D12*
X58102500Y-76835000D03*
X64452500Y-74295000D03*
%TD*%
D10*
%TO.C,MX49*%
X113982500Y-103187500D03*
D11*
X119062500Y-103187500D03*
D10*
X124142500Y-103187500D03*
D12*
X115252500Y-100647500D03*
X121602500Y-98107500D03*
%TD*%
D13*
%TO.C,SW2*%
X216575000Y-110687500D03*
X221575000Y-110687500D03*
D14*
X219075000Y-110687500D03*
D15*
X213475000Y-103187500D03*
X224675000Y-103187500D03*
D13*
X221575000Y-96187500D03*
X216575000Y-96187500D03*
%TD*%
D10*
%TO.C,MX43*%
X71120000Y-103187500D03*
D11*
X76200000Y-103187500D03*
D10*
X81280000Y-103187500D03*
D12*
X72390000Y-100647500D03*
X78740000Y-98107500D03*
%TD*%
D10*
%TO.C,MX3*%
X66357500Y-41275000D03*
D11*
X71437500Y-41275000D03*
D10*
X76517500Y-41275000D03*
D12*
X67627500Y-38735000D03*
X73977500Y-36195000D03*
%TD*%
D10*
%TO.C,MX15*%
X47307500Y-60325000D03*
D11*
X52387500Y-60325000D03*
D10*
X57467500Y-60325000D03*
D12*
X48577500Y-57785000D03*
X54927500Y-55245000D03*
%TD*%
D10*
%TO.C,MX34*%
X171132500Y-79375000D03*
D11*
X176212500Y-79375000D03*
D10*
X181292500Y-79375000D03*
D12*
X172402500Y-76835000D03*
X178752500Y-74295000D03*
%TD*%
D10*
%TO.C,MX47*%
X187801250Y-103187500D03*
D11*
X192881250Y-103187500D03*
D10*
X197961250Y-103187500D03*
D12*
X189071250Y-100647500D03*
X195421250Y-98107500D03*
%TD*%
D10*
%TO.C,MX1*%
X28257500Y-41275000D03*
D11*
X33337500Y-41275000D03*
D10*
X38417500Y-41275000D03*
D12*
X29527500Y-38735000D03*
X35877500Y-36195000D03*
%TD*%
D10*
%TO.C,MX13*%
X256857500Y-41275000D03*
D11*
X261937500Y-41275000D03*
D10*
X267017500Y-41275000D03*
D12*
X258127500Y-38735000D03*
X264477500Y-36195000D03*
%TD*%
D10*
%TO.C,MX20*%
X142557500Y-60325000D03*
D11*
X147637500Y-60325000D03*
D10*
X152717500Y-60325000D03*
D12*
X143827500Y-57785000D03*
X150177500Y-55245000D03*
%TD*%
D10*
%TO.C,MX14*%
X28257500Y-60325000D03*
D11*
X33337500Y-60325000D03*
D10*
X38417500Y-60325000D03*
D12*
X29527500Y-57785000D03*
X35877500Y-55245000D03*
%TD*%
D10*
%TO.C,MX6*%
X123507500Y-41275000D03*
D11*
X128587500Y-41275000D03*
D10*
X133667500Y-41275000D03*
D12*
X124777500Y-38735000D03*
X131127500Y-36195000D03*
%TD*%
D10*
%TO.C,MX51*%
X171132500Y-103187500D03*
D11*
X176212500Y-103187500D03*
D10*
X181292500Y-103187500D03*
D12*
X172402500Y-100647500D03*
X178752500Y-98107500D03*
%TD*%
D10*
%TO.C,MX48*%
X213995000Y-103187500D03*
D11*
X219075000Y-103187500D03*
D10*
X224155000Y-103187500D03*
D12*
X215265000Y-100647500D03*
X221615000Y-98107500D03*
%TD*%
D10*
%TO.C,MX21*%
X161607500Y-60325000D03*
D11*
X166687500Y-60325000D03*
D10*
X171767500Y-60325000D03*
D12*
X162877500Y-57785000D03*
X169227500Y-55245000D03*
%TD*%
D17*
%TO.C,D16*%
X78581250Y-62518750D03*
X78581250Y-59718750D03*
%TD*%
D18*
%TO.C,C5*%
X142875000Y-94475000D03*
X142875000Y-96025000D03*
%TD*%
D17*
%TO.C,D10*%
X211931250Y-43468750D03*
X211931250Y-40668750D03*
%TD*%
D18*
%TO.C,C2*%
X152400000Y-94475000D03*
X152400000Y-96025000D03*
%TD*%
D17*
%TO.C,D21*%
X173831250Y-62518750D03*
X173831250Y-59718750D03*
%TD*%
%TO.C,D37*%
X240506250Y-81568750D03*
X240506250Y-78768750D03*
%TD*%
%TO.C,D28*%
X69056250Y-81568750D03*
X69056250Y-78768750D03*
%TD*%
D19*
%TO.C,C9*%
X146825000Y-73025000D03*
X145275000Y-73025000D03*
%TD*%
D17*
%TO.C,D34*%
X183356250Y-81568750D03*
X183356250Y-78768750D03*
%TD*%
D20*
%TO.C,J4*%
X153700000Y-66462500D03*
X153700000Y-67662500D03*
X153700000Y-68862500D03*
X153700000Y-70062500D03*
D21*
X157475000Y-65312500D03*
X157475000Y-71212500D03*
%TD*%
D17*
%TO.C,D42*%
X269875000Y-100618750D03*
X269875000Y-97818750D03*
%TD*%
%TO.C,D47*%
X200025000Y-105381250D03*
X200025000Y-102581250D03*
%TD*%
%TO.C,D39*%
X41275000Y-100618750D03*
X41275000Y-97818750D03*
%TD*%
%TO.C,D15*%
X59531250Y-62518750D03*
X59531250Y-59718750D03*
%TD*%
%TO.C,D13*%
X269081250Y-43468750D03*
X269081250Y-40668750D03*
%TD*%
%TO.C,D3*%
X78581250Y-43468750D03*
X78581250Y-40668750D03*
%TD*%
%TO.C,D20*%
X154781250Y-62518750D03*
X154781250Y-59718750D03*
%TD*%
%TO.C,D1*%
X40481250Y-43468750D03*
X40481250Y-40668750D03*
%TD*%
%TO.C,D11*%
X230981250Y-43468750D03*
X230981250Y-40668750D03*
%TD*%
%TO.C,D23*%
X211931250Y-62518750D03*
X211931250Y-59718750D03*
%TD*%
%TO.C,D24*%
X230981250Y-62518750D03*
X230981250Y-59718750D03*
%TD*%
%TO.C,D45*%
X138112500Y-105381250D03*
X138112500Y-102581250D03*
%TD*%
%TO.C,D7*%
X154781250Y-43468750D03*
X154781250Y-40668750D03*
%TD*%
%TO.C,D43*%
X84137500Y-105381250D03*
X84137500Y-102581250D03*
%TD*%
D18*
%TO.C,C7*%
X141287500Y-94475000D03*
X141287500Y-96025000D03*
%TD*%
D17*
%TO.C,D25*%
X250031250Y-62518750D03*
X250031250Y-59718750D03*
%TD*%
%TO.C,D6*%
X135731250Y-43468750D03*
X135731250Y-40668750D03*
%TD*%
D22*
%TO.C,SW3*%
X138037500Y-66412500D03*
X131837500Y-66412500D03*
X138037500Y-70112500D03*
X131837500Y-70112500D03*
%TD*%
D17*
%TO.C,D30*%
X107156250Y-81568750D03*
X107156250Y-78768750D03*
%TD*%
D23*
%TO.C,U3*%
X150387500Y-93856250D03*
X149887500Y-93856250D03*
X149387500Y-93856250D03*
X148887500Y-93856250D03*
X148387500Y-93856250D03*
X147887500Y-93856250D03*
X147387500Y-93856250D03*
X146887500Y-93856250D03*
X146387500Y-93856250D03*
X145887500Y-93856250D03*
X145387500Y-93856250D03*
X144887500Y-93856250D03*
D24*
X143475000Y-92443750D03*
X143475000Y-91943750D03*
X143475000Y-91443750D03*
X143475000Y-90943750D03*
X143475000Y-90443750D03*
X143475000Y-89943750D03*
X143475000Y-89443750D03*
X143475000Y-88943750D03*
X143475000Y-88443750D03*
X143475000Y-87943750D03*
X143475000Y-87443750D03*
X143475000Y-86943750D03*
D23*
X144887500Y-85531250D03*
X145387500Y-85531250D03*
X145887500Y-85531250D03*
X146387500Y-85531250D03*
X146887500Y-85531250D03*
X147387500Y-85531250D03*
X147887500Y-85531250D03*
X148387500Y-85531250D03*
X148887500Y-85531250D03*
X149387500Y-85531250D03*
X149887500Y-85531250D03*
X150387500Y-85531250D03*
D24*
X151800000Y-86943750D03*
X151800000Y-87443750D03*
X151800000Y-87943750D03*
X151800000Y-88443750D03*
X151800000Y-88943750D03*
X151800000Y-89443750D03*
X151800000Y-89943750D03*
X151800000Y-90443750D03*
X151800000Y-90943750D03*
X151800000Y-91443750D03*
X151800000Y-91943750D03*
X151800000Y-92443750D03*
%TD*%
D17*
%TO.C,D26*%
X269081250Y-62518750D03*
X269081250Y-59718750D03*
%TD*%
%TO.C,D8*%
X173831250Y-43468750D03*
X173831250Y-40668750D03*
%TD*%
%TO.C,D31*%
X126206250Y-81568750D03*
X126206250Y-78768750D03*
%TD*%
%TO.C,D46*%
X183356250Y-105381250D03*
X183356250Y-102581250D03*
%TD*%
%TO.C,D36*%
X221456250Y-81568750D03*
X221456250Y-78768750D03*
%TD*%
%TO.C,D40*%
X59531250Y-100618750D03*
X59531250Y-97818750D03*
%TD*%
D25*
%TO.C,C1*%
X152400000Y-84912500D03*
X152400000Y-83362500D03*
%TD*%
%TO.C,C6*%
X142875000Y-84912500D03*
X142875000Y-83362500D03*
%TD*%
D17*
%TO.C,D17*%
X97631250Y-62518750D03*
X97631250Y-59718750D03*
%TD*%
D26*
%TO.C,U2*%
X147000000Y-70787500D03*
X145100000Y-70787500D03*
X146050000Y-68912500D03*
%TD*%
D17*
%TO.C,D27*%
X45243750Y-81568750D03*
X45243750Y-78768750D03*
%TD*%
%TO.C,D44*%
X109537500Y-105381250D03*
X109537500Y-102581250D03*
%TD*%
%TO.C,D48*%
X227012500Y-105381250D03*
X227012500Y-102581250D03*
%TD*%
%TO.C,D22*%
X192881250Y-62518750D03*
X192881250Y-59718750D03*
%TD*%
D25*
%TO.C,C4*%
X141287500Y-84912500D03*
X141287500Y-83362500D03*
%TD*%
D17*
%TO.C,D35*%
X202406250Y-81568750D03*
X202406250Y-78768750D03*
%TD*%
D27*
%TO.C,J3*%
X152093947Y-66762500D03*
X152093947Y-67762500D03*
X152093947Y-68762500D03*
X152093947Y-69762500D03*
D28*
X155968947Y-65462500D03*
X155968947Y-71062500D03*
%TD*%
D17*
%TO.C,D12*%
X250031250Y-43468750D03*
X250031250Y-40668750D03*
%TD*%
%TO.C,D32*%
X145256250Y-81568750D03*
X145256250Y-78768750D03*
%TD*%
%TO.C,D33*%
X164306250Y-81568750D03*
X164306250Y-78768750D03*
%TD*%
%TO.C,D29*%
X88106250Y-81568750D03*
X88106250Y-78768750D03*
%TD*%
%TO.C,D2*%
X59531250Y-43468750D03*
X59531250Y-40668750D03*
%TD*%
%TO.C,D41*%
X250031250Y-100618750D03*
X250031250Y-97818750D03*
%TD*%
D29*
%TO.C,R1*%
X140493750Y-69087500D03*
X140493750Y-67437500D03*
%TD*%
D17*
%TO.C,D4*%
X97631250Y-43468750D03*
X97631250Y-40668750D03*
%TD*%
D30*
%TO.C,C8*%
X145275000Y-66675000D03*
X146825000Y-66675000D03*
%TD*%
D18*
%TO.C,C3*%
X153987500Y-94475000D03*
X153987500Y-96025000D03*
%TD*%
D17*
%TO.C,D14*%
X40481250Y-62518750D03*
X40481250Y-59718750D03*
%TD*%
%TO.C,D18*%
X116681250Y-62518750D03*
X116681250Y-59718750D03*
%TD*%
%TO.C,D38*%
X264318750Y-81568750D03*
X264318750Y-78768750D03*
%TD*%
%TO.C,D9*%
X192881250Y-43468750D03*
X192881250Y-40668750D03*
%TD*%
%TO.C,D5*%
X116681250Y-43468750D03*
X116681250Y-40668750D03*
%TD*%
%TO.C,D19*%
X135731250Y-62518750D03*
X135731250Y-59718750D03*
%TD*%
M02*
