%TF.GenerationSoftware,KiCad,Pcbnew,8.0.3*%
%TF.CreationDate,2024-09-04T21:23:11+02:00*%
%TF.ProjectId,ferntypes,6665726e-7479-4706-9573-2e6b69636164,rev?*%
%TF.SameCoordinates,Original*%
%TF.FileFunction,Other,Comment*%
%FSLAX46Y46*%
G04 Gerber Fmt 4.6, Leading zero omitted, Abs format (unit mm)*
G04 Created by KiCad (PCBNEW 8.0.3) date 2024-09-04 21:23:11*
%MOMM*%
%LPD*%
G01*
G04 APERTURE LIST*
%ADD10C,0.150000*%
%ADD11C,0.030000*%
G04 APERTURE END LIST*
D10*
X116276785Y-95514319D02*
X116276785Y-94514319D01*
X116276785Y-94514319D02*
X116610118Y-95228604D01*
X116610118Y-95228604D02*
X116943451Y-94514319D01*
X116943451Y-94514319D02*
X116943451Y-95514319D01*
X117324404Y-94514319D02*
X117991070Y-95514319D01*
X117991070Y-94514319D02*
X117324404Y-95514319D01*
X118133928Y-95609557D02*
X118895832Y-95609557D01*
X119086309Y-95466700D02*
X119181547Y-95514319D01*
X119181547Y-95514319D02*
X119372023Y-95514319D01*
X119372023Y-95514319D02*
X119467261Y-95466700D01*
X119467261Y-95466700D02*
X119514880Y-95371461D01*
X119514880Y-95371461D02*
X119514880Y-95323842D01*
X119514880Y-95323842D02*
X119467261Y-95228604D01*
X119467261Y-95228604D02*
X119372023Y-95180985D01*
X119372023Y-95180985D02*
X119229166Y-95180985D01*
X119229166Y-95180985D02*
X119133928Y-95133366D01*
X119133928Y-95133366D02*
X119086309Y-95038128D01*
X119086309Y-95038128D02*
X119086309Y-94990509D01*
X119086309Y-94990509D02*
X119133928Y-94895271D01*
X119133928Y-94895271D02*
X119229166Y-94847652D01*
X119229166Y-94847652D02*
X119372023Y-94847652D01*
X119372023Y-94847652D02*
X119467261Y-94895271D01*
X119800595Y-94847652D02*
X120181547Y-94847652D01*
X119943452Y-94514319D02*
X119943452Y-95371461D01*
X119943452Y-95371461D02*
X119991071Y-95466700D01*
X119991071Y-95466700D02*
X120086309Y-95514319D01*
X120086309Y-95514319D02*
X120181547Y-95514319D01*
X120943452Y-95514319D02*
X120943452Y-94990509D01*
X120943452Y-94990509D02*
X120895833Y-94895271D01*
X120895833Y-94895271D02*
X120800595Y-94847652D01*
X120800595Y-94847652D02*
X120610119Y-94847652D01*
X120610119Y-94847652D02*
X120514881Y-94895271D01*
X120943452Y-95466700D02*
X120848214Y-95514319D01*
X120848214Y-95514319D02*
X120610119Y-95514319D01*
X120610119Y-95514319D02*
X120514881Y-95466700D01*
X120514881Y-95466700D02*
X120467262Y-95371461D01*
X120467262Y-95371461D02*
X120467262Y-95276223D01*
X120467262Y-95276223D02*
X120514881Y-95180985D01*
X120514881Y-95180985D02*
X120610119Y-95133366D01*
X120610119Y-95133366D02*
X120848214Y-95133366D01*
X120848214Y-95133366D02*
X120943452Y-95085747D01*
X121419643Y-95514319D02*
X121419643Y-94514319D01*
X121419643Y-94895271D02*
X121514881Y-94847652D01*
X121514881Y-94847652D02*
X121705357Y-94847652D01*
X121705357Y-94847652D02*
X121800595Y-94895271D01*
X121800595Y-94895271D02*
X121848214Y-94942890D01*
X121848214Y-94942890D02*
X121895833Y-95038128D01*
X121895833Y-95038128D02*
X121895833Y-95323842D01*
X121895833Y-95323842D02*
X121848214Y-95419080D01*
X121848214Y-95419080D02*
X121800595Y-95466700D01*
X121800595Y-95466700D02*
X121705357Y-95514319D01*
X121705357Y-95514319D02*
X121514881Y-95514319D01*
X121514881Y-95514319D02*
X121419643Y-95466700D01*
X173426785Y-95514319D02*
X173426785Y-94514319D01*
X173426785Y-94514319D02*
X173760118Y-95228604D01*
X173760118Y-95228604D02*
X174093451Y-94514319D01*
X174093451Y-94514319D02*
X174093451Y-95514319D01*
X174474404Y-94514319D02*
X175141070Y-95514319D01*
X175141070Y-94514319D02*
X174474404Y-95514319D01*
X175283928Y-95609557D02*
X176045832Y-95609557D01*
X176236309Y-95466700D02*
X176331547Y-95514319D01*
X176331547Y-95514319D02*
X176522023Y-95514319D01*
X176522023Y-95514319D02*
X176617261Y-95466700D01*
X176617261Y-95466700D02*
X176664880Y-95371461D01*
X176664880Y-95371461D02*
X176664880Y-95323842D01*
X176664880Y-95323842D02*
X176617261Y-95228604D01*
X176617261Y-95228604D02*
X176522023Y-95180985D01*
X176522023Y-95180985D02*
X176379166Y-95180985D01*
X176379166Y-95180985D02*
X176283928Y-95133366D01*
X176283928Y-95133366D02*
X176236309Y-95038128D01*
X176236309Y-95038128D02*
X176236309Y-94990509D01*
X176236309Y-94990509D02*
X176283928Y-94895271D01*
X176283928Y-94895271D02*
X176379166Y-94847652D01*
X176379166Y-94847652D02*
X176522023Y-94847652D01*
X176522023Y-94847652D02*
X176617261Y-94895271D01*
X176950595Y-94847652D02*
X177331547Y-94847652D01*
X177093452Y-94514319D02*
X177093452Y-95371461D01*
X177093452Y-95371461D02*
X177141071Y-95466700D01*
X177141071Y-95466700D02*
X177236309Y-95514319D01*
X177236309Y-95514319D02*
X177331547Y-95514319D01*
X178093452Y-95514319D02*
X178093452Y-94990509D01*
X178093452Y-94990509D02*
X178045833Y-94895271D01*
X178045833Y-94895271D02*
X177950595Y-94847652D01*
X177950595Y-94847652D02*
X177760119Y-94847652D01*
X177760119Y-94847652D02*
X177664881Y-94895271D01*
X178093452Y-95466700D02*
X177998214Y-95514319D01*
X177998214Y-95514319D02*
X177760119Y-95514319D01*
X177760119Y-95514319D02*
X177664881Y-95466700D01*
X177664881Y-95466700D02*
X177617262Y-95371461D01*
X177617262Y-95371461D02*
X177617262Y-95276223D01*
X177617262Y-95276223D02*
X177664881Y-95180985D01*
X177664881Y-95180985D02*
X177760119Y-95133366D01*
X177760119Y-95133366D02*
X177998214Y-95133366D01*
X177998214Y-95133366D02*
X178093452Y-95085747D01*
X178569643Y-95514319D02*
X178569643Y-94514319D01*
X178569643Y-94895271D02*
X178664881Y-94847652D01*
X178664881Y-94847652D02*
X178855357Y-94847652D01*
X178855357Y-94847652D02*
X178950595Y-94895271D01*
X178950595Y-94895271D02*
X178998214Y-94942890D01*
X178998214Y-94942890D02*
X179045833Y-95038128D01*
X179045833Y-95038128D02*
X179045833Y-95323842D01*
X179045833Y-95323842D02*
X178998214Y-95419080D01*
X178998214Y-95419080D02*
X178950595Y-95466700D01*
X178950595Y-95466700D02*
X178855357Y-95514319D01*
X178855357Y-95514319D02*
X178664881Y-95514319D01*
X178664881Y-95514319D02*
X178569643Y-95466700D01*
D11*
X136223215Y-68153463D02*
X136223215Y-67953463D01*
X136337500Y-68153463D02*
X136251786Y-68039178D01*
X136337500Y-67953463D02*
X136223215Y-68067749D01*
X136423215Y-68048701D02*
X136489881Y-68048701D01*
X136518453Y-68153463D02*
X136423215Y-68153463D01*
X136423215Y-68153463D02*
X136423215Y-67953463D01*
X136423215Y-67953463D02*
X136518453Y-67953463D01*
X136604167Y-68048701D02*
X136670833Y-68048701D01*
X136699405Y-68153463D02*
X136604167Y-68153463D01*
X136604167Y-68153463D02*
X136604167Y-67953463D01*
X136604167Y-67953463D02*
X136699405Y-67953463D01*
X136785119Y-68153463D02*
X136785119Y-67953463D01*
X136785119Y-67953463D02*
X136861309Y-67953463D01*
X136861309Y-67953463D02*
X136880357Y-67962987D01*
X136880357Y-67962987D02*
X136889880Y-67972511D01*
X136889880Y-67972511D02*
X136899404Y-67991559D01*
X136899404Y-67991559D02*
X136899404Y-68020130D01*
X136899404Y-68020130D02*
X136889880Y-68039178D01*
X136889880Y-68039178D02*
X136880357Y-68048701D01*
X136880357Y-68048701D02*
X136861309Y-68058225D01*
X136861309Y-68058225D02*
X136785119Y-68058225D01*
X136985119Y-68077273D02*
X137137500Y-68077273D01*
X137270833Y-67953463D02*
X137308928Y-67953463D01*
X137308928Y-67953463D02*
X137327976Y-67962987D01*
X137327976Y-67962987D02*
X137347023Y-67982035D01*
X137347023Y-67982035D02*
X137356547Y-68020130D01*
X137356547Y-68020130D02*
X137356547Y-68086797D01*
X137356547Y-68086797D02*
X137347023Y-68124892D01*
X137347023Y-68124892D02*
X137327976Y-68143940D01*
X137327976Y-68143940D02*
X137308928Y-68153463D01*
X137308928Y-68153463D02*
X137270833Y-68153463D01*
X137270833Y-68153463D02*
X137251785Y-68143940D01*
X137251785Y-68143940D02*
X137232738Y-68124892D01*
X137232738Y-68124892D02*
X137223214Y-68086797D01*
X137223214Y-68086797D02*
X137223214Y-68020130D01*
X137223214Y-68020130D02*
X137232738Y-67982035D01*
X137232738Y-67982035D02*
X137251785Y-67962987D01*
X137251785Y-67962987D02*
X137270833Y-67953463D01*
X137442262Y-67953463D02*
X137442262Y-68115368D01*
X137442262Y-68115368D02*
X137451785Y-68134416D01*
X137451785Y-68134416D02*
X137461309Y-68143940D01*
X137461309Y-68143940D02*
X137480357Y-68153463D01*
X137480357Y-68153463D02*
X137518452Y-68153463D01*
X137518452Y-68153463D02*
X137537500Y-68143940D01*
X137537500Y-68143940D02*
X137547023Y-68134416D01*
X137547023Y-68134416D02*
X137556547Y-68115368D01*
X137556547Y-68115368D02*
X137556547Y-67953463D01*
X137623214Y-67953463D02*
X137737500Y-67953463D01*
X137680357Y-68153463D02*
X137680357Y-67953463D01*
X137937500Y-67953463D02*
X138070833Y-67953463D01*
X138070833Y-67953463D02*
X137937500Y-68153463D01*
X137937500Y-68153463D02*
X138070833Y-68153463D01*
X138185119Y-67953463D02*
X138223214Y-67953463D01*
X138223214Y-67953463D02*
X138242262Y-67962987D01*
X138242262Y-67962987D02*
X138261309Y-67982035D01*
X138261309Y-67982035D02*
X138270833Y-68020130D01*
X138270833Y-68020130D02*
X138270833Y-68086797D01*
X138270833Y-68086797D02*
X138261309Y-68124892D01*
X138261309Y-68124892D02*
X138242262Y-68143940D01*
X138242262Y-68143940D02*
X138223214Y-68153463D01*
X138223214Y-68153463D02*
X138185119Y-68153463D01*
X138185119Y-68153463D02*
X138166071Y-68143940D01*
X138166071Y-68143940D02*
X138147024Y-68124892D01*
X138147024Y-68124892D02*
X138137500Y-68086797D01*
X138137500Y-68086797D02*
X138137500Y-68020130D01*
X138137500Y-68020130D02*
X138147024Y-67982035D01*
X138147024Y-67982035D02*
X138166071Y-67962987D01*
X138166071Y-67962987D02*
X138185119Y-67953463D01*
X138356548Y-68153463D02*
X138356548Y-67953463D01*
X138356548Y-67953463D02*
X138470833Y-68153463D01*
X138470833Y-68153463D02*
X138470833Y-67953463D01*
X138566072Y-68048701D02*
X138632738Y-68048701D01*
X138661310Y-68153463D02*
X138566072Y-68153463D01*
X138566072Y-68153463D02*
X138566072Y-67953463D01*
X138566072Y-67953463D02*
X138661310Y-67953463D01*
X131223215Y-68153463D02*
X131223215Y-67953463D01*
X131337500Y-68153463D02*
X131251786Y-68039178D01*
X131337500Y-67953463D02*
X131223215Y-68067749D01*
X131423215Y-68048701D02*
X131489881Y-68048701D01*
X131518453Y-68153463D02*
X131423215Y-68153463D01*
X131423215Y-68153463D02*
X131423215Y-67953463D01*
X131423215Y-67953463D02*
X131518453Y-67953463D01*
X131604167Y-68048701D02*
X131670833Y-68048701D01*
X131699405Y-68153463D02*
X131604167Y-68153463D01*
X131604167Y-68153463D02*
X131604167Y-67953463D01*
X131604167Y-67953463D02*
X131699405Y-67953463D01*
X131785119Y-68153463D02*
X131785119Y-67953463D01*
X131785119Y-67953463D02*
X131861309Y-67953463D01*
X131861309Y-67953463D02*
X131880357Y-67962987D01*
X131880357Y-67962987D02*
X131889880Y-67972511D01*
X131889880Y-67972511D02*
X131899404Y-67991559D01*
X131899404Y-67991559D02*
X131899404Y-68020130D01*
X131899404Y-68020130D02*
X131889880Y-68039178D01*
X131889880Y-68039178D02*
X131880357Y-68048701D01*
X131880357Y-68048701D02*
X131861309Y-68058225D01*
X131861309Y-68058225D02*
X131785119Y-68058225D01*
X131985119Y-68077273D02*
X132137500Y-68077273D01*
X132270833Y-67953463D02*
X132308928Y-67953463D01*
X132308928Y-67953463D02*
X132327976Y-67962987D01*
X132327976Y-67962987D02*
X132347023Y-67982035D01*
X132347023Y-67982035D02*
X132356547Y-68020130D01*
X132356547Y-68020130D02*
X132356547Y-68086797D01*
X132356547Y-68086797D02*
X132347023Y-68124892D01*
X132347023Y-68124892D02*
X132327976Y-68143940D01*
X132327976Y-68143940D02*
X132308928Y-68153463D01*
X132308928Y-68153463D02*
X132270833Y-68153463D01*
X132270833Y-68153463D02*
X132251785Y-68143940D01*
X132251785Y-68143940D02*
X132232738Y-68124892D01*
X132232738Y-68124892D02*
X132223214Y-68086797D01*
X132223214Y-68086797D02*
X132223214Y-68020130D01*
X132223214Y-68020130D02*
X132232738Y-67982035D01*
X132232738Y-67982035D02*
X132251785Y-67962987D01*
X132251785Y-67962987D02*
X132270833Y-67953463D01*
X132442262Y-67953463D02*
X132442262Y-68115368D01*
X132442262Y-68115368D02*
X132451785Y-68134416D01*
X132451785Y-68134416D02*
X132461309Y-68143940D01*
X132461309Y-68143940D02*
X132480357Y-68153463D01*
X132480357Y-68153463D02*
X132518452Y-68153463D01*
X132518452Y-68153463D02*
X132537500Y-68143940D01*
X132537500Y-68143940D02*
X132547023Y-68134416D01*
X132547023Y-68134416D02*
X132556547Y-68115368D01*
X132556547Y-68115368D02*
X132556547Y-67953463D01*
X132623214Y-67953463D02*
X132737500Y-67953463D01*
X132680357Y-68153463D02*
X132680357Y-67953463D01*
X132937500Y-67953463D02*
X133070833Y-67953463D01*
X133070833Y-67953463D02*
X132937500Y-68153463D01*
X132937500Y-68153463D02*
X133070833Y-68153463D01*
X133185119Y-67953463D02*
X133223214Y-67953463D01*
X133223214Y-67953463D02*
X133242262Y-67962987D01*
X133242262Y-67962987D02*
X133261309Y-67982035D01*
X133261309Y-67982035D02*
X133270833Y-68020130D01*
X133270833Y-68020130D02*
X133270833Y-68086797D01*
X133270833Y-68086797D02*
X133261309Y-68124892D01*
X133261309Y-68124892D02*
X133242262Y-68143940D01*
X133242262Y-68143940D02*
X133223214Y-68153463D01*
X133223214Y-68153463D02*
X133185119Y-68153463D01*
X133185119Y-68153463D02*
X133166071Y-68143940D01*
X133166071Y-68143940D02*
X133147024Y-68124892D01*
X133147024Y-68124892D02*
X133137500Y-68086797D01*
X133137500Y-68086797D02*
X133137500Y-68020130D01*
X133137500Y-68020130D02*
X133147024Y-67982035D01*
X133147024Y-67982035D02*
X133166071Y-67962987D01*
X133166071Y-67962987D02*
X133185119Y-67953463D01*
X133356548Y-68153463D02*
X133356548Y-67953463D01*
X133356548Y-67953463D02*
X133470833Y-68153463D01*
X133470833Y-68153463D02*
X133470833Y-67953463D01*
X133566072Y-68048701D02*
X133632738Y-68048701D01*
X133661310Y-68153463D02*
X133566072Y-68153463D01*
X133566072Y-68153463D02*
X133566072Y-67953463D01*
X133566072Y-67953463D02*
X133661310Y-67953463D01*
X131356547Y-68553463D02*
X131356547Y-68353463D01*
X131356547Y-68353463D02*
X131470832Y-68553463D01*
X131470832Y-68553463D02*
X131470832Y-68353463D01*
X131594642Y-68553463D02*
X131575594Y-68543940D01*
X131575594Y-68543940D02*
X131566071Y-68534416D01*
X131566071Y-68534416D02*
X131556547Y-68515368D01*
X131556547Y-68515368D02*
X131556547Y-68458225D01*
X131556547Y-68458225D02*
X131566071Y-68439178D01*
X131566071Y-68439178D02*
X131575594Y-68429654D01*
X131575594Y-68429654D02*
X131594642Y-68420130D01*
X131594642Y-68420130D02*
X131623213Y-68420130D01*
X131623213Y-68420130D02*
X131642261Y-68429654D01*
X131642261Y-68429654D02*
X131651785Y-68439178D01*
X131651785Y-68439178D02*
X131661309Y-68458225D01*
X131661309Y-68458225D02*
X131661309Y-68515368D01*
X131661309Y-68515368D02*
X131651785Y-68534416D01*
X131651785Y-68534416D02*
X131642261Y-68543940D01*
X131642261Y-68543940D02*
X131623213Y-68553463D01*
X131623213Y-68553463D02*
X131594642Y-68553463D01*
X131966070Y-68448701D02*
X131899404Y-68448701D01*
X131899404Y-68553463D02*
X131899404Y-68353463D01*
X131899404Y-68353463D02*
X131994642Y-68353463D01*
X132070833Y-68534416D02*
X132080356Y-68543940D01*
X132080356Y-68543940D02*
X132070833Y-68553463D01*
X132070833Y-68553463D02*
X132061309Y-68543940D01*
X132061309Y-68543940D02*
X132070833Y-68534416D01*
X132070833Y-68534416D02*
X132070833Y-68553463D01*
X132280356Y-68534416D02*
X132270832Y-68543940D01*
X132270832Y-68543940D02*
X132242261Y-68553463D01*
X132242261Y-68553463D02*
X132223213Y-68553463D01*
X132223213Y-68553463D02*
X132194642Y-68543940D01*
X132194642Y-68543940D02*
X132175594Y-68524892D01*
X132175594Y-68524892D02*
X132166071Y-68505844D01*
X132166071Y-68505844D02*
X132156547Y-68467749D01*
X132156547Y-68467749D02*
X132156547Y-68439178D01*
X132156547Y-68439178D02*
X132166071Y-68401082D01*
X132166071Y-68401082D02*
X132175594Y-68382035D01*
X132175594Y-68382035D02*
X132194642Y-68362987D01*
X132194642Y-68362987D02*
X132223213Y-68353463D01*
X132223213Y-68353463D02*
X132242261Y-68353463D01*
X132242261Y-68353463D02*
X132270832Y-68362987D01*
X132270832Y-68362987D02*
X132280356Y-68372511D01*
X132451785Y-68420130D02*
X132451785Y-68553463D01*
X132366071Y-68420130D02*
X132366071Y-68524892D01*
X132366071Y-68524892D02*
X132375594Y-68543940D01*
X132375594Y-68543940D02*
X132394642Y-68553463D01*
X132394642Y-68553463D02*
X132423213Y-68553463D01*
X132423213Y-68553463D02*
X132442261Y-68543940D01*
X132442261Y-68543940D02*
X132451785Y-68534416D01*
X132670832Y-68420130D02*
X132747023Y-68420130D01*
X132699404Y-68353463D02*
X132699404Y-68524892D01*
X132699404Y-68524892D02*
X132708927Y-68543940D01*
X132708927Y-68543940D02*
X132727975Y-68553463D01*
X132727975Y-68553463D02*
X132747023Y-68553463D01*
X132813690Y-68553463D02*
X132813690Y-68420130D01*
X132813690Y-68458225D02*
X132823213Y-68439178D01*
X132823213Y-68439178D02*
X132832737Y-68429654D01*
X132832737Y-68429654D02*
X132851785Y-68420130D01*
X132851785Y-68420130D02*
X132870832Y-68420130D01*
X133023214Y-68553463D02*
X133023214Y-68448701D01*
X133023214Y-68448701D02*
X133013690Y-68429654D01*
X133013690Y-68429654D02*
X132994642Y-68420130D01*
X132994642Y-68420130D02*
X132956547Y-68420130D01*
X132956547Y-68420130D02*
X132937500Y-68429654D01*
X133023214Y-68543940D02*
X133004166Y-68553463D01*
X133004166Y-68553463D02*
X132956547Y-68553463D01*
X132956547Y-68553463D02*
X132937500Y-68543940D01*
X132937500Y-68543940D02*
X132927976Y-68524892D01*
X132927976Y-68524892D02*
X132927976Y-68505844D01*
X132927976Y-68505844D02*
X132937500Y-68486797D01*
X132937500Y-68486797D02*
X132956547Y-68477273D01*
X132956547Y-68477273D02*
X133004166Y-68477273D01*
X133004166Y-68477273D02*
X133023214Y-68467749D01*
X133204166Y-68543940D02*
X133185118Y-68553463D01*
X133185118Y-68553463D02*
X133147023Y-68553463D01*
X133147023Y-68553463D02*
X133127975Y-68543940D01*
X133127975Y-68543940D02*
X133118452Y-68534416D01*
X133118452Y-68534416D02*
X133108928Y-68515368D01*
X133108928Y-68515368D02*
X133108928Y-68458225D01*
X133108928Y-68458225D02*
X133118452Y-68439178D01*
X133118452Y-68439178D02*
X133127975Y-68429654D01*
X133127975Y-68429654D02*
X133147023Y-68420130D01*
X133147023Y-68420130D02*
X133185118Y-68420130D01*
X133185118Y-68420130D02*
X133204166Y-68429654D01*
X133289881Y-68553463D02*
X133289881Y-68353463D01*
X133308928Y-68477273D02*
X133366071Y-68553463D01*
X133366071Y-68420130D02*
X133289881Y-68496320D01*
X133442262Y-68543940D02*
X133461309Y-68553463D01*
X133461309Y-68553463D02*
X133499405Y-68553463D01*
X133499405Y-68553463D02*
X133518452Y-68543940D01*
X133518452Y-68543940D02*
X133527976Y-68524892D01*
X133527976Y-68524892D02*
X133527976Y-68515368D01*
X133527976Y-68515368D02*
X133518452Y-68496320D01*
X133518452Y-68496320D02*
X133499405Y-68486797D01*
X133499405Y-68486797D02*
X133470833Y-68486797D01*
X133470833Y-68486797D02*
X133451786Y-68477273D01*
X133451786Y-68477273D02*
X133442262Y-68458225D01*
X133442262Y-68458225D02*
X133442262Y-68448701D01*
X133442262Y-68448701D02*
X133451786Y-68429654D01*
X133451786Y-68429654D02*
X133470833Y-68420130D01*
X133470833Y-68420130D02*
X133499405Y-68420130D01*
X133499405Y-68420130D02*
X133518452Y-68429654D01*
X136356547Y-68553463D02*
X136356547Y-68353463D01*
X136356547Y-68353463D02*
X136470832Y-68553463D01*
X136470832Y-68553463D02*
X136470832Y-68353463D01*
X136594642Y-68553463D02*
X136575594Y-68543940D01*
X136575594Y-68543940D02*
X136566071Y-68534416D01*
X136566071Y-68534416D02*
X136556547Y-68515368D01*
X136556547Y-68515368D02*
X136556547Y-68458225D01*
X136556547Y-68458225D02*
X136566071Y-68439178D01*
X136566071Y-68439178D02*
X136575594Y-68429654D01*
X136575594Y-68429654D02*
X136594642Y-68420130D01*
X136594642Y-68420130D02*
X136623213Y-68420130D01*
X136623213Y-68420130D02*
X136642261Y-68429654D01*
X136642261Y-68429654D02*
X136651785Y-68439178D01*
X136651785Y-68439178D02*
X136661309Y-68458225D01*
X136661309Y-68458225D02*
X136661309Y-68515368D01*
X136661309Y-68515368D02*
X136651785Y-68534416D01*
X136651785Y-68534416D02*
X136642261Y-68543940D01*
X136642261Y-68543940D02*
X136623213Y-68553463D01*
X136623213Y-68553463D02*
X136594642Y-68553463D01*
X136966070Y-68448701D02*
X136899404Y-68448701D01*
X136899404Y-68553463D02*
X136899404Y-68353463D01*
X136899404Y-68353463D02*
X136994642Y-68353463D01*
X137070833Y-68534416D02*
X137080356Y-68543940D01*
X137080356Y-68543940D02*
X137070833Y-68553463D01*
X137070833Y-68553463D02*
X137061309Y-68543940D01*
X137061309Y-68543940D02*
X137070833Y-68534416D01*
X137070833Y-68534416D02*
X137070833Y-68553463D01*
X137280356Y-68534416D02*
X137270832Y-68543940D01*
X137270832Y-68543940D02*
X137242261Y-68553463D01*
X137242261Y-68553463D02*
X137223213Y-68553463D01*
X137223213Y-68553463D02*
X137194642Y-68543940D01*
X137194642Y-68543940D02*
X137175594Y-68524892D01*
X137175594Y-68524892D02*
X137166071Y-68505844D01*
X137166071Y-68505844D02*
X137156547Y-68467749D01*
X137156547Y-68467749D02*
X137156547Y-68439178D01*
X137156547Y-68439178D02*
X137166071Y-68401082D01*
X137166071Y-68401082D02*
X137175594Y-68382035D01*
X137175594Y-68382035D02*
X137194642Y-68362987D01*
X137194642Y-68362987D02*
X137223213Y-68353463D01*
X137223213Y-68353463D02*
X137242261Y-68353463D01*
X137242261Y-68353463D02*
X137270832Y-68362987D01*
X137270832Y-68362987D02*
X137280356Y-68372511D01*
X137451785Y-68420130D02*
X137451785Y-68553463D01*
X137366071Y-68420130D02*
X137366071Y-68524892D01*
X137366071Y-68524892D02*
X137375594Y-68543940D01*
X137375594Y-68543940D02*
X137394642Y-68553463D01*
X137394642Y-68553463D02*
X137423213Y-68553463D01*
X137423213Y-68553463D02*
X137442261Y-68543940D01*
X137442261Y-68543940D02*
X137451785Y-68534416D01*
X137670832Y-68420130D02*
X137747023Y-68420130D01*
X137699404Y-68353463D02*
X137699404Y-68524892D01*
X137699404Y-68524892D02*
X137708927Y-68543940D01*
X137708927Y-68543940D02*
X137727975Y-68553463D01*
X137727975Y-68553463D02*
X137747023Y-68553463D01*
X137813690Y-68553463D02*
X137813690Y-68420130D01*
X137813690Y-68458225D02*
X137823213Y-68439178D01*
X137823213Y-68439178D02*
X137832737Y-68429654D01*
X137832737Y-68429654D02*
X137851785Y-68420130D01*
X137851785Y-68420130D02*
X137870832Y-68420130D01*
X138023214Y-68553463D02*
X138023214Y-68448701D01*
X138023214Y-68448701D02*
X138013690Y-68429654D01*
X138013690Y-68429654D02*
X137994642Y-68420130D01*
X137994642Y-68420130D02*
X137956547Y-68420130D01*
X137956547Y-68420130D02*
X137937500Y-68429654D01*
X138023214Y-68543940D02*
X138004166Y-68553463D01*
X138004166Y-68553463D02*
X137956547Y-68553463D01*
X137956547Y-68553463D02*
X137937500Y-68543940D01*
X137937500Y-68543940D02*
X137927976Y-68524892D01*
X137927976Y-68524892D02*
X137927976Y-68505844D01*
X137927976Y-68505844D02*
X137937500Y-68486797D01*
X137937500Y-68486797D02*
X137956547Y-68477273D01*
X137956547Y-68477273D02*
X138004166Y-68477273D01*
X138004166Y-68477273D02*
X138023214Y-68467749D01*
X138204166Y-68543940D02*
X138185118Y-68553463D01*
X138185118Y-68553463D02*
X138147023Y-68553463D01*
X138147023Y-68553463D02*
X138127975Y-68543940D01*
X138127975Y-68543940D02*
X138118452Y-68534416D01*
X138118452Y-68534416D02*
X138108928Y-68515368D01*
X138108928Y-68515368D02*
X138108928Y-68458225D01*
X138108928Y-68458225D02*
X138118452Y-68439178D01*
X138118452Y-68439178D02*
X138127975Y-68429654D01*
X138127975Y-68429654D02*
X138147023Y-68420130D01*
X138147023Y-68420130D02*
X138185118Y-68420130D01*
X138185118Y-68420130D02*
X138204166Y-68429654D01*
X138289881Y-68553463D02*
X138289881Y-68353463D01*
X138308928Y-68477273D02*
X138366071Y-68553463D01*
X138366071Y-68420130D02*
X138289881Y-68496320D01*
X138442262Y-68543940D02*
X138461309Y-68553463D01*
X138461309Y-68553463D02*
X138499405Y-68553463D01*
X138499405Y-68553463D02*
X138518452Y-68543940D01*
X138518452Y-68543940D02*
X138527976Y-68524892D01*
X138527976Y-68524892D02*
X138527976Y-68515368D01*
X138527976Y-68515368D02*
X138518452Y-68496320D01*
X138518452Y-68496320D02*
X138499405Y-68486797D01*
X138499405Y-68486797D02*
X138470833Y-68486797D01*
X138470833Y-68486797D02*
X138451786Y-68477273D01*
X138451786Y-68477273D02*
X138442262Y-68458225D01*
X138442262Y-68458225D02*
X138442262Y-68448701D01*
X138442262Y-68448701D02*
X138451786Y-68429654D01*
X138451786Y-68429654D02*
X138470833Y-68420130D01*
X138470833Y-68420130D02*
X138499405Y-68420130D01*
X138499405Y-68420130D02*
X138518452Y-68429654D01*
M02*
